{"glyphs":{"0":{"ha":776,"x_min":56,"x_max":736,"o":"m 324 -15 q 130 71 204 -15 q 56 321 56 157 q 72 502 56 407 q 120 687 88 597 q 202 849 153 776 q 319 964 251 921 q 472 1007 386 1007 q 606 974 546 1007 q 701 870 665 940 q 736 689 736 800 q 721 508 736 604 q 674 320 706 413 q 593 151 642 228 q 477 30 544 75 q 324 -15 410 -15 m 335 61 q 438 105 393 61 q 513 221 482 149 q 564 380 544 293 q 592 554 583 467 q 601 715 601 642 q 585 839 601 792 q 536 909 568 886 q 458 932 504 932 q 356 888 400 932 q 281 773 313 844 q 229 615 249 701 q 200 441 210 528 q 190 281 190 354 q 229 113 190 165 q 335 61 268 61 z "},"1":{"ha":776,"x_min":53,"x_max":592,"o":"m 53 0 l 64 58 l 138 58 q 197 65 169 58 q 244 94 224 72 q 274 158 265 115 l 382 669 q 406 778 393 724 q 433 888 419 833 l 428 888 q 310 781 358 819 q 218 743 263 743 q 176 765 189 743 q 163 818 163 786 q 227 838 194 826 q 299 871 260 850 q 390 925 338 892 l 503 997 l 592 997 l 413 153 q 409 133 411 144 q 407 114 407 121 q 435 69 407 79 q 507 58 464 58 l 582 58 l 569 0 l 53 0 z "},"2":{"ha":776,"x_min":-24,"x_max":707,"o":"m -24 0 l 6 113 l 332 407 q 476 557 426 492 q 546 679 526 622 q 565 796 565 736 q 532 897 565 858 q 438 936 499 936 q 338 907 378 936 q 274 830 297 878 q 240 726 250 782 q 169 747 197 726 q 142 815 142 768 q 177 907 142 864 q 281 978 213 950 q 444 1006 349 1006 q 641 951 575 1006 q 707 803 707 897 q 688 708 707 754 q 633 613 669 661 q 542 510 596 564 q 418 392 489 456 l 106 111 l 428 111 q 497 126 471 111 q 538 165 522 142 q 565 215 554 189 l 575 238 l 633 238 l 578 0 l -24 0 z "},"3":{"ha":776,"x_min":-4,"x_max":718,"o":"m 265 -14 q 107 7 167 -14 q 22 61 47 28 q -4 132 -4 94 q 27 208 -4 181 q 101 235 58 235 q 119 153 101 193 q 174 88 136 114 q 275 63 213 63 q 389 89 338 63 q 471 167 440 115 q 501 297 501 219 q 478 394 501 354 q 412 456 456 435 q 306 478 368 478 l 246 478 l 260 549 l 304 549 q 443 581 382 549 q 540 673 504 614 q 575 810 575 732 q 547 901 575 865 q 457 936 518 936 q 355 907 394 936 q 294 831 315 878 q 260 729 272 785 q 187 748 217 729 q 157 818 157 767 q 198 917 157 875 q 308 983 239 960 q 463 1006 378 1006 q 648 953 578 1006 q 718 807 718 901 q 687 684 718 743 q 594 582 656 625 q 439 522 532 539 q 549 488 503 515 q 622 417 596 461 q 647 313 647 372 q 613 158 647 221 q 521 57 578 94 q 397 3 464 19 q 265 -14 331 -14 z "},"4":{"ha":776,"x_min":-19,"x_max":731,"o":"m 178 0 l 189 58 l 250 58 q 309 65 282 58 q 357 94 336 72 q 386 158 378 115 l 479 610 q 510 743 492 671 q 547 879 528 815 q 509 824 532 856 q 463 765 486 793 q 425 719 440 736 l 68 301 l 47 350 l 731 350 l 714 272 l -19 272 l -7 329 l 563 992 l 696 992 l 518 153 q 515 133 517 144 q 513 114 513 121 q 541 69 513 79 q 613 58 569 58 l 644 58 l 632 0 l 178 0 z "},"5":{"ha":776,"x_min":11,"x_max":740,"o":"m 254 -14 q 112 5 165 -14 q 35 56 58 24 q 11 125 11 88 q 36 188 11 164 q 115 211 61 211 q 129 142 117 176 q 174 85 142 107 q 267 63 207 63 q 391 92 338 63 q 474 181 444 122 q 504 328 504 240 q 453 469 504 422 q 326 517 403 517 q 239 507 274 517 q 175 486 204 497 l 128 496 l 276 992 l 740 992 l 703 782 l 644 782 q 647 819 646 800 q 649 847 649 839 q 635 872 649 863 q 585 881 622 881 l 315 881 l 224 571 q 278 585 247 578 q 357 593 310 593 q 569 527 490 593 q 649 338 649 461 q 601 158 649 238 q 466 33 554 79 q 254 -14 378 -14 z "},"6":{"ha":776,"x_min":83,"x_max":771,"o":"m 344 -14 q 213 24 272 -14 q 119 135 154 61 q 83 322 83 210 q 104 526 83 426 q 165 712 125 625 q 264 865 206 799 q 396 968 322 931 q 558 1006 469 1006 q 676 988 629 1006 q 747 942 724 971 q 771 881 771 914 q 739 804 771 832 q 650 776 707 776 q 644 855 650 818 q 618 915 638 892 q 556 939 599 939 q 428 892 486 939 q 324 756 369 846 q 244 531 278 665 q 329 578 276 553 q 449 603 382 603 q 581 569 529 603 q 658 481 633 536 q 683 360 683 426 q 663 220 683 288 q 600 100 642 153 q 494 17 558 47 q 344 -14 431 -14 m 353 63 q 454 101 411 63 q 522 204 497 139 q 546 351 546 269 q 514 485 546 439 q 421 532 482 532 q 315 506 367 532 q 229 451 264 481 q 215 355 219 399 q 210 271 210 311 q 249 113 210 163 q 353 63 288 63 z "},"7":{"ha":776,"x_min":124,"x_max":806,"o":"m 124 0 l 638 881 l 299 881 q 254 872 274 881 q 222 849 235 864 q 203 810 210 833 l 183 740 l 125 740 l 185 992 l 806 992 l 797 951 l 254 0 l 124 0 z "},"8":{"ha":776,"x_min":14,"x_max":740,"o":"m 322 -14 q 156 17 225 -14 q 50 101 86 47 q 14 225 14 156 q 49 354 14 303 q 147 442 85 406 q 289 507 208 478 q 189 612 225 551 q 153 738 153 672 q 187 874 153 813 q 294 970 221 935 q 485 1006 367 1006 q 674 948 608 1006 q 740 803 740 890 q 710 683 740 733 q 626 597 681 633 q 499 529 572 560 q 626 424 576 483 q 675 281 675 365 q 627 114 675 179 q 499 17 579 49 q 322 -14 419 -14 m 326 54 q 435 76 386 54 q 513 140 483 97 q 543 247 543 183 q 522 335 543 297 q 458 406 500 374 q 353 471 417 439 q 244 413 290 447 q 172 333 197 379 q 147 222 147 286 q 194 100 147 146 q 326 54 242 54 m 432 563 q 576 664 536 607 q 617 793 617 721 q 582 895 617 854 q 474 936 547 936 q 376 914 418 936 q 310 851 333 892 q 286 753 286 810 q 322 648 286 693 q 432 563 358 603 z "},"9":{"ha":776,"x_min":49,"x_max":722,"o":"m 243 -14 q 126 5 168 -14 q 66 52 83 24 q 49 111 49 81 q 70 169 49 146 q 131 192 92 192 q 144 128 132 160 q 184 75 157 96 q 254 54 211 54 q 377 103 325 54 q 471 247 429 153 q 549 476 513 342 q 494 431 525 453 q 424 395 464 408 q 336 382 385 382 q 209 412 261 382 q 129 494 157 442 q 101 613 101 546 q 131 772 101 700 q 210 896 160 843 q 327 977 261 949 q 468 1006 393 1006 q 603 974 546 1006 q 691 881 660 942 q 722 732 722 819 q 711 588 722 668 q 677 424 700 508 q 616 263 654 340 q 525 122 578 185 q 402 23 472 60 q 243 -14 332 -14 m 371 458 q 454 477 417 460 q 521 522 492 494 q 571 576 550 549 q 587 661 581 613 q 593 740 593 710 q 557 885 593 842 q 464 929 521 929 q 374 901 415 929 q 303 828 333 874 q 257 724 274 782 q 240 608 240 667 q 256 526 240 560 q 302 475 272 492 q 371 458 332 458 z "},"\u0000":{"ha":0,"x_min":0,"x_max":0,"o":""},"\r":{"ha":361,"x_min":0,"x_max":0,"o":""}," ":{"ha":361,"x_min":0,"x_max":0,"o":""},"!":{"ha":463,"x_min":83,"x_max":439,"o":"m 169 279 l 278 992 l 439 992 l 244 279 l 169 279 m 161 -11 q 105 9 126 -11 q 83 65 83 29 q 116 152 83 125 q 183 179 149 179 q 240 160 218 179 q 261 106 261 142 q 247 39 261 65 q 210 1 232 13 q 161 -11 188 -11 z "},"\"":{"ha":567,"x_min":182,"x_max":618,"o":"m 182 665 l 210 992 l 357 992 l 246 665 l 182 665 m 443 665 l 471 992 l 618 992 l 507 665 l 443 665 z "},"#":{"ha":776,"x_min":32,"x_max":776,"o":"m 78 0 l 160 282 l 32 282 l 42 364 l 185 364 l 265 636 l 114 636 l 122 718 l 289 718 l 368 992 l 453 992 l 372 718 l 565 718 l 646 992 l 729 992 l 649 718 l 776 718 l 768 636 l 625 636 l 546 364 l 697 364 l 688 282 l 519 282 l 438 0 l 354 0 l 436 282 l 243 282 l 161 0 l 78 0 m 269 364 l 463 364 l 542 636 l 349 636 l 269 364 z "},"$":{"ha":776,"x_min":33,"x_max":740,"o":"m 279 51 q 146 83 201 57 q 62 149 90 108 q 33 239 33 190 q 52 306 33 281 q 97 342 71 331 q 140 353 122 353 q 181 199 140 261 q 293 121 222 136 l 365 461 q 269 522 311 489 q 205 599 228 556 q 182 699 182 642 q 221 838 182 783 q 325 919 260 892 q 471 950 390 947 l 493 1056 l 563 1056 l 540 950 q 647 928 603 946 q 716 881 692 910 q 740 811 740 851 q 713 742 740 768 q 628 715 686 715 q 620 786 628 750 q 590 851 613 822 q 526 888 568 879 l 456 554 l 471 546 q 576 480 533 513 q 642 409 619 447 q 664 318 664 371 q 622 176 664 235 q 508 86 579 118 q 347 50 436 54 l 314 -110 l 244 -110 l 279 51 m 363 118 q 488 173 444 125 q 532 288 532 221 q 521 346 532 321 q 487 392 510 371 q 429 431 464 413 l 363 118 m 457 889 q 381 861 414 883 q 330 803 349 839 q 311 718 311 767 q 331 644 311 675 q 393 586 350 614 l 457 889 z "},"%":{"ha":1244,"x_min":92,"x_max":1182,"o":"m 232 0 l 929 992 l 1026 992 l 335 0 l 232 0 m 271 390 q 140 444 189 390 q 92 611 92 499 q 109 737 92 669 q 162 865 126 804 q 252 965 197 926 q 383 1004 307 1004 q 524 943 481 1004 q 568 783 568 882 q 557 688 568 740 q 523 583 546 635 q 465 487 500 531 q 381 417 429 443 q 271 390 333 390 m 276 447 q 340 472 311 447 q 389 538 368 497 q 424 627 410 579 q 446 722 439 675 q 453 806 453 769 q 436 911 453 874 q 378 949 419 949 q 315 924 343 949 q 265 858 286 899 q 230 769 244 817 q 208 674 215 721 q 201 590 201 626 q 218 485 201 522 q 276 447 235 447 m 885 -11 q 754 43 803 -11 q 706 210 706 97 q 723 335 706 268 q 776 464 740 403 q 866 564 811 525 q 997 603 921 603 q 1138 542 1094 603 q 1182 382 1182 481 q 1171 286 1182 339 q 1137 181 1160 233 q 1078 85 1114 129 q 995 15 1043 42 q 885 -11 947 -11 m 890 46 q 953 71 925 46 q 1003 137 982 96 q 1038 226 1024 178 q 1060 321 1053 274 q 1067 404 1067 368 q 1050 510 1067 472 q 992 547 1033 547 q 928 522 957 547 q 879 456 900 497 q 844 367 858 415 q 822 272 829 319 q 815 189 815 225 q 832 83 815 121 q 890 46 849 46 z "},"&":{"ha":1031,"x_min":49,"x_max":1044,"o":"m 353 -14 q 182 22 250 -14 q 81 115 114 57 q 49 246 49 174 q 89 397 49 338 q 195 494 129 456 q 340 563 261 533 q 291 667 308 617 q 274 767 274 718 q 351 946 274 886 q 569 1006 429 1006 q 748 953 692 1006 q 804 825 804 901 q 770 701 804 747 q 669 622 736 654 q 501 551 601 589 l 696 285 q 749 407 728 343 q 783 531 771 471 l 794 585 l 1044 585 l 1032 526 l 1019 526 q 958 520 989 526 q 901 494 928 514 q 854 432 875 475 q 805 330 832 385 q 743 221 778 275 l 819 117 q 852 84 835 97 q 894 65 869 71 q 956 58 919 58 l 968 58 l 956 0 l 743 0 l 660 115 q 530 23 604 60 q 353 -14 456 -14 m 367 64 q 508 94 446 64 q 617 175 569 125 l 381 503 q 267 435 310 471 q 206 356 225 400 q 186 249 186 311 q 207 154 186 196 q 269 88 228 113 q 367 64 310 64 m 463 607 q 588 665 540 638 q 656 728 635 693 q 678 815 678 764 q 647 903 678 868 q 560 938 617 938 q 447 898 488 938 q 407 776 407 858 q 420 697 407 738 q 463 607 433 656 z "},"'":{"ha":306,"x_min":176,"x_max":351,"o":"m 176 665 l 204 992 l 351 992 l 240 665 l 176 665 z "},"(":{"ha":481,"x_min":58,"x_max":567,"o":"m 304 -178 q 163 -74 218 -140 q 83 76 108 -8 q 58 258 58 161 q 90 512 58 385 q 184 750 121 639 q 342 942 247 861 q 567 1056 438 1022 l 553 993 q 402 869 465 946 q 298 699 339 792 q 233 511 257 606 q 199 333 208 417 q 189 193 189 250 q 201 76 189 135 q 241 -31 213 18 q 318 -114 269 -81 l 304 -178 z "},")":{"ha":481,"x_min":-68,"x_max":440,"o":"m -54 -126 q 97 -2 33 -79 q 201 168 160 75 q 266 356 242 261 q 300 533 290 450 q 310 674 310 617 q 298 791 310 733 q 258 898 286 849 q 181 981 229 947 l 194 1044 q 336 941 282 1007 q 415 790 390 875 q 440 608 440 706 q 409 355 440 482 q 315 117 378 228 q 156 -75 251 6 q -68 -189 61 -156 l -54 -126 z "},"*":{"ha":694,"x_min":161,"x_max":750,"o":"m 460 518 l 342 543 l 422 750 l 186 665 l 161 782 l 404 801 l 190 918 l 261 1015 l 442 839 l 453 1063 l 571 1038 l 488 831 l 725 914 l 750 797 l 506 779 l 721 664 l 651 569 l 468 740 l 460 518 z "},"+":{"ha":776,"x_min":90,"x_max":686,"o":"m 346 199 l 346 456 l 90 456 l 90 538 l 346 538 l 346 794 l 429 794 l 429 538 l 686 538 l 686 456 l 429 456 l 429 199 l 346 199 z "},",":{"ha":347,"x_min":-39,"x_max":213,"o":"m -33 -144 q 72 -99 36 -129 q 108 -28 108 -69 q 94 3 108 -8 q 63 25 81 14 q 32 52 46 36 q 18 96 18 68 q 44 157 18 136 q 104 178 69 178 q 181 148 149 178 q 213 64 213 118 q 185 -53 213 1 q 103 -146 158 -107 q -39 -203 47 -185 l -33 -144 z "},"-":{"ha":431,"x_min":19,"x_max":403,"o":"m 19 326 l 42 431 l 403 431 l 381 326 l 19 326 z "},".":{"ha":347,"x_min":36,"x_max":214,"o":"m 114 -11 q 58 8 79 -11 q 36 60 36 28 q 69 151 36 124 q 136 179 101 179 q 192 161 171 179 q 214 111 214 143 q 199 41 214 68 q 163 1 185 14 q 114 -11 140 -11 z "},"/":{"ha":400,"x_min":-129,"x_max":529,"o":"m -129 -168 l 442 1056 l 529 1056 l -42 -168 l -129 -168 z "},":":{"ha":397,"x_min":44,"x_max":347,"o":"m 247 560 q 191 580 213 560 q 169 636 169 600 q 202 723 169 696 q 269 750 235 750 q 326 731 304 750 q 347 676 347 713 q 333 610 347 636 q 296 572 318 583 q 247 560 274 560 m 122 -11 q 66 9 88 -11 q 44 65 44 29 q 77 152 44 125 q 144 179 110 179 q 201 160 179 179 q 222 106 222 142 q 208 39 222 65 q 171 1 193 13 q 122 -11 149 -11 z "},";":{"ha":397,"x_min":-11,"x_max":347,"o":"m -6 -144 q 100 -99 64 -129 q 136 -28 136 -69 q 122 3 136 -8 q 91 25 108 14 q 60 52 74 36 q 46 96 46 68 q 72 157 46 136 q 132 178 97 178 q 208 148 176 178 q 240 64 240 118 q 213 -53 240 1 q 131 -146 186 -107 q -11 -203 75 -185 l -6 -144 m 247 560 q 191 580 213 560 q 169 636 169 600 q 202 723 169 696 q 269 750 235 750 q 326 731 304 750 q 347 676 347 713 q 333 610 347 636 q 296 572 318 583 q 247 560 274 560 z "},"<":{"ha":776,"x_min":90,"x_max":686,"o":"m 686 153 l 90 472 l 90 521 l 686 842 l 686 749 l 219 496 l 686 246 l 686 153 z "},"=":{"ha":776,"x_min":90,"x_max":686,"o":"m 90 592 l 90 674 l 686 674 l 686 592 l 90 592 m 90 318 l 90 400 l 686 400 l 686 318 l 90 318 z "},">":{"ha":776,"x_min":90,"x_max":686,"o":"m 90 153 l 90 246 l 557 496 l 90 749 l 90 842 l 686 521 l 686 472 l 90 153 z "},"?":{"ha":694,"x_min":182,"x_max":725,"o":"m 307 485 q 455 558 392 517 q 553 656 518 600 q 589 786 589 713 q 551 897 589 858 q 454 936 513 936 q 361 909 396 936 q 308 837 326 882 q 282 739 290 792 q 208 761 233 739 q 182 822 182 783 q 215 913 182 871 q 312 980 249 954 q 463 1006 375 1006 q 654 950 583 1006 q 725 775 725 894 q 680 632 725 694 q 558 523 635 569 q 383 440 481 476 l 344 279 l 268 279 l 307 485 m 267 -11 q 210 9 232 -11 q 189 65 189 29 q 222 152 189 125 q 289 179 254 179 q 345 160 324 179 q 367 106 367 142 q 352 39 367 65 q 315 1 338 13 q 267 -11 293 -11 z "},"@":{"ha":1279,"x_min":90,"x_max":1206,"o":"m 600 -197 q 395 -167 489 -197 q 233 -74 301 -136 q 128 83 165 -11 q 90 303 90 176 q 138 576 90 450 q 271 794 185 701 q 476 940 357 888 q 736 992 594 992 q 996 932 892 992 q 1153 772 1100 872 q 1206 544 1206 671 q 1167 313 1206 411 q 1067 160 1129 214 q 933 107 1006 107 q 831 140 872 107 q 769 233 789 174 l 763 233 q 690 143 733 179 q 575 107 646 107 q 471 133 519 107 q 393 211 422 158 q 364 344 364 264 q 383 467 364 400 q 445 596 403 535 q 555 696 488 657 q 718 735 622 735 q 795 722 763 735 q 849 693 828 710 l 904 722 l 938 722 l 867 368 q 861 331 865 358 q 857 275 857 303 q 869 222 857 243 q 900 190 881 200 q 942 181 919 181 q 1024 224 983 181 q 1093 349 1065 267 q 1121 549 1121 432 q 1071 753 1121 671 q 932 878 1021 836 q 728 921 843 921 q 532 878 626 921 q 363 756 438 836 q 244 563 288 676 q 200 306 200 449 q 233 108 200 190 q 323 -25 265 26 q 456 -101 381 -76 q 614 -125 531 -125 q 755 -108 690 -125 q 873 -65 819 -92 q 967 -10 926 -39 l 999 -60 q 892 -126 953 -94 q 759 -177 832 -157 q 600 -197 686 -197 m 599 181 q 676 206 646 181 q 724 272 707 232 q 749 354 742 313 l 801 636 q 771 667 793 656 q 724 678 749 678 q 635 653 674 678 q 570 588 597 628 q 526 500 543 547 q 501 407 510 453 q 493 325 493 361 q 522 217 493 253 q 599 181 551 181 z "},"A":{"ha":979,"x_min":-78,"x_max":913,"o":"m -78 0 l -67 58 l -40 58 q 6 67 -12 58 q 44 99 25 75 q 89 167 63 122 l 572 992 l 681 992 l 813 132 q 826 87 817 103 q 851 65 835 71 q 894 58 868 58 l 913 58 l 901 0 l 524 0 l 535 58 l 567 58 q 639 77 611 58 q 667 129 667 96 q 666 153 667 140 q 664 176 665 167 l 597 644 q 583 760 589 706 q 575 864 576 814 q 545 799 561 831 q 510 734 529 768 q 467 657 492 700 l 193 186 q 173 142 179 161 q 167 108 167 124 q 186 70 167 82 q 244 58 206 58 l 276 58 l 265 0 l -78 0 m 247 332 l 247 401 l 700 401 l 700 332 l 247 332 z "},"B":{"ha":908,"x_min":-29,"x_max":865,"o":"m -29 0 l -18 58 l 0 58 q 59 65 32 58 q 107 94 86 72 q 136 158 128 115 l 281 839 q 285 860 283 847 q 286 878 286 872 q 256 924 286 914 q 186 933 226 933 l 168 933 l 181 992 l 540 992 q 783 939 701 992 q 865 783 865 886 q 835 655 865 707 q 754 572 806 603 q 639 525 703 540 l 638 519 q 760 455 713 506 q 807 317 807 404 q 762 144 807 215 q 628 37 717 74 q 407 0 539 0 l -29 0 m 392 69 q 596 135 535 69 q 657 326 657 201 q 609 445 657 406 q 463 485 561 485 l 346 485 l 257 69 l 392 69 m 467 554 q 609 578 554 554 q 689 650 664 603 q 714 765 714 697 q 665 883 714 843 q 522 922 617 922 l 439 922 l 360 554 l 467 554 z "},"C":{"ha":871,"x_min":72,"x_max":901,"o":"m 456 -14 q 249 30 335 -14 q 118 157 164 74 q 72 358 72 240 q 113 598 72 482 q 228 806 153 714 q 410 951 304 897 q 644 1006 515 1006 q 835 963 768 1006 q 901 851 901 921 q 864 772 901 801 q 765 743 826 743 q 760 805 765 772 q 741 867 756 838 q 699 914 726 896 q 626 932 672 932 q 487 895 550 932 q 374 797 424 858 q 292 657 325 735 q 241 497 258 579 q 224 336 224 414 q 251 196 224 254 q 334 107 279 138 q 471 76 389 76 q 631 116 569 76 q 728 203 693 156 q 741 185 736 197 q 746 157 746 172 q 716 81 746 121 q 622 13 686 40 q 456 -14 558 -14 z "},"D":{"ha":1007,"x_min":-29,"x_max":964,"o":"m -29 0 l -18 58 l 0 58 q 59 65 32 58 q 107 94 86 72 q 136 158 128 115 l 281 839 q 285 859 283 849 q 286 878 286 869 q 255 924 286 915 q 186 933 224 933 l 168 933 l 181 992 l 569 992 q 860 895 757 992 q 964 614 964 799 q 928 379 964 490 q 821 183 892 268 q 647 49 750 97 q 408 0 543 0 l -29 0 m 378 71 q 561 112 481 71 q 698 227 642 153 q 783 404 754 301 q 813 629 813 507 q 741 852 813 782 q 549 922 669 922 l 439 922 l 257 71 l 378 71 z "},"E":{"ha":865,"x_min":-29,"x_max":881,"o":"m -29 0 l -18 58 l 0 58 q 58 65 31 58 q 106 90 85 71 q 135 151 126 110 l 279 833 q 283 851 282 843 q 283 867 283 860 q 255 922 283 911 q 186 933 226 933 l 168 933 l 181 992 l 881 992 l 836 749 l 764 749 q 767 774 765 756 q 769 809 768 792 q 771 829 771 826 q 749 895 771 868 q 672 922 726 922 l 439 922 l 360 553 l 694 553 l 681 485 l 346 485 l 257 69 l 525 69 q 600 85 569 69 q 651 127 631 101 q 682 183 671 153 l 704 243 l 776 243 l 715 0 l -29 0 z "},"F":{"ha":819,"x_min":-29,"x_max":881,"o":"m -29 0 l -18 58 l 0 58 q 58 65 31 58 q 105 91 85 71 q 135 151 125 111 l 281 839 q 285 860 283 847 q 286 878 286 872 q 258 924 286 914 q 186 933 231 933 l 168 933 l 181 992 l 881 992 l 836 749 l 764 749 q 767 781 765 764 q 769 813 768 799 q 771 829 771 826 q 748 896 771 869 q 667 922 725 922 l 439 922 l 353 521 l 688 521 l 674 453 l 339 453 l 276 158 q 274 140 275 149 q 272 124 272 131 q 301 69 272 81 q 368 58 329 58 l 414 58 l 403 0 l -29 0 z "},"G":{"ha":992,"x_min":72,"x_max":969,"o":"m 467 -14 q 172 86 271 -14 q 72 358 72 186 q 115 610 72 493 q 238 817 158 728 q 426 956 317 906 q 669 1006 536 1006 q 833 985 768 1006 q 931 931 899 965 q 963 856 963 897 q 942 795 963 819 q 889 758 922 771 q 815 746 856 746 q 774 880 815 828 q 640 932 732 932 q 476 883 551 932 q 343 751 400 835 q 255 561 286 668 q 224 336 224 454 q 251 196 224 257 q 337 100 278 135 q 492 65 396 65 q 575 71 532 65 q 649 85 618 76 l 694 306 q 699 326 697 314 q 700 344 700 339 q 670 390 700 381 q 600 400 640 400 l 588 400 l 600 458 l 969 458 l 957 400 l 951 400 q 903 393 926 400 q 861 365 879 386 q 833 300 843 344 l 781 50 q 631 2 704 18 q 467 -14 557 -14 z "},"H":{"ha":1101,"x_min":-29,"x_max":1176,"o":"m -29 0 l -18 58 l 0 58 q 59 65 32 58 q 107 94 86 72 q 136 158 128 115 l 281 839 q 285 860 283 847 q 286 878 286 872 q 274 913 286 901 q 238 929 261 925 q 186 933 215 933 l 168 933 l 181 992 l 585 992 l 572 933 l 554 933 q 496 926 524 933 q 449 899 468 919 q 419 833 429 878 l 360 553 l 811 553 l 872 839 q 876 860 875 847 q 878 878 878 872 q 850 924 878 914 q 778 933 822 933 l 760 933 l 772 992 l 1176 992 l 1164 933 l 1146 933 q 1088 926 1115 933 q 1040 899 1060 919 q 1011 833 1021 878 l 867 153 q 863 133 865 144 q 861 114 861 121 q 874 78 861 90 q 910 63 888 67 q 961 58 932 58 l 979 58 l 967 0 l 563 0 l 574 58 l 592 58 q 651 65 624 58 q 699 94 678 72 q 728 158 719 115 l 796 483 l 344 483 l 275 153 q 272 133 274 144 q 269 114 269 121 q 298 69 269 79 q 369 58 326 58 l 388 58 l 375 0 l -29 0 z "},"I":{"ha":510,"x_min":-29,"x_max":585,"o":"m -29 0 l -18 58 l 0 58 q 59 65 32 58 q 107 94 86 72 q 136 158 128 115 l 281 839 q 285 860 283 847 q 286 878 286 872 q 258 924 286 914 q 186 933 231 933 l 168 933 l 181 992 l 585 992 l 572 933 l 554 933 q 496 926 524 933 q 449 899 468 919 q 419 833 429 878 l 275 153 q 272 133 274 144 q 269 114 269 121 q 298 69 269 79 q 369 58 326 58 l 388 58 l 375 0 l -29 0 z "},"J":{"ha":496,"x_min":-215,"x_max":578,"o":"m -101 -333 q -165 -329 -139 -333 q -215 -318 -190 -325 l -196 -256 q -152 -265 -178 -261 q -106 -268 -126 -268 q -20 -245 -57 -268 q 44 -167 17 -222 q 93 -12 72 -111 l 274 839 q 278 860 276 847 q 279 878 279 872 q 251 924 279 914 q 179 933 224 933 l 161 933 l 174 992 l 578 992 l 565 933 l 547 933 q 489 926 517 933 q 442 899 461 919 q 413 833 422 878 l 232 -11 q 167 -192 208 -121 q 59 -299 125 -264 q -101 -333 -7 -333 z "},"K":{"ha":972,"x_min":-29,"x_max":1054,"o":"m -29 0 l -18 58 l 0 58 q 59 65 32 58 q 106 94 86 72 q 136 158 126 115 l 281 839 q 285 860 283 847 q 286 878 286 872 q 258 924 286 914 q 186 933 231 933 l 168 933 l 181 992 l 585 992 l 572 933 l 554 933 q 496 926 524 933 q 449 899 468 919 q 419 833 429 878 l 335 450 l 693 779 q 753 837 731 814 q 787 876 776 860 q 797 904 797 892 q 784 928 797 922 q 736 935 771 935 l 747 992 l 1054 992 l 1043 935 q 995 926 1019 935 q 945 899 971 917 q 891 858 919 882 q 829 804 863 835 l 529 532 l 553 633 l 744 169 q 778 108 760 132 q 822 71 797 83 q 876 58 846 58 l 881 58 l 868 0 l 849 0 q 744 7 786 0 q 676 28 703 14 q 631 68 649 43 q 599 129 613 93 l 440 531 l 515 508 l 321 372 l 275 153 q 272 133 274 144 q 269 114 269 121 q 298 69 269 79 q 369 58 326 58 l 388 58 l 375 0 l -29 0 z "},"L":{"ha":865,"x_min":-28,"x_max":788,"o":"m -28 0 l -15 58 l 3 58 q 60 65 33 58 q 107 94 88 72 q 136 158 126 115 l 281 839 q 285 860 283 847 q 286 878 286 872 q 258 924 286 914 q 186 933 231 933 l 168 933 l 181 992 l 585 992 l 572 933 l 554 933 q 497 927 524 933 q 450 901 469 921 q 421 839 431 881 l 257 69 l 531 69 q 603 88 574 69 q 651 136 632 107 q 679 194 669 165 l 715 299 l 788 299 l 715 0 l -28 0 z "},"M":{"ha":1303,"x_min":-28,"x_max":1378,"o":"m -28 0 l -15 58 l 3 58 q 60 65 33 58 q 106 90 86 71 q 135 151 126 110 l 281 839 q 285 860 283 847 q 286 878 286 872 q 258 924 286 914 q 186 933 231 933 l 168 933 l 181 992 l 496 992 l 614 200 l 1068 992 l 1378 992 l 1365 933 l 1347 933 q 1289 926 1317 933 q 1242 899 1261 919 q 1213 833 1222 878 l 1068 153 q 1065 133 1067 144 q 1063 114 1063 121 q 1091 69 1063 79 q 1163 58 1119 58 l 1181 58 l 1168 0 l 799 0 l 811 58 l 815 58 q 868 65 846 58 q 907 90 890 71 q 933 146 924 108 l 1092 888 l 585 0 l 510 0 l 375 888 l 219 153 q 216 133 218 144 q 214 114 214 121 q 242 69 214 79 q 314 58 271 58 l 332 58 l 319 0 l -28 0 z "},"N":{"ha":1060,"x_min":-28,"x_max":1149,"o":"m -28 0 l -15 58 l 3 58 q 60 65 33 58 q 107 94 88 72 q 136 158 126 115 l 281 839 q 285 860 283 847 q 286 878 286 872 q 258 924 286 914 q 186 933 231 933 l 168 933 l 181 992 l 433 992 l 769 225 l 900 839 q 904 860 903 847 q 906 878 906 872 q 878 924 906 914 q 806 933 850 933 l 788 933 l 800 992 l 1149 992 l 1136 933 l 1118 933 q 1060 926 1088 933 q 1013 899 1033 919 q 983 833 993 878 l 807 0 l 717 0 l 360 814 l 219 153 q 216 133 218 144 q 214 114 214 121 q 242 69 214 79 q 314 58 271 58 l 332 58 l 319 0 l -28 0 z "},"O":{"ha":1031,"x_min":72,"x_max":988,"o":"m 436 -15 q 251 28 333 -15 q 120 158 168 72 q 72 369 72 244 q 94 538 72 450 q 162 708 117 625 q 274 859 207 792 q 429 967 340 926 q 628 1007 518 1007 q 806 967 724 1007 q 938 842 888 926 q 988 625 988 758 q 966 461 988 549 q 901 290 944 374 q 791 136 857 206 q 636 26 725 67 q 436 -15 547 -15 m 444 61 q 588 101 525 61 q 698 208 651 142 q 775 353 744 274 q 820 514 806 433 q 835 663 835 594 q 806 816 835 757 q 729 903 778 875 q 617 932 681 932 q 472 892 536 932 q 362 785 408 851 q 285 640 315 719 q 239 479 254 560 q 224 331 224 399 q 253 176 224 236 q 333 89 282 117 q 444 61 383 61 z "},"P":{"ha":861,"x_min":-28,"x_max":853,"o":"m -28 0 l -15 58 l 3 58 q 60 65 33 58 q 108 94 88 72 q 136 158 128 115 l 281 839 q 285 860 283 847 q 286 878 286 872 q 258 924 286 914 q 186 933 231 933 l 168 933 l 181 992 l 536 992 q 767 924 682 992 q 853 724 853 856 q 836 613 853 671 q 774 503 819 554 q 645 419 729 451 q 428 386 561 386 l 325 386 l 275 153 q 272 133 274 144 q 269 114 269 121 q 298 69 269 79 q 369 58 326 58 l 415 58 l 403 0 l -28 0 m 413 451 q 585 486 521 451 q 677 582 649 521 q 706 722 706 643 q 653 878 706 832 q 503 925 601 925 l 439 925 l 339 451 l 413 451 z "},"Q":{"ha":1031,"x_min":72,"x_max":988,"o":"m 626 -314 q 501 -290 551 -314 q 421 -226 451 -267 q 376 -128 390 -185 q 360 -8 363 -72 q 212 53 276 6 q 110 181 147 101 q 72 369 72 260 q 94 538 72 450 q 162 708 117 625 q 274 859 207 792 q 429 967 340 926 q 628 1007 518 1007 q 806 967 724 1007 q 938 842 888 926 q 988 625 988 758 q 969 472 988 553 q 912 313 950 392 q 817 165 874 233 q 683 51 760 97 q 510 -10 607 4 q 532 -147 514 -94 q 582 -222 550 -199 q 660 -246 614 -246 q 712 -242 689 -246 q 754 -233 735 -239 l 764 -292 q 706 -307 738 -300 q 626 -314 675 -314 m 444 61 q 588 101 525 61 q 698 208 651 142 q 775 353 744 274 q 820 514 806 433 q 835 663 835 594 q 806 816 835 757 q 729 903 778 875 q 617 932 681 932 q 472 892 536 932 q 362 785 408 851 q 285 640 315 719 q 239 479 254 560 q 224 331 224 399 q 253 176 224 236 q 333 89 282 117 q 444 61 383 61 z "},"R":{"ha":922,"x_min":-28,"x_max":863,"o":"m -28 0 l -15 58 l 3 58 q 60 65 33 58 q 106 90 86 71 q 135 151 126 110 l 281 839 q 285 860 283 847 q 286 878 286 872 q 258 924 286 914 q 186 933 231 933 l 168 933 l 181 992 l 544 992 q 784 933 706 992 q 863 756 863 875 q 840 634 863 685 q 778 549 817 583 q 695 495 740 515 q 606 465 650 475 l 706 168 q 749 85 725 113 q 819 58 772 58 l 831 58 l 819 0 l 801 0 q 674 14 722 0 q 600 63 626 28 q 554 163 574 99 l 474 438 l 336 438 l 275 153 q 272 133 274 144 q 269 114 269 121 q 298 69 269 79 q 369 58 326 58 l 415 58 l 403 0 l -28 0 m 457 503 q 589 528 531 503 q 681 606 647 553 q 715 747 715 660 q 671 885 715 846 q 533 925 626 925 l 439 925 l 350 503 l 457 503 z "},"S":{"ha":756,"x_min":10,"x_max":768,"o":"m 318 -14 q 148 13 217 -14 q 44 86 79 40 q 10 185 10 132 q 43 264 10 238 q 117 290 76 290 q 140 173 117 226 q 209 87 163 119 q 328 54 256 54 q 483 103 426 54 q 539 233 539 151 q 526 308 539 275 q 476 376 514 342 q 364 451 439 410 q 222 567 276 501 q 167 738 167 632 q 207 877 167 817 q 323 972 247 938 q 504 1006 399 1006 q 644 987 585 1006 q 735 934 703 968 q 768 856 768 900 q 739 786 768 813 q 646 760 710 760 q 633 839 646 799 q 588 908 621 879 q 493 936 556 936 q 401 917 444 936 q 331 860 358 899 q 304 761 304 821 q 323 675 304 710 q 381 611 342 640 q 476 549 419 582 q 592 467 546 508 q 660 380 638 426 q 682 278 682 333 q 638 119 682 185 q 513 20 594 54 q 318 -14 432 -14 z "},"T":{"ha":851,"x_min":106,"x_max":946,"o":"m 128 0 l 140 58 l 172 58 q 230 65 203 58 q 277 90 257 71 q 306 151 297 110 l 469 922 l 336 922 q 269 906 296 922 q 225 865 242 890 q 197 808 208 839 l 178 749 l 106 749 l 164 992 l 946 992 l 901 749 l 829 749 q 831 767 829 754 q 833 794 832 779 q 835 819 835 808 q 836 833 836 831 q 817 896 836 869 q 744 922 797 922 l 610 922 l 446 153 q 442 133 444 144 q 440 114 440 121 q 453 78 440 90 q 489 63 467 67 q 540 58 511 58 l 572 58 l 560 0 l 128 0 z "},"U":{"ha":1014,"x_min":133,"x_max":1106,"o":"m 449 -14 q 215 49 297 -14 q 133 226 133 113 q 138 288 133 249 q 149 350 143 326 l 251 839 q 256 860 254 847 q 257 878 257 872 q 229 924 257 914 q 157 933 201 933 l 139 933 l 151 992 l 556 992 l 544 933 l 526 933 q 469 926 496 933 q 421 899 442 919 q 390 833 400 878 l 286 343 q 274 276 279 308 q 269 214 269 243 q 322 106 269 143 q 469 69 375 69 q 614 98 560 69 q 697 176 668 126 q 739 286 726 225 l 857 839 q 861 860 860 847 q 863 878 863 872 q 835 924 863 914 q 763 933 807 933 l 744 933 l 757 992 l 1106 992 l 1094 933 l 1076 933 q 1019 926 1046 933 q 971 899 992 919 q 940 833 950 878 l 824 283 q 758 125 804 192 q 636 22 713 58 q 449 -14 560 -14 z "},"V":{"ha":938,"x_min":114,"x_max":1064,"o":"m 215 860 q 202 905 211 889 q 176 927 193 921 q 132 933 160 933 l 114 933 l 126 992 l 504 992 l 493 933 l 461 933 q 389 915 417 933 q 361 863 361 896 q 362 838 361 851 q 364 815 363 825 l 419 364 q 426 303 424 333 q 430 244 428 274 q 433 188 432 215 q 433 136 433 161 q 483 243 456 186 q 546 364 510 300 l 793 806 q 813 850 807 831 q 819 883 819 869 q 801 922 819 910 q 742 933 782 933 l 710 933 l 721 992 l 1064 992 l 1051 933 l 1025 933 q 979 925 999 933 q 941 894 960 917 q 897 825 922 871 l 435 0 l 333 0 l 215 860 z "},"W":{"ha":1451,"x_min":124,"x_max":1564,"o":"m 225 860 q 213 905 222 889 q 187 927 204 921 q 142 933 169 933 l 124 933 l 136 992 l 514 992 l 501 933 l 469 933 q 397 915 425 933 q 369 863 369 896 q 370 838 369 851 q 372 815 371 825 l 406 371 q 410 309 408 340 q 413 247 413 278 q 415 189 414 217 q 415 136 415 161 q 467 255 439 190 q 529 386 496 319 l 821 982 l 921 982 l 967 381 q 974 249 972 313 q 974 136 975 185 q 1004 205 989 169 q 1038 280 1019 240 q 1078 364 1056 319 l 1299 806 q 1318 851 1311 832 q 1325 883 1325 869 q 1306 922 1325 910 q 1247 933 1288 933 l 1214 933 l 1225 992 l 1564 992 l 1551 933 l 1525 933 q 1478 926 1499 933 q 1439 894 1457 918 q 1397 825 1421 871 l 988 0 l 860 0 l 797 769 l 424 0 l 297 0 l 225 860 z "},"X":{"ha":917,"x_min":-68,"x_max":1001,"o":"m -68 0 l -56 58 l -50 58 q 2 67 -22 58 q 53 99 26 76 q 114 158 79 121 l 464 539 l 444 435 l 272 863 q 247 904 263 889 q 210 926 231 919 q 164 933 190 933 l 146 933 l 158 992 l 535 992 l 522 933 l 490 933 q 440 924 456 933 q 425 894 425 914 q 432 860 425 881 q 450 811 439 840 l 553 550 l 488 561 l 703 808 q 740 856 724 832 q 756 899 756 881 q 738 925 756 917 q 689 933 721 933 l 685 933 l 697 992 l 1001 992 l 989 933 l 976 933 q 938 928 956 933 q 903 910 921 922 q 866 878 886 897 q 819 829 846 858 l 515 492 l 533 597 l 724 132 q 751 88 736 104 q 785 65 767 71 q 819 58 803 58 l 838 58 l 825 0 l 450 0 l 463 58 l 478 58 q 543 72 519 58 q 567 107 567 86 q 561 145 567 126 q 540 203 556 164 l 426 482 l 492 471 l 243 193 q 203 141 219 167 q 188 96 188 115 q 206 67 188 76 q 269 58 224 58 l 274 58 l 261 0 l -68 0 z "},"Y":{"ha":868,"x_min":107,"x_max":999,"o":"m 138 0 l 150 58 l 182 58 q 240 65 213 58 q 287 90 267 71 q 315 151 307 110 l 369 407 l 208 860 q 190 902 199 886 q 167 926 181 918 q 125 933 153 933 l 107 933 l 119 992 l 494 992 l 482 933 l 413 933 q 370 924 385 933 q 356 896 356 914 q 358 872 356 885 q 364 845 360 858 q 374 815 368 832 l 436 629 q 462 542 451 586 q 474 463 472 497 q 517 528 489 492 q 582 614 544 564 l 711 786 q 740 829 729 810 q 756 866 750 849 q 761 897 761 883 q 747 925 761 917 q 694 933 732 933 l 643 933 l 656 992 l 999 992 l 986 933 l 960 933 q 920 922 939 933 q 881 886 901 910 q 833 828 860 863 l 510 404 l 456 153 q 452 133 454 144 q 450 114 450 121 q 478 69 450 79 q 550 58 507 58 l 582 58 l 569 0 l 138 0 z "},"Z":{"ha":840,"x_min":-24,"x_max":876,"o":"m -24 0 l -12 56 l 686 922 l 363 922 q 294 906 321 922 q 251 865 267 890 q 224 808 235 839 l 204 749 l 132 749 l 190 992 l 876 992 l 865 935 l 165 69 l 536 69 q 606 85 579 69 q 650 127 633 101 q 676 183 667 153 l 696 243 l 768 243 l 710 0 l -24 0 z "},"[":{"ha":500,"x_min":7,"x_max":579,"o":"m 7 -178 l 269 1056 l 579 1056 l 567 997 l 507 997 q 449 990 476 997 q 401 963 421 983 q 372 897 382 942 l 175 -25 q 172 -45 174 -33 q 169 -64 169 -57 q 198 -109 169 -99 q 269 -119 226 -119 l 329 -119 l 317 -178 l 7 -178 z "},"\\":{"ha":400,"x_min":157,"x_max":297,"o":"m 215 -168 l 157 1056 l 238 1056 l 297 -168 l 215 -168 z "},"]":{"ha":500,"x_min":-65,"x_max":506,"o":"m -65 -178 l -53 -119 l 7 -119 q 65 -112 38 -119 q 112 -84 92 -106 q 140 -19 132 -62 l 338 903 q 342 924 340 911 q 343 942 343 936 q 315 988 343 978 q 243 997 288 997 l 183 997 l 196 1056 l 506 1056 l 243 -178 l -65 -178 z "},"^":{"ha":776,"x_min":71,"x_max":704,"o":"m 71 369 l 363 992 l 411 992 l 704 369 l 611 369 l 386 864 l 164 369 l 71 369 z "},"_":{"ha":638,"x_min":-126,"x_max":542,"o":"m -126 -197 l -108 -115 l 542 -115 l 524 -197 l -126 -197 z "},"`":{"ha":388,"x_min":200,"x_max":436,"o":"m 379 842 q 332 889 357 863 q 283 943 307 915 q 238 999 260 971 q 200 1050 217 1026 l 204 1064 l 343 1064 q 370 999 354 1036 q 403 926 386 963 q 436 860 421 889 l 432 842 l 379 842 z "},"a":{"ha":804,"x_min":60,"x_max":797,"o":"m 239 -14 q 138 19 178 -14 q 78 110 97 53 q 60 240 60 168 q 77 377 60 306 q 129 516 94 449 q 214 638 164 583 q 329 726 264 693 q 474 758 394 758 q 537 752 507 758 q 592 735 567 746 q 636 708 618 724 l 697 743 l 742 743 l 647 299 q 639 254 644 283 q 630 194 633 225 q 626 144 626 164 q 638 92 626 110 q 672 74 650 74 q 721 84 696 74 q 772 110 746 94 l 797 69 q 744 32 778 51 q 674 -1 711 13 q 601 -14 636 -14 q 522 17 551 -14 q 493 101 493 47 q 497 152 493 129 q 507 210 500 175 l 499 210 q 427 89 467 139 q 341 13 388 39 q 239 -14 294 -14 m 289 74 q 363 101 325 74 q 435 176 401 129 q 496 282 469 224 q 535 400 522 340 l 586 646 q 542 683 571 671 q 481 696 513 696 q 381 665 425 696 q 303 582 336 633 q 247 469 269 531 q 213 347 224 408 q 201 235 201 285 q 226 111 201 149 q 289 74 251 74 z "},"b":{"ha":781,"x_min":38,"x_max":721,"o":"m 307 -14 q 212 1 256 -14 q 144 36 168 17 l 82 -4 l 38 -4 l 221 858 q 231 906 228 886 q 233 932 233 926 q 205 985 233 974 q 136 997 176 997 l 125 997 l 138 1056 l 400 1056 l 333 743 q 323 699 329 724 q 309 647 317 674 q 294 598 301 621 q 283 560 288 575 l 290 560 q 360 667 324 622 q 442 735 397 711 q 544 758 488 758 q 674 694 626 758 q 721 507 721 631 q 703 367 721 439 q 650 226 685 294 q 565 104 615 158 q 449 18 514 50 q 307 -14 385 -14 m 301 49 q 401 81 357 49 q 479 165 446 113 q 535 280 513 218 q 568 401 557 342 q 579 508 579 461 q 553 634 579 597 q 492 671 528 671 q 422 648 456 671 q 360 588 389 625 q 310 510 332 551 q 273 433 288 469 q 253 374 258 397 l 193 99 q 239 63 211 76 q 301 49 267 49 z "},"c":{"ha":676,"x_min":60,"x_max":676,"o":"m 331 -14 q 195 18 257 -14 q 97 113 133 50 q 60 274 60 176 q 77 402 60 335 q 128 533 94 469 q 211 647 161 596 q 327 728 261 699 q 474 758 393 758 q 588 739 543 758 q 655 690 633 719 q 676 625 676 660 q 662 576 676 599 q 620 541 647 554 q 553 528 593 528 q 527 643 553 594 q 446 692 501 692 q 364 662 401 692 q 297 584 326 632 q 247 478 267 536 q 215 364 226 421 q 204 263 204 307 q 243 124 204 174 q 357 74 282 74 q 479 106 431 74 q 557 174 528 138 q 567 160 564 169 q 571 139 571 150 q 545 73 571 108 q 467 12 519 38 q 331 -14 414 -14 z "},"d":{"ha":804,"x_min":60,"x_max":808,"o":"m 239 -14 q 138 19 178 -14 q 78 110 97 53 q 60 240 60 168 q 77 377 60 306 q 129 516 94 449 q 214 638 164 583 q 329 726 264 693 q 474 758 394 758 q 549 749 514 758 q 611 724 585 739 q 618 766 614 742 q 625 803 622 790 l 639 869 q 646 906 643 889 q 649 932 649 924 q 620 985 649 974 q 551 997 592 997 l 540 997 l 553 1056 l 808 1056 l 647 299 q 639 254 644 283 q 630 194 633 225 q 626 144 626 164 q 638 92 626 110 q 672 74 650 74 q 721 84 696 74 q 772 110 746 94 l 797 69 q 744 32 778 51 q 674 -1 711 13 q 601 -14 636 -14 q 522 17 551 -14 q 493 101 493 47 q 497 147 493 119 q 507 210 500 175 l 499 210 q 386 44 451 103 q 239 -14 321 -14 m 289 74 q 363 101 325 74 q 435 176 401 129 q 496 282 469 224 q 535 400 522 340 l 586 646 q 542 683 571 671 q 481 696 513 696 q 381 665 425 696 q 303 582 336 633 q 247 469 269 531 q 213 347 224 408 q 201 235 201 285 q 226 111 201 149 q 289 74 251 74 z "},"e":{"ha":685,"x_min":60,"x_max":658,"o":"m 331 -14 q 195 18 257 -14 q 97 113 133 50 q 60 274 60 176 q 77 402 60 335 q 128 533 94 469 q 211 647 161 596 q 327 728 261 699 q 474 758 393 758 q 610 716 561 758 q 658 599 658 674 q 606 463 658 526 q 463 360 554 399 q 256 321 372 321 l 207 321 q 205 291 206 306 q 204 263 204 276 q 243 124 204 174 q 357 74 282 74 q 476 106 424 74 q 557 174 528 138 q 571 139 571 164 q 545 73 571 108 q 467 12 519 38 q 331 -14 414 -14 m 233 385 q 378 412 315 385 q 478 487 442 439 q 515 599 515 535 q 494 669 515 646 q 435 692 474 692 q 361 665 396 692 q 299 592 326 638 q 251 493 271 547 q 219 385 231 439 l 233 385 z "},"f":{"ha":442,"x_min":-194,"x_max":676,"o":"m -114 -333 q -158 -330 -135 -333 q -194 -322 -181 -326 l -182 -258 q -152 -265 -171 -261 q -118 -268 -133 -268 q -41 -242 -72 -268 q 14 -160 -10 -217 q 57 -12 38 -104 l 203 665 l 76 665 l 85 715 l 218 744 l 233 821 q 320 1005 257 940 q 497 1069 383 1069 q 631 1041 586 1069 q 676 967 676 1013 q 647 899 676 921 q 561 876 617 876 q 548 967 561 929 q 490 1006 535 1006 q 411 963 439 1006 q 367 833 383 921 l 349 744 l 503 744 l 488 665 l 332 665 l 188 -11 q 140 -166 168 -104 q 74 -265 111 -228 q -10 -317 36 -301 q -114 -333 -57 -333 z "},"g":{"ha":772,"x_min":-49,"x_max":831,"o":"m 254 -333 q 85 -312 153 -333 q -15 -251 18 -292 q -49 -153 -49 -211 q -16 -54 -49 -94 q 69 11 17 -14 q 178 47 121 36 q 131 85 151 60 q 111 143 111 110 q 140 217 111 188 q 243 285 169 247 q 172 347 197 306 q 146 449 146 389 q 165 551 146 497 q 224 653 185 606 q 325 729 264 700 q 468 758 386 758 q 547 748 510 758 q 611 714 583 738 q 676 783 639 754 q 761 813 714 813 q 813 794 796 813 q 831 749 831 776 q 823 709 831 729 q 798 676 815 689 q 749 663 781 663 q 739 698 749 683 q 710 713 729 713 q 674 702 690 713 q 642 681 657 692 q 665 633 657 660 q 672 574 672 606 q 653 473 672 526 q 596 372 635 419 q 497 293 557 324 q 354 263 436 263 q 340 263 347 263 q 324 263 332 263 q 310 265 317 264 q 245 231 279 251 q 211 178 211 210 q 231 147 211 156 q 282 136 251 139 l 415 122 q 574 68 518 113 q 631 -60 631 24 q 607 -173 631 -122 q 536 -259 583 -224 q 419 -314 489 -294 q 254 -333 349 -333 m 260 -265 q 406 -242 351 -265 q 485 -181 461 -219 q 510 -99 510 -143 q 479 -28 510 -54 q 381 4 449 -1 l 246 17 q 157 -8 199 11 q 90 -60 115 -26 q 64 -144 64 -94 q 82 -207 64 -179 q 143 -250 100 -235 q 260 -265 186 -265 m 369 329 q 450 355 417 329 q 505 420 483 381 q 536 503 526 460 q 546 581 546 546 q 520 667 546 640 q 450 694 494 694 q 369 669 403 694 q 315 603 336 643 q 283 521 293 564 q 274 443 274 478 q 300 356 274 383 q 369 329 326 329 z "},"h":{"ha":832,"x_min":61,"x_max":808,"o":"m 639 -14 q 545 26 578 -14 q 513 125 513 65 q 519 203 513 158 q 539 313 525 249 l 563 421 q 574 469 567 440 q 586 531 581 499 q 592 586 592 563 q 580 641 592 614 q 528 668 568 668 q 442 636 485 668 q 362 554 399 604 q 299 451 325 504 q 265 356 274 397 l 190 0 l 61 0 l 242 858 q 251 906 249 886 q 254 932 254 926 q 241 974 254 960 q 206 992 228 988 q 157 997 183 997 l 146 997 l 158 1056 l 414 1056 l 360 800 q 328 661 344 726 q 304 569 311 596 l 319 569 q 438 709 376 661 q 576 757 499 757 q 664 735 632 757 q 710 679 696 714 q 725 603 725 644 q 716 527 725 568 q 700 450 707 486 l 664 286 q 651 210 656 247 q 646 140 646 172 q 659 91 646 108 q 694 74 672 74 q 738 82 717 74 q 783 106 760 90 l 808 65 q 734 12 775 38 q 639 -14 693 -14 z "},"i":{"ha":422,"x_min":86,"x_max":403,"o":"m 215 -14 q 130 25 160 -14 q 100 118 100 64 q 106 188 100 147 q 118 269 111 228 q 131 336 125 310 l 185 592 q 188 612 188 603 q 189 628 189 621 q 166 676 189 665 q 104 686 143 686 l 86 686 l 99 744 l 347 744 l 253 299 q 244 254 250 283 q 235 194 239 225 q 232 144 232 164 q 244 92 232 110 q 278 74 256 74 q 326 84 301 74 q 378 110 351 94 l 403 69 q 320 15 372 43 q 215 -14 268 -14 m 311 883 q 255 902 276 883 q 233 960 233 921 q 244 1010 233 989 q 273 1044 254 1032 q 317 1057 292 1057 q 372 1038 350 1057 q 394 981 394 1019 q 382 923 394 944 q 351 892 369 901 q 311 883 332 883 z "},"j":{"ha":404,"x_min":-194,"x_max":396,"o":"m -114 -333 q -158 -330 -135 -333 q -194 -322 -181 -326 l -182 -258 q -152 -265 -171 -261 q -118 -268 -133 -268 q -40 -242 -72 -268 q 15 -160 -8 -217 q 58 -11 39 -103 l 186 592 q 190 612 189 603 q 190 628 190 621 q 167 676 190 665 q 106 686 144 686 l 88 686 l 100 744 l 349 744 l 189 -11 q 140 -166 169 -104 q 74 -265 111 -228 q -10 -317 36 -301 q -114 -333 -57 -333 m 313 883 q 256 902 278 883 q 235 960 235 921 q 245 1010 235 989 q 274 1044 256 1032 q 318 1057 293 1057 q 374 1038 351 1057 q 396 981 396 1019 q 369 905 396 926 q 313 883 343 883 z "},"k":{"ha":790,"x_min":61,"x_max":832,"o":"m 715 -10 q 592 4 640 -8 q 515 47 544 17 q 464 133 486 78 l 350 414 l 426 389 l 247 275 l 190 0 l 61 0 l 242 858 q 251 906 249 886 q 254 932 254 926 q 226 985 254 974 q 157 997 197 997 l 146 997 l 158 1056 l 414 1056 l 360 800 q 338 701 351 763 q 309 571 325 640 q 278 440 293 501 q 251 343 263 379 l 472 535 q 532 590 510 568 q 564 629 554 613 q 574 658 574 646 q 568 676 574 671 q 549 684 563 682 q 513 686 536 686 l 525 744 l 832 744 l 819 686 q 753 671 788 686 q 680 627 718 656 q 596 557 642 599 l 424 397 l 443 497 l 596 165 q 630 106 611 132 q 675 64 649 79 q 738 49 701 49 l 725 -10 l 715 -10 z "},"l":{"ha":422,"x_min":101,"x_max":415,"o":"m 217 -14 q 131 25 161 -14 q 101 118 101 64 q 107 188 101 147 q 119 269 113 228 q 132 336 126 310 l 246 869 q 252 908 250 889 q 254 932 254 926 q 226 985 254 974 q 157 997 197 997 l 140 997 l 153 1056 l 415 1056 l 254 299 q 246 254 251 283 q 236 194 240 225 q 232 144 232 164 q 244 92 232 110 q 278 74 256 74 q 326 84 301 74 q 378 110 351 94 l 403 69 q 321 15 372 43 q 217 -14 269 -14 z "},"m":{"ha":1244,"x_min":61,"x_max":1221,"o":"m 1051 -14 q 983 4 1011 -14 q 940 53 954 22 q 925 125 925 85 q 931 203 925 158 q 951 313 938 249 l 975 421 q 986 469 979 440 q 999 531 993 499 q 1004 586 1004 563 q 992 641 1004 614 q 940 668 981 668 q 876 650 908 668 q 815 602 844 632 q 760 535 786 572 q 716 460 735 499 q 686 386 697 421 l 664 286 q 653 226 660 267 q 640 140 646 186 q 628 54 633 93 q 624 0 624 15 l 492 0 q 497 55 492 17 q 508 141 501 93 q 524 235 515 189 q 539 313 532 281 l 563 421 q 574 469 567 440 q 586 531 581 499 q 592 586 592 563 q 580 641 592 614 q 528 668 568 668 q 442 636 485 668 q 362 554 399 604 q 299 451 325 504 q 265 356 274 397 l 190 0 l 61 0 l 178 558 q 184 597 182 578 q 186 621 186 615 q 158 674 186 663 q 89 686 129 686 l 78 686 l 90 744 l 347 744 l 310 569 l 324 569 q 440 709 381 661 q 576 757 499 757 q 664 735 632 757 q 710 679 696 714 q 725 603 725 644 q 724 586 725 594 q 722 569 724 578 l 736 569 q 852 709 793 661 q 989 757 911 757 q 1076 735 1044 757 q 1123 679 1108 714 q 1138 603 1138 644 q 1128 527 1138 568 q 1113 450 1119 486 l 1076 286 q 1063 210 1068 247 q 1058 140 1058 172 q 1072 91 1058 108 q 1107 74 1085 74 q 1151 82 1129 74 q 1196 106 1172 90 l 1221 65 q 1147 12 1188 38 q 1051 -14 1106 -14 z "},"n":{"ha":832,"x_min":61,"x_max":808,"o":"m 639 -14 q 545 26 578 -14 q 513 125 513 65 q 519 203 513 158 q 539 313 525 249 l 563 421 q 574 469 567 440 q 586 531 581 499 q 592 586 592 563 q 580 641 592 614 q 528 668 568 668 q 442 636 485 668 q 362 554 399 604 q 299 451 325 504 q 265 356 274 397 l 190 0 l 61 0 l 178 558 q 184 597 182 578 q 186 621 186 615 q 158 674 186 663 q 89 686 129 686 l 78 686 l 90 744 l 347 744 l 310 569 l 324 569 q 440 709 381 661 q 576 757 499 757 q 664 735 632 757 q 710 679 696 714 q 725 603 725 644 q 716 527 725 568 q 700 450 707 486 l 664 286 q 651 210 656 247 q 646 140 646 172 q 659 91 646 108 q 694 74 672 74 q 738 82 717 74 q 783 106 760 90 l 808 65 q 734 12 775 38 q 639 -14 693 -14 z "},"o":{"ha":797,"x_min":60,"x_max":738,"o":"m 326 -14 q 134 58 208 -14 q 60 274 60 129 q 76 402 60 335 q 124 533 92 469 q 206 647 157 596 q 322 728 256 699 q 474 758 389 758 q 607 729 547 758 q 702 637 667 700 q 738 471 738 574 q 722 345 738 411 q 675 215 707 279 q 594 100 643 151 q 479 17 546 49 q 326 -14 413 -14 m 342 57 q 438 86 396 57 q 508 163 479 115 q 556 269 538 211 q 584 385 575 326 q 593 494 593 444 q 557 643 593 599 q 457 688 521 688 q 361 658 403 688 q 290 581 319 629 q 241 475 260 533 q 213 358 222 417 q 204 249 204 299 q 222 137 204 179 q 269 76 239 94 q 342 57 300 57 z "},"p":{"ha":801,"x_min":-10,"x_max":742,"o":"m 175 547 q 185 595 182 575 q 188 621 188 615 q 159 674 188 663 q 90 686 131 686 l 79 686 l 92 744 l 338 744 l 304 560 l 311 560 q 374 659 339 614 q 457 731 410 704 q 565 758 504 758 q 696 694 650 758 q 742 507 742 629 q 725 377 742 447 q 676 238 708 307 q 594 111 643 168 q 478 20 544 54 q 328 -14 411 -14 q 253 -5 288 -14 q 192 18 218 4 q 188 -12 190 7 q 181 -49 185 -32 l 161 -133 q 154 -169 160 -142 q 149 -211 149 -196 q 178 -264 149 -253 q 246 -275 207 -275 l 264 -275 l 251 -333 l -10 -333 l 175 547 m 324 49 q 420 79 376 49 q 497 161 464 110 q 553 273 531 213 q 588 395 576 333 q 600 508 600 457 q 592 586 600 549 q 566 647 585 624 q 513 671 547 671 q 449 651 481 671 q 388 597 417 631 q 336 523 360 564 q 296 440 313 482 q 271 363 279 399 l 214 99 q 256 66 226 83 q 324 49 285 49 z "},"q":{"ha":778,"x_min":60,"x_max":746,"o":"m 446 -56 q 459 7 450 -32 q 478 88 468 46 q 497 164 489 131 q 507 210 504 197 l 499 210 q 436 101 472 153 q 352 18 400 50 q 239 -14 304 -14 q 109 51 158 -14 q 60 240 60 115 q 77 377 60 306 q 129 516 94 449 q 214 638 164 583 q 329 726 264 693 q 474 758 394 758 q 556 748 511 758 q 628 721 600 738 l 697 758 l 746 758 l 554 -147 q 548 -185 550 -167 q 546 -210 546 -203 q 574 -263 546 -251 q 642 -275 603 -275 l 653 -275 l 640 -333 l 388 -333 l 446 -56 m 289 74 q 365 103 326 74 q 437 180 403 132 q 497 285 471 228 q 535 400 522 343 l 586 646 q 548 681 576 665 q 481 696 519 696 q 379 663 424 696 q 301 577 335 631 q 245 462 267 524 q 213 340 224 400 q 201 233 201 279 q 226 110 201 147 q 289 74 251 74 z "},"r":{"ha":650,"x_min":61,"x_max":657,"o":"m 178 558 q 184 597 182 578 q 186 621 186 615 q 151 674 186 663 q 75 686 115 686 l 64 686 l 76 744 l 322 744 l 293 544 l 307 544 q 364 650 333 601 q 438 728 394 699 q 543 758 481 758 q 629 731 601 758 q 657 663 657 704 q 630 585 657 614 q 542 557 603 557 q 531 637 542 607 q 486 667 519 667 q 413 629 450 667 q 344 530 376 592 q 285 395 311 468 q 243 253 258 322 l 190 0 l 61 0 l 178 558 z "},"s":{"ha":644,"x_min":35,"x_max":607,"o":"m 264 -14 q 143 5 194 -14 q 63 59 92 24 q 35 143 35 94 q 50 201 35 181 q 85 228 65 221 q 122 235 106 235 q 138 144 122 186 q 188 78 153 103 q 281 53 224 53 q 360 67 326 53 q 413 110 394 82 q 431 182 431 139 q 399 265 431 231 q 290 335 367 300 q 168 419 214 371 q 122 550 122 467 q 155 656 122 610 q 248 730 188 703 q 390 757 308 757 q 514 738 467 757 q 584 688 561 718 q 607 625 607 657 q 579 560 607 582 q 503 539 551 539 q 491 612 503 576 q 452 670 479 647 q 378 693 425 693 q 279 660 315 693 q 243 574 243 626 q 278 495 243 526 q 385 431 313 464 q 506 346 461 396 q 551 215 551 296 q 517 97 551 149 q 417 15 482 44 q 264 -14 353 -14 z "},"t":{"ha":511,"x_min":96,"x_max":517,"o":"m 254 -14 q 171 4 204 -14 q 120 58 138 22 q 103 149 103 94 q 107 206 103 174 q 117 265 111 239 l 201 665 l 96 665 l 108 721 q 167 731 138 721 q 224 765 196 742 q 276 824 251 788 q 321 915 300 861 l 385 915 l 349 744 l 517 744 l 500 665 l 332 665 l 247 269 q 235 203 240 235 q 231 150 231 172 q 250 92 231 110 q 304 74 269 74 q 365 83 333 74 q 418 104 396 92 l 442 53 q 353 5 400 24 q 254 -14 307 -14 z "},"u":{"ha":832,"x_min":79,"x_max":810,"o":"m 633 -14 q 571 4 597 -14 q 531 52 544 22 q 517 118 517 82 q 519 156 517 133 q 524 200 521 178 l 513 200 q 436 90 474 138 q 353 15 399 42 q 244 -12 307 -12 q 158 9 190 -12 q 110 66 125 31 q 96 142 96 101 q 104 218 96 176 q 121 294 113 260 l 175 538 q 183 586 179 557 q 188 621 188 615 q 159 674 188 663 q 90 686 131 686 l 79 686 l 92 744 l 350 744 l 258 329 q 240 242 250 292 q 231 161 231 192 q 244 101 231 126 q 299 76 258 76 q 376 105 336 76 q 454 181 417 133 q 519 285 492 228 q 560 399 547 342 l 632 744 l 767 744 l 671 299 q 663 254 668 283 q 653 194 657 225 q 650 144 650 164 q 662 92 650 110 q 696 74 674 74 q 739 81 719 74 q 785 104 758 89 l 810 64 q 733 12 779 38 q 633 -14 686 -14 z "},"v":{"ha":747,"x_min":24,"x_max":701,"o":"m 133 613 q 117 658 129 642 q 85 680 104 674 q 38 686 65 686 l 24 686 l 35 744 l 243 744 l 307 333 q 320 239 314 288 q 332 151 326 190 q 339 88 338 111 l 343 88 q 440 196 393 136 q 522 317 486 256 q 578 436 557 379 q 599 535 599 493 q 575 612 599 583 q 513 640 551 640 q 543 724 513 697 q 607 751 574 751 q 676 722 651 751 q 701 622 701 692 q 678 486 701 557 q 616 346 654 415 q 532 212 578 276 q 440 93 486 147 q 356 1 393 39 l 231 -12 l 133 613 z "},"w":{"ha":1138,"x_min":51,"x_max":1110,"o":"m 624 -14 q 622 103 624 38 q 617 240 619 169 q 611 378 614 311 q 606 499 608 444 q 603 588 604 554 q 574 523 596 568 q 524 418 553 478 q 461 294 494 358 q 397 169 428 229 q 343 66 367 110 q 310 4 319 22 l 167 -12 l 157 586 q 145 650 157 629 q 113 678 133 671 q 65 686 93 686 l 51 686 l 71 744 l 279 744 q 282 590 281 671 q 284 425 283 508 q 285 262 285 342 q 285 111 285 182 l 290 111 q 363 243 324 168 q 445 401 403 318 q 527 570 488 485 q 599 732 567 656 l 714 738 q 722 630 718 696 q 730 487 726 564 q 736 335 733 410 q 741 198 739 260 q 743 101 743 136 l 753 101 q 846 225 800 158 q 930 359 892 292 q 991 487 968 426 q 1014 593 1014 547 q 998 647 1014 628 q 954 676 982 667 q 980 734 958 710 q 1036 758 1001 758 q 1090 733 1071 758 q 1110 654 1110 707 q 1085 522 1110 592 q 1013 371 1060 451 q 903 198 967 290 q 761 1 839 106 l 624 -14 z "},"x":{"ha":758,"x_min":-28,"x_max":776,"o":"m -28 0 l -12 58 l 6 58 q 52 65 32 58 q 95 93 72 72 q 150 154 118 114 l 328 369 l 238 586 q 208 648 221 626 q 181 678 196 669 q 138 686 165 686 l 119 686 l 131 744 l 315 744 l 421 464 l 606 744 l 776 744 l 761 686 l 743 686 q 696 678 717 686 q 653 648 675 669 q 599 586 632 626 l 453 399 l 549 158 q 576 97 564 118 q 605 67 588 75 q 649 58 622 58 l 667 58 l 656 0 l 469 0 l 357 306 l 149 0 l -28 0 z "},"y":{"ha":733,"x_min":-225,"x_max":690,"o":"m -94 -333 q -164 -326 -129 -333 q -225 -308 -199 -319 l -204 -239 q -163 -249 -187 -244 q -96 -254 -139 -254 q 30 -230 -28 -254 q 136 -167 88 -206 q 224 -85 185 -129 q 294 -1 264 -42 l 111 613 q 91 656 103 640 q 61 679 79 672 q 15 686 43 686 l 1 686 l 13 744 l 215 744 l 324 369 q 347 283 335 333 q 370 188 360 233 q 382 118 381 142 l 386 118 q 481 281 439 199 q 549 440 524 363 q 574 579 574 517 q 567 616 574 599 q 547 644 561 633 q 506 654 532 654 q 534 731 506 704 q 596 757 563 757 q 665 728 640 757 q 690 640 690 699 q 660 481 690 568 q 576 294 631 394 q 446 79 521 193 q 320 -104 378 -26 q 204 -233 263 -182 q 74 -308 146 -283 q -94 -333 3 -333 z "},"z":{"ha":710,"x_min":-1,"x_max":656,"o":"m -1 0 l 10 56 l 482 665 l 306 665 q 247 653 269 665 q 208 615 224 640 q 175 553 193 590 l 172 547 l 114 547 l 169 744 l 656 744 l 644 688 l 171 79 l 418 79 q 472 95 450 79 q 508 138 493 111 q 536 193 524 164 l 550 225 l 608 225 l 554 0 l -1 0 z "},"{":{"ha":594,"x_min":83,"x_max":676,"o":"m 322 -178 q 199 -142 242 -178 q 157 -37 157 -106 q 159 -9 157 -24 q 164 21 161 6 l 215 264 q 219 288 218 276 q 221 308 221 299 q 181 388 221 365 q 83 411 142 410 l 96 469 q 181 485 142 472 q 250 528 221 497 q 290 615 279 558 l 342 856 q 378 962 356 917 q 449 1031 400 1007 q 585 1056 497 1056 l 676 1056 l 664 996 l 622 996 q 553 979 582 996 q 506 930 524 963 q 476 850 488 897 l 425 611 q 364 499 411 543 q 235 442 317 456 l 235 436 q 327 393 296 426 q 358 310 358 360 q 357 289 358 300 q 353 267 356 278 l 301 28 q 297 -3 299 11 q 294 -31 294 -18 q 316 -96 294 -74 q 385 -118 338 -118 l 426 -118 l 414 -178 l 322 -178 z "},"|":{"ha":776,"x_min":346,"x_max":429,"o":"m 346 -333 l 346 1056 l 429 1056 l 429 -333 l 346 -333 z "},"}":{"ha":594,"x_min":-69,"x_max":524,"o":"m -69 -178 l -57 -118 l -15 -118 q 54 -101 25 -118 q 102 -52 83 -85 q 131 28 121 -19 l 182 268 q 244 381 197 338 q 372 439 290 425 l 372 444 q 280 488 311 456 q 249 569 249 519 q 251 591 249 581 q 254 613 253 601 l 306 850 q 310 881 308 867 q 313 908 313 896 q 291 974 313 951 q 222 996 269 996 l 181 996 l 193 1056 l 285 1056 q 408 1019 367 1056 q 450 915 450 983 q 448 887 450 901 q 443 857 446 872 l 392 615 q 388 592 389 603 q 386 571 386 582 q 426 493 386 514 q 524 469 465 472 l 511 411 q 389 379 443 408 q 317 264 335 350 l 265 22 q 229 -84 253 -39 q 158 -153 206 -129 q 22 -178 111 -178 l -69 -178 z "},"~":{"ha":776,"x_min":75,"x_max":700,"o":"m 75 374 q 88 456 79 414 q 114 535 96 499 q 163 594 132 572 q 244 617 194 617 q 303 606 276 617 q 358 576 331 596 q 418 525 386 556 q 475 477 447 499 q 532 456 503 456 q 574 474 558 456 q 601 529 590 493 q 617 617 611 565 l 700 617 q 687 539 696 581 q 660 460 678 497 q 610 398 642 422 q 531 374 579 374 q 470 385 499 374 q 416 416 442 396 q 364 461 390 436 q 324 499 343 482 q 285 525 304 515 q 244 535 267 535 q 184 495 204 535 q 157 374 164 456 l 75 374 z "},"":{"ha":361,"x_min":0,"x_max":0,"o":""},"":{"ha":463,"x_min":15,"x_max":371,"o":"m 15 -249 l 215 464 l 279 464 l 176 -249 l 15 -249 m 279 563 q 218 583 243 563 q 193 647 193 604 q 207 710 193 688 q 242 744 221 733 q 285 754 263 754 q 347 733 324 754 q 371 669 371 713 q 346 592 371 622 q 279 563 321 563 z "},"":{"ha":776,"x_min":117,"x_max":733,"o":"m 336 124 q 224 168 274 133 q 146 263 175 203 q 117 407 117 322 q 133 531 117 467 q 179 656 149 594 q 256 767 210 717 q 362 851 301 818 q 497 890 422 883 l 519 992 l 589 992 l 567 889 q 693 843 653 882 q 733 758 733 804 q 719 710 733 732 q 677 674 704 688 q 610 661 650 661 q 595 752 610 711 q 550 811 581 793 l 422 207 q 506 224 469 208 q 569 261 542 239 q 614 307 596 283 q 624 293 621 303 q 628 272 628 283 q 604 208 628 243 q 531 148 581 174 q 404 119 482 122 l 379 0 l 310 0 l 336 124 m 483 822 q 407 783 442 815 q 345 703 372 751 q 299 601 318 656 q 271 492 281 546 q 261 396 261 439 q 285 279 261 325 q 356 217 308 233 l 483 822 z "},"":{"ha":776,"x_min":-1,"x_max":778,"o":"m 467 -14 q 380 1 421 -14 q 297 33 339 17 q 204 49 254 49 q 121 39 157 49 q 43 8 85 29 l 24 -1 l -1 54 l 47 82 q 140 151 94 110 q 217 249 186 192 q 247 382 247 307 q 244 426 247 404 q 238 468 242 447 l 83 468 l 99 538 l 226 538 q 215 603 221 565 q 208 678 208 642 q 251 856 208 782 q 369 967 293 929 q 547 1006 446 1006 q 674 988 622 1006 q 751 938 725 969 q 778 869 778 907 q 748 788 778 817 q 663 760 718 760 q 626 892 663 847 q 526 936 589 936 q 420 907 464 936 q 353 822 376 878 q 331 686 331 765 q 338 603 331 640 q 350 538 344 565 l 586 538 l 571 468 l 360 468 q 363 432 363 450 q 364 394 364 414 q 343 286 364 333 q 283 201 322 239 q 189 131 244 164 l 190 125 q 249 144 222 139 q 297 150 275 150 q 377 137 335 150 q 459 110 419 124 q 526 97 499 97 q 604 113 575 97 q 665 160 633 129 l 703 114 q 644 61 682 92 q 560 8 606 31 q 467 -14 514 -14 z "},"":{"ha":776,"x_min":100,"x_max":697,"o":"m 158 199 l 100 257 l 190 349 q 156 418 168 381 q 144 497 144 456 q 157 577 144 539 q 192 646 169 615 l 100 738 l 158 796 l 249 704 q 318 740 281 728 q 399 753 356 753 q 477 740 439 753 q 546 704 515 728 l 639 797 l 697 738 l 606 646 q 642 577 629 615 q 654 497 654 539 q 642 418 654 456 q 606 349 629 381 l 697 257 l 640 199 l 547 290 q 478 256 517 268 q 399 243 440 243 q 319 256 357 243 q 250 290 282 268 l 158 199 m 399 319 q 489 344 449 319 q 553 408 529 368 q 576 497 576 449 q 553 588 576 547 q 489 653 529 629 q 399 676 449 676 q 310 653 350 676 q 246 588 269 629 q 222 497 222 547 q 246 408 222 449 q 310 344 269 368 q 399 319 350 319 z "},"":{"ha":776,"x_min":96,"x_max":896,"o":"m 96 0 l 108 58 l 140 58 q 198 65 171 58 q 245 90 225 71 q 274 151 265 110 l 293 246 l 99 246 l 113 311 l 307 311 l 328 408 l 133 408 l 147 474 l 315 474 l 208 860 q 182 917 197 900 q 126 933 167 933 l 121 933 l 133 992 l 458 992 l 446 933 l 440 933 q 370 924 393 933 q 347 886 347 915 q 353 841 347 869 q 364 797 360 813 l 400 649 q 419 554 411 606 q 429 479 428 503 q 461 531 439 496 q 501 593 483 565 l 617 763 q 652 819 639 794 q 672 863 665 844 q 679 893 679 882 q 663 924 679 914 q 606 933 646 933 l 600 933 l 613 992 l 896 992 l 883 933 l 871 933 q 830 924 847 933 q 793 892 813 915 q 743 825 774 868 l 499 474 l 671 474 l 657 408 l 463 408 l 442 311 l 636 311 l 622 246 l 428 246 l 408 153 q 405 133 407 144 q 403 114 403 121 q 431 69 403 79 q 503 58 460 58 l 535 58 l 522 0 l 96 0 z "},"":{"ha":776,"x_min":346,"x_max":429,"o":"m 346 500 l 346 1056 l 429 1056 l 429 500 l 346 500 m 346 -333 l 346 222 l 429 222 l 429 -333 l 346 -333 z "},"":{"ha":756,"x_min":28,"x_max":726,"o":"m 264 -160 q 141 -141 194 -160 q 58 -87 88 -122 q 28 -3 28 -51 q 43 54 28 35 q 78 81 58 74 q 115 89 99 89 q 157 -37 115 17 q 285 -92 199 -92 q 423 -46 371 -92 q 475 72 475 0 q 463 124 475 99 q 409 184 451 150 q 276 267 367 218 q 184 334 218 300 q 136 407 150 368 q 122 490 122 446 q 160 604 122 558 q 244 679 197 650 q 222 731 232 699 q 211 804 211 763 q 251 940 211 885 q 358 1026 290 996 q 507 1056 425 1056 q 624 1036 575 1056 q 699 985 672 1017 q 726 917 726 954 q 699 841 726 861 q 614 821 671 821 q 600 908 614 869 q 557 968 586 946 q 482 990 528 990 q 406 975 443 990 q 343 928 368 960 q 318 849 318 897 q 335 777 318 807 q 391 719 351 747 q 501 653 431 692 q 599 587 563 621 q 653 517 636 553 q 671 438 671 481 q 635 319 671 374 q 550 228 600 265 q 569 185 560 210 q 578 125 578 161 q 541 -18 578 47 q 434 -122 504 -83 q 264 -160 364 -160 m 515 272 q 551 321 536 296 q 567 378 567 346 q 554 427 567 401 q 510 481 542 453 q 424 539 479 508 q 342 588 379 563 q 275 640 306 613 q 235 599 250 622 q 219 542 219 575 q 254 453 219 492 q 381 365 289 415 q 454 320 418 344 q 515 272 490 296 z "},"":{"ha":801,"x_min":279,"x_max":688,"o":"m 613 878 q 563 895 582 878 q 543 947 543 913 q 563 1011 543 988 q 618 1035 583 1035 q 668 1018 649 1035 q 688 965 688 1001 q 664 897 688 917 q 613 878 640 878 m 349 878 q 299 895 318 878 q 279 947 279 913 q 299 1011 279 988 q 354 1035 319 1035 q 404 1018 385 1035 q 424 965 424 1001 q 400 897 424 917 q 349 878 376 878 z "},"":{"ha":1174,"x_min":76,"x_max":1097,"o":"m 586 -14 q 382 22 475 -14 q 220 125 289 58 q 114 286 151 192 q 76 497 76 381 q 114 706 76 613 q 219 867 151 800 q 381 971 288 935 q 586 1007 475 1007 q 791 971 697 1007 q 953 868 885 935 q 1060 707 1022 801 q 1097 496 1097 613 q 1060 285 1097 379 q 953 125 1022 192 q 791 22 885 58 q 586 -14 697 -14 m 594 179 q 436 219 500 179 q 340 330 372 258 q 308 497 308 401 q 343 661 308 590 q 446 772 378 732 q 614 813 514 813 q 724 799 681 813 q 788 763 767 786 q 810 711 810 740 q 781 663 810 681 q 713 644 753 644 q 703 696 713 671 q 671 737 693 721 q 611 753 649 753 q 467 687 510 753 q 425 497 425 621 q 447 358 425 415 q 510 270 468 300 q 613 240 553 240 q 724 272 678 240 q 788 338 769 303 q 803 320 797 332 q 808 293 808 308 q 785 240 808 267 q 713 197 761 214 q 594 179 665 179 m 588 63 q 763 93 685 63 q 899 181 842 124 q 986 318 956 238 q 1017 497 1017 399 q 985 677 1017 597 q 897 813 954 757 q 762 900 840 869 q 588 931 683 931 q 364 878 461 931 q 212 728 267 825 q 157 496 157 631 q 189 314 157 394 q 278 177 221 233 q 415 92 336 121 q 588 63 494 63 z "},"":{"ha":546,"x_min":83,"x_max":576,"o":"m 206 529 q 113 574 142 529 q 83 682 83 618 q 102 785 83 731 q 158 888 121 840 q 247 965 194 935 q 368 994 300 994 q 432 986 403 994 q 479 965 461 978 l 522 985 l 553 985 l 488 728 q 479 683 485 714 q 474 638 474 653 q 481 606 474 617 q 501 596 488 596 q 531 602 515 596 q 561 618 546 608 l 576 592 q 524 551 558 574 q 456 529 489 529 q 400 548 421 529 q 379 599 379 567 q 381 634 379 615 q 389 674 383 653 l 383 674 q 307 569 351 610 q 206 529 263 529 m 251 594 q 308 625 279 594 q 358 699 336 656 q 390 778 381 742 l 426 915 q 401 936 417 929 q 365 943 385 943 q 296 917 326 943 q 245 849 265 890 q 215 765 225 808 q 204 686 204 721 q 218 616 204 638 q 251 594 232 594 z "},"":{"ha":714,"x_min":85,"x_max":679,"o":"m 497 111 l 336 353 l 346 397 l 610 639 l 679 639 l 479 368 l 567 111 l 497 111 m 246 111 l 85 353 l 94 397 l 358 639 l 428 639 l 228 368 l 315 111 l 246 111 z "},"":{"ha":776,"x_min":90,"x_max":686,"o":"m 603 171 l 603 456 l 90 456 l 90 538 l 686 538 l 686 171 l 603 171 z "},"":{"ha":431,"x_min":19,"x_max":403,"o":"m 19 326 l 42 431 l 403 431 l 381 326 l 19 326 z "},"":{"ha":1174,"x_min":76,"x_max":1097,"o":"m 319 196 l 319 243 l 338 243 q 385 251 365 243 q 406 292 406 260 l 406 699 q 385 739 406 731 q 338 747 365 747 l 319 747 l 319 796 l 574 796 q 753 754 693 796 q 813 633 813 713 q 795 557 813 588 q 749 508 778 526 q 686 478 719 489 l 810 281 q 839 251 825 258 q 888 243 853 243 l 888 196 l 736 196 l 583 454 l 514 454 l 514 292 q 535 251 514 260 q 582 243 556 243 l 601 243 l 601 196 l 319 196 m 586 -14 q 382 22 475 -14 q 220 125 289 58 q 114 286 151 192 q 76 497 76 381 q 114 706 76 613 q 219 867 151 800 q 381 971 288 935 q 586 1007 475 1007 q 791 971 697 1007 q 953 868 885 935 q 1060 707 1022 801 q 1097 496 1097 613 q 1060 285 1097 379 q 953 125 1022 192 q 791 22 885 58 q 586 -14 697 -14 m 572 511 q 674 539 646 511 q 703 626 703 567 q 672 714 703 690 q 568 738 642 738 l 514 738 l 514 511 l 572 511 m 588 63 q 763 93 685 63 q 899 181 842 124 q 986 318 956 238 q 1017 497 1017 399 q 985 677 1017 597 q 897 813 954 757 q 762 900 840 869 q 588 931 683 931 q 364 878 461 931 q 212 728 267 825 q 157 496 157 631 q 189 314 157 394 q 278 177 221 233 q 415 92 336 121 q 588 63 494 63 z "},"":{"ha":638,"x_min":140,"x_max":808,"o":"m 140 1056 l 158 1138 l 808 1138 l 790 1056 l 140 1056 z "},"":{"ha":556,"x_min":171,"x_max":592,"o":"m 381 588 q 229 646 288 588 q 171 797 171 704 q 197 907 171 860 q 271 981 224 954 q 381 1008 318 1008 q 491 981 443 1008 q 565 907 539 954 q 592 797 592 860 q 565 688 592 735 q 491 614 539 640 q 381 588 443 588 m 382 669 q 470 704 439 669 q 501 797 501 739 q 469 892 501 857 q 382 926 438 926 q 294 892 326 926 q 263 797 263 857 q 294 704 263 739 q 382 669 326 669 z "},"":{"ha":776,"x_min":90,"x_max":686,"o":"m 90 0 l 90 82 l 686 82 l 686 0 l 90 0 m 346 199 l 346 456 l 90 456 l 90 538 l 346 538 l 346 794 l 429 794 l 429 538 l 686 538 l 686 456 l 429 456 l 429 199 l 346 199 z "},"":{"ha":556,"x_min":79,"x_max":574,"o":"m 79 536 l 86 578 l 301 756 q 374 823 344 792 q 419 884 403 854 q 444 944 436 914 q 451 1008 451 975 q 436 1064 451 1039 q 382 1089 421 1089 q 328 1070 351 1089 q 290 1022 304 1051 q 269 957 275 992 q 204 976 228 957 q 181 1024 181 994 q 206 1085 181 1058 q 278 1128 231 1113 q 392 1144 326 1144 q 524 1108 475 1144 q 574 1013 574 1072 q 557 934 574 972 q 499 851 540 896 q 382 747 457 807 l 215 615 l 407 615 q 443 623 429 615 q 466 644 457 631 q 481 672 475 657 l 492 701 l 539 701 l 500 536 l 79 536 z "},"":{"ha":556,"x_min":110,"x_max":600,"o":"m 292 528 q 157 557 204 528 q 110 635 110 586 q 133 691 110 672 q 189 710 156 710 q 200 656 189 683 q 236 609 211 628 q 301 590 261 590 q 369 603 339 590 q 416 642 399 615 q 433 714 433 669 q 403 787 433 756 q 307 818 372 818 l 261 818 l 272 875 l 318 875 q 425 914 378 875 q 472 1024 472 953 q 457 1070 472 1051 q 408 1089 442 1089 q 328 1053 356 1089 q 292 968 301 1017 q 225 981 250 968 q 200 1026 200 993 q 226 1086 200 1060 q 299 1128 251 1113 q 413 1144 346 1144 q 554 1108 508 1144 q 600 1018 600 1071 q 549 908 600 946 q 422 854 499 869 l 421 847 q 523 808 485 840 q 561 719 561 776 q 527 615 561 657 q 432 550 493 572 q 292 528 371 528 z "},"":{"ha":365,"x_min":156,"x_max":457,"o":"m 156 842 l 160 860 q 211 922 185 888 q 263 994 238 957 q 308 1064 288 1031 l 457 1064 l 453 1050 q 408 1001 436 1029 q 347 944 381 974 q 278 888 313 914 q 211 842 243 861 l 156 842 z "},"":{"ha":839,"x_min":-3,"x_max":782,"o":"m 88 -333 q 23 -311 49 -333 q -3 -233 -3 -289 q 17 -103 -3 -178 q 65 72 36 -29 q 124 313 94 174 l 215 744 l 346 744 l 254 310 q 247 272 251 294 q 241 225 243 249 q 239 182 239 201 q 261 107 239 139 q 340 75 283 75 q 410 91 378 75 q 469 137 443 107 q 515 208 496 167 q 544 300 535 250 l 639 744 l 769 744 l 658 225 q 647 168 653 199 q 642 118 642 138 q 653 85 642 97 q 682 74 664 74 q 720 81 700 74 q 758 97 740 88 l 782 50 q 712 9 754 32 q 621 -14 669 -14 q 565 3 588 -14 q 530 50 542 19 q 517 119 518 81 l 510 119 q 419 22 467 58 q 308 -14 372 -14 q 211 8 251 -14 q 151 68 171 29 q 140 6 146 36 q 132 -50 135 -24 q 129 -100 129 -76 q 136 -154 129 -131 q 160 -192 143 -178 q 206 -212 178 -207 q 185 -280 201 -253 q 143 -320 168 -307 q 88 -333 118 -333 z "},"":{"ha":857,"x_min":67,"x_max":811,"o":"m 246 -154 l 246 -96 l 264 -96 q 322 -89 296 -96 q 363 -60 347 -82 q 378 4 378 -39 l 378 536 l 279 536 q 152 574 199 536 q 86 674 106 613 q 67 808 67 736 q 88 939 67 883 q 156 1025 108 994 q 282 1056 204 1056 l 811 1056 l 811 997 l 793 997 q 736 990 763 997 q 694 963 710 983 q 679 897 679 942 l 679 4 q 694 -60 679 -39 q 736 -89 710 -82 q 793 -96 763 -96 l 811 -96 l 811 -154 l 594 -154 l 594 985 l 463 985 l 463 -154 l 246 -154 z "},"":{"ha":397,"x_min":115,"x_max":293,"o":"m 201 399 q 139 419 163 399 q 115 483 115 440 q 140 561 115 532 q 207 590 165 590 q 268 569 243 590 q 293 506 293 549 q 279 443 293 467 q 244 409 265 419 q 201 399 224 399 z "},"":{"ha":463,"x_min":49,"x_max":374,"o":"m 153 -333 q 101 -329 131 -333 q 49 -318 72 -325 l 64 -247 q 113 -256 88 -253 q 157 -258 139 -258 q 230 -238 200 -258 q 260 -174 260 -218 q 235 -119 260 -140 q 171 -96 211 -99 l 224 13 l 289 13 l 263 -47 q 343 -86 313 -54 q 374 -162 374 -118 q 344 -260 374 -222 q 264 -315 314 -297 q 153 -333 214 -333 z "},"":{"ha":556,"x_min":119,"x_max":497,"o":"m 119 538 l 129 585 l 193 585 q 235 594 217 585 q 261 638 254 603 l 346 1038 l 340 1038 q 294 1002 314 1015 q 259 983 275 989 q 222 976 243 976 q 188 992 200 976 q 178 1033 176 1008 q 235 1042 210 1036 q 288 1060 261 1049 q 346 1091 314 1072 q 422 1138 378 1110 l 492 1138 l 394 678 q 388 647 392 663 q 385 619 385 631 q 399 591 385 597 q 433 585 414 585 l 497 585 l 488 538 l 119 538 z "},"":{"ha":551,"x_min":93,"x_max":567,"o":"m 285 529 q 146 574 199 529 q 93 703 93 618 q 111 801 93 750 q 165 896 129 851 q 254 968 201 940 q 378 996 307 996 q 473 978 431 996 q 541 922 515 960 q 567 825 567 885 q 550 731 567 782 q 499 633 533 679 q 411 558 464 588 q 285 529 358 529 m 285 585 q 353 611 325 585 q 401 678 382 638 q 428 763 419 718 q 436 842 436 807 q 419 915 436 890 q 368 940 401 940 q 301 915 331 940 q 253 851 272 890 q 225 768 235 811 q 215 688 215 725 q 234 610 215 636 q 285 585 253 585 z "},"":{"ha":714,"x_min":33,"x_max":628,"o":"m 285 111 l 488 382 l 397 639 l 467 639 l 628 397 l 618 353 l 354 111 l 285 111 m 33 111 l 236 382 l 146 639 l 215 639 l 376 397 l 367 353 l 103 111 l 33 111 z "},"":{"ha":1211,"x_min":119,"x_max":1158,"o":"m 119 399 l 129 446 l 193 446 q 235 455 217 446 q 261 499 254 464 l 346 899 l 340 899 q 294 863 314 876 q 259 844 275 850 q 222 838 243 838 q 188 853 200 838 q 178 894 176 869 q 235 903 210 897 q 288 922 261 910 q 346 952 314 933 q 422 999 378 971 l 492 999 l 394 539 q 388 508 392 524 q 385 481 385 492 q 399 452 385 458 q 433 446 414 446 l 497 446 l 488 399 l 119 399 m 250 0 l 950 992 l 1044 992 l 347 0 l 250 0 m 756 0 l 765 47 l 804 47 q 847 56 828 47 q 872 100 865 65 l 889 176 l 643 176 l 650 224 l 990 600 l 1101 600 l 1025 236 l 1158 236 l 1146 176 l 1013 176 l 1001 126 q 997 101 999 114 q 994 82 994 89 q 1009 53 994 60 q 1043 47 1024 47 l 1071 47 l 1061 0 l 756 0 m 736 236 l 901 236 l 935 388 q 949 447 942 419 q 964 499 957 474 q 940 467 957 488 q 908 428 924 446 l 736 236 z "},"":{"ha":1211,"x_min":119,"x_max":1143,"o":"m 119 399 l 129 446 l 193 446 q 235 455 217 446 q 261 499 254 464 l 346 899 l 340 899 q 294 863 314 876 q 259 844 275 850 q 222 838 243 838 q 188 853 200 838 q 178 894 176 869 q 235 903 210 897 q 288 922 261 910 q 346 952 314 933 q 422 999 378 971 l 492 999 l 394 539 q 388 508 392 524 q 385 481 385 492 q 399 452 385 458 q 433 446 414 446 l 497 446 l 488 399 l 119 399 m 229 0 l 929 992 l 1024 992 l 326 0 l 229 0 m 649 -1 l 656 40 l 871 218 q 943 285 914 254 q 989 347 972 317 q 1013 407 1006 376 q 1021 471 1021 438 q 1006 526 1021 501 q 951 551 990 551 q 897 533 921 551 q 859 484 874 514 q 839 419 844 454 q 774 438 797 419 q 750 486 750 457 q 775 548 750 521 q 848 591 800 575 q 961 607 896 607 q 1094 571 1044 607 q 1143 475 1143 535 q 1126 397 1143 435 q 1068 314 1110 358 q 951 210 1026 269 l 785 78 l 976 78 q 1013 85 999 78 q 1035 106 1026 93 q 1050 135 1044 119 l 1061 164 l 1108 164 l 1069 -1 l 649 -1 z "},"":{"ha":1211,"x_min":93,"x_max":1158,"o":"m 275 389 q 140 418 188 389 q 93 496 93 447 q 116 552 93 533 q 172 571 139 571 q 183 517 172 544 q 219 470 194 489 q 285 451 244 451 q 352 464 322 451 q 399 503 382 476 q 417 575 417 531 q 386 648 417 617 q 290 679 356 679 l 244 679 l 256 736 l 301 736 q 408 775 361 736 q 456 885 456 814 q 440 931 456 913 q 392 950 425 950 q 312 914 339 950 q 275 829 285 878 q 208 842 233 829 q 183 888 183 854 q 209 947 183 921 q 282 990 235 974 q 396 1006 329 1006 q 538 969 492 1006 q 583 879 583 932 q 533 769 583 807 q 406 715 482 731 l 404 708 q 506 669 468 701 q 544 581 544 638 q 510 476 544 518 q 415 411 476 433 q 275 389 354 389 m 269 0 l 969 992 l 1064 992 l 367 0 l 269 0 m 756 0 l 765 47 l 804 47 q 847 56 828 47 q 872 100 865 65 l 889 176 l 643 176 l 650 224 l 990 600 l 1101 600 l 1025 236 l 1158 236 l 1146 176 l 1013 176 l 1001 126 q 997 101 999 114 q 994 82 994 89 q 1009 53 994 60 q 1043 47 1024 47 l 1071 47 l 1061 0 l 756 0 m 736 236 l 901 236 l 935 388 q 949 447 942 419 q 964 499 957 474 q 940 467 957 488 q 908 428 924 446 l 736 236 z "},"":{"ha":694,"x_min":1,"x_max":544,"o":"m 264 -264 q 72 -208 143 -264 q 1 -33 1 -153 q 47 110 1 47 q 169 219 92 172 q 343 301 246 267 l 382 463 l 458 463 l 419 257 q 272 184 335 226 q 173 85 208 142 q 138 -44 138 29 q 176 -156 138 -117 q 272 -194 214 -194 q 365 -167 331 -194 q 418 -95 400 -140 q 444 3 436 -50 q 519 -19 493 3 q 544 -81 544 -40 q 511 -171 544 -129 q 415 -238 478 -212 q 264 -264 353 -264 m 438 563 q 382 581 404 563 q 360 636 360 600 q 374 705 360 679 q 413 742 389 731 q 460 753 436 753 q 516 733 494 753 q 538 676 538 713 q 510 595 538 628 q 438 563 482 563 z "},"":{"ha":979,"x_min":-78,"x_max":913,"o":"m -78 0 l -67 58 l -40 58 q 6 67 -12 58 q 44 99 25 75 q 89 167 63 122 l 572 992 l 681 992 l 813 132 q 826 87 817 103 q 851 65 835 71 q 894 58 868 58 l 913 58 l 901 0 l 524 0 l 535 58 l 567 58 q 639 77 611 58 q 667 129 667 96 q 666 153 667 140 q 664 176 665 167 l 597 644 q 583 760 589 706 q 575 864 576 814 q 545 799 561 831 q 510 734 529 768 q 467 657 492 700 l 193 186 q 173 142 179 161 q 167 108 167 124 q 186 70 167 82 q 244 58 206 58 l 276 58 l 265 0 l -78 0 m 247 332 l 247 401 l 700 401 l 700 332 l 247 332 m 626 1071 q 579 1118 604 1092 q 531 1172 554 1144 q 485 1228 507 1200 q 447 1279 464 1256 l 451 1293 l 590 1293 q 617 1228 601 1265 q 651 1155 633 1192 q 683 1089 668 1118 l 679 1071 l 626 1071 z "},"":{"ha":979,"x_min":-78,"x_max":913,"o":"m -78 0 l -67 58 l -40 58 q 6 67 -12 58 q 44 99 25 75 q 89 167 63 122 l 572 992 l 681 992 l 813 132 q 826 87 817 103 q 851 65 835 71 q 894 58 868 58 l 913 58 l 901 0 l 524 0 l 535 58 l 567 58 q 639 77 611 58 q 667 129 667 96 q 666 153 667 140 q 664 176 665 167 l 597 644 q 583 760 589 706 q 575 864 576 814 q 545 799 561 831 q 510 734 529 768 q 467 657 492 700 l 193 186 q 173 142 179 161 q 167 108 167 124 q 186 70 167 82 q 244 58 206 58 l 276 58 l 265 0 l -78 0 m 247 332 l 247 401 l 700 401 l 700 332 l 247 332 m 564 1071 l 568 1089 q 619 1151 593 1117 q 671 1223 646 1186 q 717 1293 696 1260 l 865 1293 l 861 1279 q 817 1231 844 1258 q 755 1173 789 1203 q 686 1117 721 1143 q 619 1071 651 1090 l 564 1071 z "},"":{"ha":979,"x_min":-78,"x_max":913,"o":"m -78 0 l -67 58 l -40 58 q 6 67 -12 58 q 44 99 25 75 q 89 167 63 122 l 572 992 l 681 992 l 813 132 q 826 87 817 103 q 851 65 835 71 q 894 58 868 58 l 913 58 l 901 0 l 524 0 l 535 58 l 567 58 q 639 77 611 58 q 667 129 667 96 q 666 153 667 140 q 664 176 665 167 l 597 644 q 583 760 589 706 q 575 864 576 814 q 545 799 561 831 q 510 734 529 768 q 467 657 492 700 l 193 186 q 173 142 179 161 q 167 108 167 124 q 186 70 167 82 q 244 58 206 58 l 276 58 l 265 0 l -78 0 m 247 332 l 247 401 l 700 401 l 700 332 l 247 332 m 418 1089 q 480 1151 446 1115 q 547 1225 514 1188 q 601 1293 581 1263 l 733 1293 q 758 1225 742 1263 q 793 1151 774 1188 q 828 1089 813 1115 l 824 1071 l 775 1071 q 730 1107 753 1086 q 688 1151 707 1128 q 651 1196 668 1174 q 597 1151 626 1174 q 535 1107 567 1128 q 474 1071 504 1086 l 414 1071 l 418 1089 z "},"":{"ha":979,"x_min":-78,"x_max":918,"o":"m -78 0 l -67 58 l -40 58 q 6 67 -12 58 q 44 99 25 75 q 89 167 63 122 l 572 992 l 681 992 l 813 132 q 826 87 817 103 q 851 65 835 71 q 894 58 868 58 l 913 58 l 901 0 l 524 0 l 535 58 l 567 58 q 639 77 611 58 q 667 129 667 96 q 666 153 667 140 q 664 176 665 167 l 597 644 q 583 760 589 706 q 575 864 576 814 q 545 799 561 831 q 510 734 529 768 q 467 657 492 700 l 193 186 q 173 142 179 161 q 167 108 167 124 q 186 70 167 82 q 244 58 206 58 l 276 58 l 265 0 l -78 0 m 247 332 l 247 401 l 700 401 l 700 332 l 247 332 m 738 1071 q 672 1084 700 1071 q 622 1115 644 1097 q 580 1145 600 1132 q 538 1158 560 1158 q 481 1135 496 1158 q 454 1085 465 1113 l 392 1085 q 428 1165 404 1128 q 488 1225 451 1201 q 574 1249 524 1249 q 638 1235 611 1249 q 688 1205 665 1222 q 730 1174 710 1188 q 772 1161 750 1161 q 829 1184 813 1161 q 856 1235 846 1207 l 918 1235 q 883 1156 907 1193 q 824 1094 860 1118 q 738 1071 788 1071 z "},"":{"ha":979,"x_min":-78,"x_max":913,"o":"m -78 0 l -67 58 l -40 58 q 6 67 -12 58 q 44 99 25 75 q 89 167 63 122 l 572 992 l 681 992 l 813 132 q 826 87 817 103 q 851 65 835 71 q 894 58 868 58 l 913 58 l 901 0 l 524 0 l 535 58 l 567 58 q 639 77 611 58 q 667 129 667 96 q 666 153 667 140 q 664 176 665 167 l 597 644 q 583 760 589 706 q 575 864 576 814 q 545 799 561 831 q 510 734 529 768 q 467 657 492 700 l 193 186 q 173 142 179 161 q 167 108 167 124 q 186 70 167 82 q 244 58 206 58 l 276 58 l 265 0 l -78 0 m 247 332 l 247 401 l 700 401 l 700 332 l 247 332 m 776 1107 q 726 1124 746 1107 q 707 1176 707 1142 q 727 1240 707 1217 q 782 1264 747 1264 q 832 1247 813 1264 q 851 1194 851 1231 q 828 1126 851 1146 q 776 1107 804 1107 m 513 1107 q 463 1124 482 1107 q 443 1176 443 1142 q 463 1240 443 1217 q 518 1264 483 1264 q 568 1247 549 1264 q 588 1194 588 1231 q 564 1126 588 1146 q 513 1107 540 1107 z "},"":{"ha":979,"x_min":-78,"x_max":913,"o":"m -78 0 l -67 58 l -40 58 q 6 67 -12 58 q 44 99 25 75 q 89 167 63 122 l 572 992 l 681 992 l 813 132 q 826 87 817 103 q 851 65 835 71 q 894 58 868 58 l 913 58 l 901 0 l 524 0 l 535 58 l 567 58 q 639 77 611 58 q 667 129 667 96 q 666 153 667 140 q 664 176 665 167 l 597 644 q 583 760 589 706 q 575 864 576 814 q 545 799 561 831 q 510 734 529 768 q 467 657 492 700 l 193 186 q 173 142 179 161 q 167 108 167 124 q 186 70 167 82 q 244 58 206 58 l 276 58 l 265 0 l -78 0 m 247 332 l 247 401 l 700 401 l 700 332 l 247 332 m 619 924 q 501 963 550 924 q 453 1075 453 1001 q 501 1188 453 1149 q 619 1226 550 1226 q 738 1188 689 1226 q 786 1075 786 1149 q 738 963 786 1001 q 619 924 689 924 m 619 992 q 684 1011 657 992 q 711 1075 711 1031 q 684 1139 711 1119 q 619 1158 657 1158 q 555 1139 582 1158 q 528 1075 528 1119 q 555 1011 528 1031 q 619 992 582 992 z "},"":{"ha":1321,"x_min":-81,"x_max":1336,"o":"m -81 0 l -67 58 l -40 58 q -5 63 -21 58 q 26 79 11 68 q 60 112 42 90 q 103 167 78 133 l 656 925 l 538 933 l 550 992 l 1336 992 l 1292 749 l 1219 749 q 1222 774 1221 756 q 1225 809 1224 792 q 1226 829 1226 826 q 1204 895 1226 868 q 1128 922 1182 922 l 894 922 l 815 553 l 1150 553 l 1136 485 l 801 485 l 713 69 l 981 69 q 1056 85 1025 69 q 1106 127 1086 101 q 1138 183 1126 153 l 1160 243 l 1232 243 l 1171 0 l 426 0 l 438 58 l 456 58 q 514 65 486 58 q 562 90 542 71 q 590 151 582 110 l 628 332 l 314 332 l 210 186 q 182 142 192 163 q 172 104 172 121 q 188 69 172 81 q 243 58 204 58 l 272 58 l 261 0 l -81 0 m 365 401 l 643 401 l 753 922 l 726 922 q 678 843 707 889 q 615 749 649 797 q 550 657 582 700 l 365 401 z "},"":{"ha":871,"x_min":72,"x_max":901,"o":"m 456 -14 q 249 30 335 -14 q 118 157 164 74 q 72 358 72 240 q 113 598 72 482 q 228 806 153 714 q 410 951 304 897 q 644 1006 515 1006 q 835 963 768 1006 q 901 851 901 921 q 864 772 901 801 q 765 743 826 743 q 760 805 765 772 q 741 867 756 838 q 699 914 726 896 q 626 932 672 932 q 487 895 550 932 q 374 797 424 858 q 292 657 325 735 q 241 497 258 579 q 224 336 224 414 q 251 196 224 254 q 334 107 279 138 q 471 76 389 76 q 631 116 569 76 q 728 203 693 156 q 741 185 736 197 q 746 157 746 172 q 716 81 746 121 q 622 13 686 40 q 456 -14 558 -14 m 331 -333 q 279 -329 308 -333 q 226 -318 250 -325 l 242 -247 q 291 -256 265 -253 q 335 -258 317 -258 q 408 -238 378 -258 q 438 -174 438 -218 q 413 -119 438 -140 q 349 -96 389 -99 l 401 13 l 467 13 l 440 -47 q 521 -86 490 -54 q 551 -162 551 -118 q 522 -260 551 -222 q 442 -315 492 -297 q 331 -333 392 -333 z "},"":{"ha":865,"x_min":-29,"x_max":881,"o":"m -29 0 l -18 58 l 0 58 q 58 65 31 58 q 106 90 85 71 q 135 151 126 110 l 279 833 q 283 851 282 843 q 283 867 283 860 q 255 922 283 911 q 186 933 226 933 l 168 933 l 181 992 l 881 992 l 836 749 l 764 749 q 767 774 765 756 q 769 809 768 792 q 771 829 771 826 q 749 895 771 868 q 672 922 726 922 l 439 922 l 360 553 l 694 553 l 681 485 l 346 485 l 257 69 l 525 69 q 600 85 569 69 q 651 127 631 101 q 682 183 671 153 l 704 243 l 776 243 l 715 0 l -29 0 m 576 1071 q 529 1118 554 1092 q 481 1172 504 1144 q 435 1228 457 1200 q 397 1279 414 1256 l 401 1293 l 540 1293 q 567 1228 551 1265 q 601 1155 583 1192 q 633 1089 618 1118 l 629 1071 l 576 1071 z "},"":{"ha":865,"x_min":-29,"x_max":881,"o":"m -29 0 l -18 58 l 0 58 q 58 65 31 58 q 106 90 85 71 q 135 151 126 110 l 279 833 q 283 851 282 843 q 283 867 283 860 q 255 922 283 911 q 186 933 226 933 l 168 933 l 181 992 l 881 992 l 836 749 l 764 749 q 767 774 765 756 q 769 809 768 792 q 771 829 771 826 q 749 895 771 868 q 672 922 726 922 l 439 922 l 360 553 l 694 553 l 681 485 l 346 485 l 257 69 l 525 69 q 600 85 569 69 q 651 127 631 101 q 682 183 671 153 l 704 243 l 776 243 l 715 0 l -29 0 m 488 1071 l 492 1089 q 543 1151 517 1117 q 594 1223 569 1186 q 640 1293 619 1260 l 789 1293 l 785 1279 q 740 1231 768 1258 q 678 1173 713 1203 q 610 1117 644 1143 q 543 1071 575 1090 l 488 1071 z "},"":{"ha":865,"x_min":-29,"x_max":881,"o":"m -29 0 l -18 58 l 0 58 q 58 65 31 58 q 106 90 85 71 q 135 151 126 110 l 279 833 q 283 851 282 843 q 283 867 283 860 q 255 922 283 911 q 186 933 226 933 l 168 933 l 181 992 l 881 992 l 836 749 l 764 749 q 767 774 765 756 q 769 809 768 792 q 771 829 771 826 q 749 895 771 868 q 672 922 726 922 l 439 922 l 360 553 l 694 553 l 681 485 l 346 485 l 257 69 l 525 69 q 600 85 569 69 q 651 127 631 101 q 682 183 671 153 l 704 243 l 776 243 l 715 0 l -29 0 m 374 1089 q 435 1151 401 1115 q 503 1225 469 1188 q 557 1293 536 1263 l 689 1293 q 713 1225 697 1263 q 749 1151 729 1188 q 783 1089 768 1115 l 779 1071 l 731 1071 q 685 1107 708 1086 q 643 1151 663 1128 q 607 1196 624 1174 q 552 1151 582 1174 q 491 1107 522 1128 q 429 1071 460 1086 l 369 1071 l 374 1089 z "},"":{"ha":865,"x_min":-29,"x_max":881,"o":"m -29 0 l -18 58 l 0 58 q 58 65 31 58 q 106 90 85 71 q 135 151 126 110 l 279 833 q 283 851 282 843 q 283 867 283 860 q 255 922 283 911 q 186 933 226 933 l 168 933 l 181 992 l 881 992 l 836 749 l 764 749 q 767 774 765 756 q 769 809 768 792 q 771 829 771 826 q 749 895 771 868 q 672 922 726 922 l 439 922 l 360 553 l 694 553 l 681 485 l 346 485 l 257 69 l 525 69 q 600 85 569 69 q 651 127 631 101 q 682 183 671 153 l 704 243 l 776 243 l 715 0 l -29 0 m 700 1107 q 650 1124 669 1107 q 631 1176 631 1142 q 651 1240 631 1217 q 706 1264 671 1264 q 756 1247 736 1264 q 775 1194 775 1231 q 751 1126 775 1146 q 700 1107 728 1107 m 436 1107 q 386 1124 406 1107 q 367 1176 367 1142 q 387 1240 367 1217 q 442 1264 407 1264 q 492 1247 472 1264 q 511 1194 511 1231 q 488 1126 511 1146 q 436 1107 464 1107 z "},"":{"ha":510,"x_min":-29,"x_max":585,"o":"m -29 0 l -18 58 l 0 58 q 59 65 32 58 q 107 94 86 72 q 136 158 128 115 l 281 839 q 285 860 283 847 q 286 878 286 872 q 258 924 286 914 q 186 933 231 933 l 168 933 l 181 992 l 585 992 l 572 933 l 554 933 q 496 926 524 933 q 449 899 468 919 q 419 833 429 878 l 275 153 q 272 133 274 144 q 269 114 269 121 q 298 69 269 79 q 369 58 326 58 l 388 58 l 375 0 l -29 0 m 411 1071 q 364 1118 389 1092 q 315 1172 339 1144 q 270 1228 292 1200 q 232 1279 249 1256 l 236 1293 l 375 1293 q 402 1228 386 1265 q 435 1155 418 1192 q 468 1089 453 1118 l 464 1071 l 411 1071 z "},"":{"ha":510,"x_min":-29,"x_max":619,"o":"m -29 0 l -18 58 l 0 58 q 59 65 32 58 q 107 94 86 72 q 136 158 128 115 l 281 839 q 285 860 283 847 q 286 878 286 872 q 258 924 286 914 q 186 933 231 933 l 168 933 l 181 992 l 585 992 l 572 933 l 554 933 q 496 926 524 933 q 449 899 468 919 q 419 833 429 878 l 275 153 q 272 133 274 144 q 269 114 269 121 q 298 69 269 79 q 369 58 326 58 l 388 58 l 375 0 l -29 0 m 318 1071 l 322 1089 q 374 1151 347 1117 q 425 1223 400 1186 q 471 1293 450 1260 l 619 1293 l 615 1279 q 571 1231 599 1258 q 509 1173 543 1203 q 440 1117 475 1143 q 374 1071 406 1090 l 318 1071 z "},"":{"ha":510,"x_min":-29,"x_max":599,"o":"m -29 0 l -18 58 l 0 58 q 59 65 32 58 q 107 94 86 72 q 136 158 128 115 l 281 839 q 285 860 283 847 q 286 878 286 872 q 258 924 286 914 q 186 933 231 933 l 168 933 l 181 992 l 585 992 l 572 933 l 554 933 q 496 926 524 933 q 449 899 468 919 q 419 833 429 878 l 275 153 q 272 133 274 144 q 269 114 269 121 q 298 69 269 79 q 369 58 326 58 l 388 58 l 375 0 l -29 0 m 189 1089 q 251 1151 217 1115 q 318 1225 285 1188 q 372 1293 351 1263 l 504 1293 q 528 1225 513 1263 q 564 1151 544 1188 q 599 1089 583 1115 l 594 1071 l 546 1071 q 501 1107 524 1086 q 458 1151 478 1128 q 422 1196 439 1174 q 367 1151 397 1174 q 306 1107 338 1128 q 244 1071 275 1086 l 185 1071 l 189 1089 z "},"":{"ha":510,"x_min":-29,"x_max":613,"o":"m -29 0 l -18 58 l 0 58 q 59 65 32 58 q 107 94 86 72 q 136 158 128 115 l 281 839 q 285 860 283 847 q 286 878 286 872 q 258 924 286 914 q 186 933 231 933 l 168 933 l 181 992 l 585 992 l 572 933 l 554 933 q 496 926 524 933 q 449 899 468 919 q 419 833 429 878 l 275 153 q 272 133 274 144 q 269 114 269 121 q 298 69 269 79 q 369 58 326 58 l 388 58 l 375 0 l -29 0 m 538 1107 q 488 1124 507 1107 q 468 1176 468 1142 q 488 1240 468 1217 q 543 1264 508 1264 q 593 1247 574 1264 q 613 1194 613 1231 q 589 1126 613 1146 q 538 1107 565 1107 m 274 1107 q 224 1124 243 1107 q 204 1176 204 1142 q 224 1240 204 1217 q 279 1264 244 1264 q 329 1247 310 1264 q 349 1194 349 1231 q 325 1126 349 1146 q 274 1107 301 1107 z "},"":{"ha":1007,"x_min":-29,"x_max":964,"o":"m 71 485 l 86 553 l 594 553 l 579 485 l 71 485 m -29 0 l -18 58 l 0 58 q 59 65 32 58 q 107 94 86 72 q 136 158 128 115 l 281 839 q 285 859 283 849 q 286 878 286 869 q 255 924 286 915 q 186 933 224 933 l 168 933 l 181 992 l 569 992 q 860 895 757 992 q 964 614 964 799 q 928 379 964 490 q 821 183 892 268 q 647 49 750 97 q 408 0 543 0 l -29 0 m 378 71 q 561 112 481 71 q 698 227 642 153 q 783 404 754 301 q 813 629 813 507 q 741 852 813 782 q 549 922 669 922 l 439 922 l 257 71 l 378 71 z "},"":{"ha":1060,"x_min":-28,"x_max":1149,"o":"m -28 0 l -15 58 l 3 58 q 60 65 33 58 q 107 94 88 72 q 136 158 126 115 l 281 839 q 285 860 283 847 q 286 878 286 872 q 258 924 286 914 q 186 933 231 933 l 168 933 l 181 992 l 433 992 l 769 225 l 900 839 q 904 860 903 847 q 906 878 906 872 q 878 924 906 914 q 806 933 850 933 l 788 933 l 800 992 l 1149 992 l 1136 933 l 1118 933 q 1060 926 1088 933 q 1013 899 1033 919 q 983 833 993 878 l 807 0 l 717 0 l 360 814 l 219 153 q 216 133 218 144 q 214 114 214 121 q 242 69 214 79 q 314 58 271 58 l 332 58 l 319 0 l -28 0 m 796 1071 q 731 1084 758 1071 q 681 1115 703 1097 q 638 1145 658 1132 q 596 1158 618 1158 q 539 1135 554 1158 q 513 1085 524 1113 l 450 1085 q 486 1165 463 1128 q 546 1225 510 1201 q 632 1249 582 1249 q 697 1235 669 1249 q 746 1205 724 1222 q 788 1174 768 1188 q 831 1161 808 1161 q 888 1184 871 1161 q 914 1235 904 1207 l 976 1235 q 942 1156 965 1193 q 882 1094 918 1118 q 796 1071 846 1071 z "},"":{"ha":1031,"x_min":72,"x_max":988,"o":"m 436 -15 q 251 28 333 -15 q 120 158 168 72 q 72 369 72 244 q 94 538 72 450 q 162 708 117 625 q 274 859 207 792 q 429 967 340 926 q 628 1007 518 1007 q 806 967 724 1007 q 938 842 888 926 q 988 625 988 758 q 966 461 988 549 q 901 290 944 374 q 791 136 857 206 q 636 26 725 67 q 436 -15 547 -15 m 444 61 q 588 101 525 61 q 698 208 651 142 q 775 353 744 274 q 820 514 806 433 q 835 663 835 594 q 806 816 835 757 q 729 903 778 875 q 617 932 681 932 q 472 892 536 932 q 362 785 408 851 q 285 640 315 719 q 239 479 254 560 q 224 331 224 399 q 253 176 224 236 q 333 89 282 117 q 444 61 383 61 m 693 1071 q 646 1118 671 1092 q 597 1172 621 1144 q 552 1228 574 1200 q 514 1279 531 1256 l 518 1293 l 657 1293 q 684 1228 668 1265 q 717 1155 700 1192 q 750 1089 735 1118 l 746 1071 l 693 1071 z "},"":{"ha":1031,"x_min":72,"x_max":988,"o":"m 436 -15 q 251 28 333 -15 q 120 158 168 72 q 72 369 72 244 q 94 538 72 450 q 162 708 117 625 q 274 859 207 792 q 429 967 340 926 q 628 1007 518 1007 q 806 967 724 1007 q 938 842 888 926 q 988 625 988 758 q 966 461 988 549 q 901 290 944 374 q 791 136 857 206 q 636 26 725 67 q 436 -15 547 -15 m 444 61 q 588 101 525 61 q 698 208 651 142 q 775 353 744 274 q 820 514 806 433 q 835 663 835 594 q 806 816 835 757 q 729 903 778 875 q 617 932 681 932 q 472 892 536 932 q 362 785 408 851 q 285 640 315 719 q 239 479 254 560 q 224 331 224 399 q 253 176 224 236 q 333 89 282 117 q 444 61 383 61 m 557 1071 l 561 1089 q 613 1151 586 1117 q 664 1223 639 1186 q 710 1293 689 1260 l 858 1293 l 854 1279 q 810 1231 838 1258 q 748 1173 782 1203 q 679 1117 714 1143 q 613 1071 644 1090 l 557 1071 z "},"":{"ha":1031,"x_min":72,"x_max":988,"o":"m 436 -15 q 251 28 333 -15 q 120 158 168 72 q 72 369 72 244 q 94 538 72 450 q 162 708 117 625 q 274 859 207 792 q 429 967 340 926 q 628 1007 518 1007 q 806 967 724 1007 q 938 842 888 926 q 988 625 988 758 q 966 461 988 549 q 901 290 944 374 q 791 136 857 206 q 636 26 725 67 q 436 -15 547 -15 m 444 61 q 588 101 525 61 q 698 208 651 142 q 775 353 744 274 q 820 514 806 433 q 835 663 835 594 q 806 816 835 757 q 729 903 778 875 q 617 932 681 932 q 472 892 536 932 q 362 785 408 851 q 285 640 315 719 q 239 479 254 560 q 224 331 224 399 q 253 176 224 236 q 333 89 282 117 q 444 61 383 61 m 433 1089 q 495 1151 461 1115 q 563 1225 529 1188 q 617 1293 596 1263 l 749 1293 q 773 1225 757 1263 q 808 1151 789 1188 q 843 1089 828 1115 l 839 1071 l 790 1071 q 745 1107 768 1086 q 703 1151 722 1128 q 667 1196 683 1174 q 612 1151 642 1174 q 551 1107 582 1128 q 489 1071 519 1086 l 429 1071 l 433 1089 z "},"":{"ha":1031,"x_min":72,"x_max":988,"o":"m 436 -15 q 251 28 333 -15 q 120 158 168 72 q 72 369 72 244 q 94 538 72 450 q 162 708 117 625 q 274 859 207 792 q 429 967 340 926 q 628 1007 518 1007 q 806 967 724 1007 q 938 842 888 926 q 988 625 988 758 q 966 461 988 549 q 901 290 944 374 q 791 136 857 206 q 636 26 725 67 q 436 -15 547 -15 m 444 61 q 588 101 525 61 q 698 208 651 142 q 775 353 744 274 q 820 514 806 433 q 835 663 835 594 q 806 816 835 757 q 729 903 778 875 q 617 932 681 932 q 472 892 536 932 q 362 785 408 851 q 285 640 315 719 q 239 479 254 560 q 224 331 224 399 q 253 176 224 236 q 333 89 282 117 q 444 61 383 61 m 744 1071 q 679 1084 707 1071 q 629 1115 651 1097 q 587 1145 607 1132 q 544 1158 567 1158 q 488 1135 503 1158 q 461 1085 472 1113 l 399 1085 q 435 1165 411 1128 q 494 1225 458 1201 q 581 1249 531 1249 q 645 1235 618 1249 q 694 1205 672 1222 q 737 1174 717 1188 q 779 1161 757 1161 q 836 1184 819 1161 q 863 1235 853 1207 l 925 1235 q 890 1156 914 1193 q 831 1094 867 1118 q 744 1071 794 1071 z "},"":{"ha":1031,"x_min":72,"x_max":988,"o":"m 436 -15 q 251 28 333 -15 q 120 158 168 72 q 72 369 72 244 q 94 538 72 450 q 162 708 117 625 q 274 859 207 792 q 429 967 340 926 q 628 1007 518 1007 q 806 967 724 1007 q 938 842 888 926 q 988 625 988 758 q 966 461 988 549 q 901 290 944 374 q 791 136 857 206 q 636 26 725 67 q 436 -15 547 -15 m 444 61 q 588 101 525 61 q 698 208 651 142 q 775 353 744 274 q 820 514 806 433 q 835 663 835 594 q 806 816 835 757 q 729 903 778 875 q 617 932 681 932 q 472 892 536 932 q 362 785 408 851 q 285 640 315 719 q 239 479 254 560 q 224 331 224 399 q 253 176 224 236 q 333 89 282 117 q 444 61 383 61 m 793 1107 q 743 1124 763 1107 q 724 1176 724 1142 q 744 1240 724 1217 q 799 1264 764 1264 q 849 1247 829 1264 q 868 1194 868 1231 q 844 1126 868 1146 q 793 1107 821 1107 m 529 1107 q 479 1124 499 1107 q 460 1176 460 1142 q 480 1240 460 1217 q 535 1264 500 1264 q 585 1247 565 1264 q 604 1194 604 1231 q 581 1126 604 1146 q 529 1107 557 1107 z "},"":{"ha":776,"x_min":99,"x_max":676,"o":"m 157 208 l 99 268 l 329 499 l 99 728 l 157 786 l 388 556 l 618 788 l 676 728 l 446 497 l 676 267 l 618 208 l 388 439 l 157 208 z "},"":{"ha":1031,"x_min":72,"x_max":988,"o":"m 93 -56 l 897 1049 l 978 1049 l 175 -56 l 93 -56 m 436 -15 q 251 28 333 -15 q 120 158 168 72 q 72 369 72 244 q 94 538 72 450 q 162 708 117 625 q 274 859 207 792 q 429 967 340 926 q 628 1007 518 1007 q 806 967 724 1007 q 938 842 888 926 q 988 625 988 758 q 966 461 988 549 q 901 290 944 374 q 791 136 857 206 q 636 26 725 67 q 436 -15 547 -15 m 444 61 q 588 101 525 61 q 698 208 651 142 q 775 353 744 274 q 820 514 806 433 q 835 663 835 594 q 806 816 835 757 q 729 903 778 875 q 617 932 681 932 q 472 892 536 932 q 362 785 408 851 q 285 640 315 719 q 239 479 254 560 q 224 331 224 399 q 253 176 224 236 q 333 89 282 117 q 444 61 383 61 z "},"":{"ha":1014,"x_min":133,"x_max":1106,"o":"m 449 -14 q 215 49 297 -14 q 133 226 133 113 q 138 288 133 249 q 149 350 143 326 l 251 839 q 256 860 254 847 q 257 878 257 872 q 229 924 257 914 q 157 933 201 933 l 139 933 l 151 992 l 556 992 l 544 933 l 526 933 q 469 926 496 933 q 421 899 442 919 q 390 833 400 878 l 286 343 q 274 276 279 308 q 269 214 269 243 q 322 106 269 143 q 469 69 375 69 q 614 98 560 69 q 697 176 668 126 q 739 286 726 225 l 857 839 q 861 860 860 847 q 863 878 863 872 q 835 924 863 914 q 763 933 807 933 l 744 933 l 757 992 l 1106 992 l 1094 933 l 1076 933 q 1019 926 1046 933 q 971 899 992 919 q 940 833 950 878 l 824 283 q 758 125 804 192 q 636 22 713 58 q 449 -14 560 -14 m 665 1071 q 618 1118 643 1092 q 569 1172 593 1144 q 524 1228 546 1200 q 486 1279 503 1256 l 490 1293 l 629 1293 q 656 1228 640 1265 q 690 1155 672 1192 q 722 1089 707 1118 l 718 1071 l 665 1071 z "},"":{"ha":1014,"x_min":133,"x_max":1106,"o":"m 449 -14 q 215 49 297 -14 q 133 226 133 113 q 138 288 133 249 q 149 350 143 326 l 251 839 q 256 860 254 847 q 257 878 257 872 q 229 924 257 914 q 157 933 201 933 l 139 933 l 151 992 l 556 992 l 544 933 l 526 933 q 469 926 496 933 q 421 899 442 919 q 390 833 400 878 l 286 343 q 274 276 279 308 q 269 214 269 243 q 322 106 269 143 q 469 69 375 69 q 614 98 560 69 q 697 176 668 126 q 739 286 726 225 l 857 839 q 861 860 860 847 q 863 878 863 872 q 835 924 863 914 q 763 933 807 933 l 744 933 l 757 992 l 1106 992 l 1094 933 l 1076 933 q 1019 926 1046 933 q 971 899 992 919 q 940 833 950 878 l 824 283 q 758 125 804 192 q 636 22 713 58 q 449 -14 560 -14 m 582 1071 l 586 1089 q 638 1151 611 1117 q 689 1223 664 1186 q 735 1293 714 1260 l 883 1293 l 879 1279 q 835 1231 863 1258 q 773 1173 807 1203 q 704 1117 739 1143 q 638 1071 669 1090 l 582 1071 z "},"":{"ha":1014,"x_min":133,"x_max":1106,"o":"m 449 -14 q 215 49 297 -14 q 133 226 133 113 q 138 288 133 249 q 149 350 143 326 l 251 839 q 256 860 254 847 q 257 878 257 872 q 229 924 257 914 q 157 933 201 933 l 139 933 l 151 992 l 556 992 l 544 933 l 526 933 q 469 926 496 933 q 421 899 442 919 q 390 833 400 878 l 286 343 q 274 276 279 308 q 269 214 269 243 q 322 106 269 143 q 469 69 375 69 q 614 98 560 69 q 697 176 668 126 q 739 286 726 225 l 857 839 q 861 860 860 847 q 863 878 863 872 q 835 924 863 914 q 763 933 807 933 l 744 933 l 757 992 l 1106 992 l 1094 933 l 1076 933 q 1019 926 1046 933 q 971 899 992 919 q 940 833 950 878 l 824 283 q 758 125 804 192 q 636 22 713 58 q 449 -14 560 -14 m 461 1089 q 523 1151 489 1115 q 590 1225 557 1188 q 644 1293 624 1263 l 776 1293 q 801 1225 785 1263 q 836 1151 817 1188 q 871 1089 856 1115 l 867 1071 l 818 1071 q 773 1107 796 1086 q 731 1151 750 1128 q 694 1196 711 1174 q 640 1151 669 1174 q 578 1107 610 1128 q 517 1071 547 1086 l 457 1071 l 461 1089 z "},"":{"ha":1014,"x_min":133,"x_max":1106,"o":"m 449 -14 q 215 49 297 -14 q 133 226 133 113 q 138 288 133 249 q 149 350 143 326 l 251 839 q 256 860 254 847 q 257 878 257 872 q 229 924 257 914 q 157 933 201 933 l 139 933 l 151 992 l 556 992 l 544 933 l 526 933 q 469 926 496 933 q 421 899 442 919 q 390 833 400 878 l 286 343 q 274 276 279 308 q 269 214 269 243 q 322 106 269 143 q 469 69 375 69 q 614 98 560 69 q 697 176 668 126 q 739 286 726 225 l 857 839 q 861 860 860 847 q 863 878 863 872 q 835 924 863 914 q 763 933 807 933 l 744 933 l 757 992 l 1106 992 l 1094 933 l 1076 933 q 1019 926 1046 933 q 971 899 992 919 q 940 833 950 878 l 824 283 q 758 125 804 192 q 636 22 713 58 q 449 -14 560 -14 m 789 1107 q 739 1124 758 1107 q 719 1176 719 1142 q 740 1240 719 1217 q 794 1264 760 1264 q 844 1247 825 1264 q 864 1194 864 1231 q 840 1126 864 1146 q 789 1107 817 1107 m 525 1107 q 475 1124 494 1107 q 456 1176 456 1142 q 476 1240 456 1217 q 531 1264 496 1264 q 581 1247 561 1264 q 600 1194 600 1231 q 576 1126 600 1146 q 525 1107 553 1107 z "},"":{"ha":868,"x_min":107,"x_max":999,"o":"m 138 0 l 150 58 l 182 58 q 240 65 213 58 q 287 90 267 71 q 315 151 307 110 l 369 407 l 208 860 q 190 902 199 886 q 167 926 181 918 q 125 933 153 933 l 107 933 l 119 992 l 494 992 l 482 933 l 413 933 q 370 924 385 933 q 356 896 356 914 q 358 872 356 885 q 364 845 360 858 q 374 815 368 832 l 436 629 q 462 542 451 586 q 474 463 472 497 q 517 528 489 492 q 582 614 544 564 l 711 786 q 740 829 729 810 q 756 866 750 849 q 761 897 761 883 q 747 925 761 917 q 694 933 732 933 l 643 933 l 656 992 l 999 992 l 986 933 l 960 933 q 920 922 939 933 q 881 886 901 910 q 833 828 860 863 l 510 404 l 456 153 q 452 133 454 144 q 450 114 450 121 q 478 69 450 79 q 550 58 507 58 l 582 58 l 569 0 l 138 0 m 518 1071 l 522 1089 q 574 1151 547 1117 q 625 1223 600 1186 q 671 1293 650 1260 l 819 1293 l 815 1279 q 771 1231 799 1258 q 709 1173 743 1203 q 640 1117 675 1143 q 574 1071 606 1090 l 518 1071 z "},"":{"ha":839,"x_min":-28,"x_max":815,"o":"m -28 0 l -15 58 l 3 58 q 60 65 33 58 q 108 94 88 72 q 136 158 128 115 l 281 839 q 285 860 283 847 q 286 878 286 872 q 258 924 286 914 q 186 933 231 933 l 168 933 l 181 992 l 599 992 l 586 933 l 554 933 q 496 927 524 933 q 449 899 468 921 q 419 833 429 878 l 417 819 l 499 819 q 730 751 644 819 q 815 551 815 683 q 799 440 815 499 q 737 331 782 382 q 608 247 692 279 q 390 214 524 214 l 288 214 l 275 153 q 272 133 274 144 q 269 114 269 121 q 298 69 269 79 q 369 58 326 58 l 401 58 l 389 0 l -28 0 m 375 279 q 547 314 483 279 q 640 410 611 349 q 668 550 668 471 q 616 706 668 660 q 465 753 564 753 l 401 753 l 301 279 l 375 279 z "},"":{"ha":871,"x_min":-189,"x_max":833,"o":"m -108 -333 q -152 -330 -129 -333 q -189 -322 -175 -326 l -176 -258 q -147 -265 -165 -261 q -112 -268 -128 -268 q -35 -242 -67 -268 q 19 -160 -4 -217 q 63 -12 43 -104 l 210 679 l 97 679 l 111 744 l 224 744 l 233 786 q 282 915 250 863 q 360 1001 314 968 q 461 1048 406 1033 q 581 1063 517 1063 q 724 1036 668 1063 q 807 962 781 1010 q 833 850 833 914 q 828 771 833 815 q 814 682 824 726 l 694 682 q 609 668 643 682 q 558 628 575 654 q 542 568 542 603 q 565 497 542 529 q 657 425 589 465 q 731 367 703 399 q 774 297 760 335 q 788 217 788 260 q 756 92 788 144 q 665 13 725 40 q 519 -14 606 -14 q 365 24 421 -14 q 308 128 308 63 q 339 194 308 171 q 413 218 369 218 q 422 141 413 179 q 456 78 431 103 q 529 53 481 53 q 626 87 588 53 q 665 185 665 121 q 646 262 665 222 q 560 340 626 301 q 487 395 518 367 q 438 459 456 424 q 421 539 421 494 q 439 631 421 592 q 492 697 457 671 q 578 735 526 722 q 697 747 631 747 q 708 810 704 781 q 713 863 713 839 q 698 935 713 904 q 653 983 683 967 q 576 1000 624 1000 q 438 948 488 1000 q 368 806 388 896 l 193 -11 q 145 -166 174 -104 q 79 -265 117 -228 q -5 -317 42 -301 q -108 -333 -51 -333 z "},"":{"ha":804,"x_min":60,"x_max":797,"o":"m 239 -14 q 138 19 178 -14 q 78 110 97 53 q 60 240 60 168 q 77 377 60 306 q 129 516 94 449 q 214 638 164 583 q 329 726 264 693 q 474 758 394 758 q 537 752 507 758 q 592 735 567 746 q 636 708 618 724 l 697 743 l 742 743 l 647 299 q 639 254 644 283 q 630 194 633 225 q 626 144 626 164 q 638 92 626 110 q 672 74 650 74 q 721 84 696 74 q 772 110 746 94 l 797 69 q 744 32 778 51 q 674 -1 711 13 q 601 -14 636 -14 q 522 17 551 -14 q 493 101 493 47 q 497 152 493 129 q 507 210 500 175 l 499 210 q 427 89 467 139 q 341 13 388 39 q 239 -14 294 -14 m 289 74 q 363 101 325 74 q 435 176 401 129 q 496 282 469 224 q 535 400 522 340 l 586 646 q 542 683 571 671 q 481 696 513 696 q 381 665 425 696 q 303 582 336 633 q 247 469 269 531 q 213 347 224 408 q 201 235 201 285 q 226 111 201 149 q 289 74 251 74 m 478 842 q 431 889 456 863 q 382 943 406 915 q 337 999 358 971 q 299 1050 315 1026 l 303 1064 l 442 1064 q 469 999 453 1036 q 502 926 485 963 q 535 860 519 889 l 531 842 l 478 842 z "},"":{"ha":804,"x_min":60,"x_max":797,"o":"m 239 -14 q 138 19 178 -14 q 78 110 97 53 q 60 240 60 168 q 77 377 60 306 q 129 516 94 449 q 214 638 164 583 q 329 726 264 693 q 474 758 394 758 q 537 752 507 758 q 592 735 567 746 q 636 708 618 724 l 697 743 l 742 743 l 647 299 q 639 254 644 283 q 630 194 633 225 q 626 144 626 164 q 638 92 626 110 q 672 74 650 74 q 721 84 696 74 q 772 110 746 94 l 797 69 q 744 32 778 51 q 674 -1 711 13 q 601 -14 636 -14 q 522 17 551 -14 q 493 101 493 47 q 497 152 493 129 q 507 210 500 175 l 499 210 q 427 89 467 139 q 341 13 388 39 q 239 -14 294 -14 m 289 74 q 363 101 325 74 q 435 176 401 129 q 496 282 469 224 q 535 400 522 340 l 586 646 q 542 683 571 671 q 481 696 513 696 q 381 665 425 696 q 303 582 336 633 q 247 469 269 531 q 213 347 224 408 q 201 235 201 285 q 226 111 201 149 q 289 74 251 74 m 428 842 l 432 860 q 483 922 457 888 q 535 994 510 957 q 581 1064 560 1031 l 729 1064 l 725 1050 q 681 1001 708 1029 q 619 944 653 974 q 550 888 585 914 q 483 842 515 861 l 428 842 z "},"":{"ha":804,"x_min":60,"x_max":797,"o":"m 239 -14 q 138 19 178 -14 q 78 110 97 53 q 60 240 60 168 q 77 377 60 306 q 129 516 94 449 q 214 638 164 583 q 329 726 264 693 q 474 758 394 758 q 537 752 507 758 q 592 735 567 746 q 636 708 618 724 l 697 743 l 742 743 l 647 299 q 639 254 644 283 q 630 194 633 225 q 626 144 626 164 q 638 92 626 110 q 672 74 650 74 q 721 84 696 74 q 772 110 746 94 l 797 69 q 744 32 778 51 q 674 -1 711 13 q 601 -14 636 -14 q 522 17 551 -14 q 493 101 493 47 q 497 152 493 129 q 507 210 500 175 l 499 210 q 427 89 467 139 q 341 13 388 39 q 239 -14 294 -14 m 289 74 q 363 101 325 74 q 435 176 401 129 q 496 282 469 224 q 535 400 522 340 l 586 646 q 542 683 571 671 q 481 696 513 696 q 381 665 425 696 q 303 582 336 633 q 247 469 269 531 q 213 347 224 408 q 201 235 201 285 q 226 111 201 149 q 289 74 251 74 m 278 860 q 340 922 306 886 q 407 996 374 958 q 461 1064 440 1033 l 593 1064 q 617 996 601 1033 q 653 922 633 958 q 688 860 672 886 l 683 842 l 635 842 q 590 878 613 857 q 547 922 567 899 q 511 967 528 944 q 456 922 486 944 q 395 878 426 899 q 333 842 364 857 l 274 842 l 278 860 z "},"":{"ha":804,"x_min":60,"x_max":797,"o":"m 239 -14 q 138 19 178 -14 q 78 110 97 53 q 60 240 60 168 q 77 377 60 306 q 129 516 94 449 q 214 638 164 583 q 329 726 264 693 q 474 758 394 758 q 537 752 507 758 q 592 735 567 746 q 636 708 618 724 l 697 743 l 742 743 l 647 299 q 639 254 644 283 q 630 194 633 225 q 626 144 626 164 q 638 92 626 110 q 672 74 650 74 q 721 84 696 74 q 772 110 746 94 l 797 69 q 744 32 778 51 q 674 -1 711 13 q 601 -14 636 -14 q 522 17 551 -14 q 493 101 493 47 q 497 152 493 129 q 507 210 500 175 l 499 210 q 427 89 467 139 q 341 13 388 39 q 239 -14 294 -14 m 289 74 q 363 101 325 74 q 435 176 401 129 q 496 282 469 224 q 535 400 522 340 l 586 646 q 542 683 571 671 q 481 696 513 696 q 381 665 425 696 q 303 582 336 633 q 247 469 269 531 q 213 347 224 408 q 201 235 201 285 q 226 111 201 149 q 289 74 251 74 m 576 842 q 511 855 539 842 q 461 885 483 868 q 419 916 439 903 q 376 929 399 929 q 319 906 335 929 q 293 856 304 883 l 231 856 q 267 935 243 899 q 326 996 290 972 q 413 1019 363 1019 q 477 1006 450 1019 q 526 976 504 993 q 569 945 549 958 q 611 932 589 932 q 668 955 651 932 q 694 1006 685 978 l 757 1006 q 722 926 746 964 q 663 865 699 889 q 576 842 626 842 z "},"":{"ha":804,"x_min":60,"x_max":797,"o":"m 239 -14 q 138 19 178 -14 q 78 110 97 53 q 60 240 60 168 q 77 377 60 306 q 129 516 94 449 q 214 638 164 583 q 329 726 264 693 q 474 758 394 758 q 537 752 507 758 q 592 735 567 746 q 636 708 618 724 l 697 743 l 742 743 l 647 299 q 639 254 644 283 q 630 194 633 225 q 626 144 626 164 q 638 92 626 110 q 672 74 650 74 q 721 84 696 74 q 772 110 746 94 l 797 69 q 744 32 778 51 q 674 -1 711 13 q 601 -14 636 -14 q 522 17 551 -14 q 493 101 493 47 q 497 152 493 129 q 507 210 500 175 l 499 210 q 427 89 467 139 q 341 13 388 39 q 239 -14 294 -14 m 289 74 q 363 101 325 74 q 435 176 401 129 q 496 282 469 224 q 535 400 522 340 l 586 646 q 542 683 571 671 q 481 696 513 696 q 381 665 425 696 q 303 582 336 633 q 247 469 269 531 q 213 347 224 408 q 201 235 201 285 q 226 111 201 149 q 289 74 251 74 m 606 878 q 556 895 575 878 q 536 947 536 913 q 556 1011 536 988 q 611 1035 576 1035 q 661 1018 642 1035 q 681 965 681 1001 q 657 897 681 917 q 606 878 633 878 m 342 878 q 292 895 311 878 q 272 947 272 913 q 292 1011 272 988 q 347 1035 313 1035 q 397 1018 378 1035 q 417 965 417 1001 q 393 897 417 917 q 342 878 369 878 z "},"":{"ha":804,"x_min":60,"x_max":797,"o":"m 239 -14 q 138 19 178 -14 q 78 110 97 53 q 60 240 60 168 q 77 377 60 306 q 129 516 94 449 q 214 638 164 583 q 329 726 264 693 q 474 758 394 758 q 537 752 507 758 q 592 735 567 746 q 636 708 618 724 l 697 743 l 742 743 l 647 299 q 639 254 644 283 q 630 194 633 225 q 626 144 626 164 q 638 92 626 110 q 672 74 650 74 q 721 84 696 74 q 772 110 746 94 l 797 69 q 744 32 778 51 q 674 -1 711 13 q 601 -14 636 -14 q 522 17 551 -14 q 493 101 493 47 q 497 152 493 129 q 507 210 500 175 l 499 210 q 427 89 467 139 q 341 13 388 39 q 239 -14 294 -14 m 289 74 q 363 101 325 74 q 435 176 401 129 q 496 282 469 224 q 535 400 522 340 l 586 646 q 542 683 571 671 q 481 696 513 696 q 381 665 425 696 q 303 582 336 633 q 247 469 269 531 q 213 347 224 408 q 201 235 201 285 q 226 111 201 149 q 289 74 251 74 m 500 828 q 382 867 431 828 q 333 979 333 906 q 382 1092 333 1053 q 500 1131 431 1131 q 618 1092 569 1131 q 667 979 667 1053 q 618 867 667 906 q 500 828 569 828 m 500 896 q 565 915 538 896 q 592 979 592 935 q 565 1043 592 1024 q 500 1063 538 1063 q 435 1043 463 1063 q 408 979 408 1024 q 435 915 408 935 q 500 896 463 896 z "},"":{"ha":1129,"x_min":60,"x_max":1103,"o":"m 269 -14 q 188 3 226 -14 q 122 53 150 19 q 76 140 93 88 q 60 263 60 192 q 75 390 60 322 q 122 524 90 458 q 201 642 153 589 q 315 726 249 694 q 465 758 381 758 q 572 738 522 758 q 678 672 622 718 q 786 735 725 713 q 918 758 847 758 q 1054 716 1006 758 q 1103 599 1103 674 q 1051 463 1103 526 q 908 360 999 399 q 700 321 817 321 l 651 321 q 649 291 650 306 q 649 263 649 276 q 666 160 649 203 q 717 96 683 118 q 801 74 751 74 q 920 106 868 74 q 1001 174 972 138 q 1012 160 1008 169 q 1015 139 1015 150 q 990 73 1015 108 q 912 12 965 38 q 775 -14 858 -14 q 613 36 683 -14 q 519 186 542 86 l 518 186 q 455 75 492 119 q 372 8 418 31 q 269 -14 325 -14 m 318 74 q 405 106 367 74 q 469 194 443 138 q 508 322 496 250 q 533 430 519 383 q 567 519 547 476 q 614 606 586 561 q 545 673 582 650 q 472 696 508 696 q 374 665 417 696 q 298 583 331 633 q 244 472 265 532 q 212 353 222 413 q 201 247 201 294 q 234 116 201 158 q 318 74 267 74 m 678 385 q 790 400 739 385 q 880 444 842 415 q 939 512 918 472 q 960 599 960 551 q 939 669 960 646 q 879 692 918 692 q 806 665 840 692 q 743 592 771 638 q 695 493 715 547 q 664 385 675 439 l 678 385 z "},"":{"ha":676,"x_min":60,"x_max":676,"o":"m 331 -14 q 195 18 257 -14 q 97 113 133 50 q 60 274 60 176 q 77 402 60 335 q 128 533 94 469 q 211 647 161 596 q 327 728 261 699 q 474 758 393 758 q 588 739 543 758 q 655 690 633 719 q 676 625 676 660 q 662 576 676 599 q 620 541 647 554 q 553 528 593 528 q 527 643 553 594 q 446 692 501 692 q 364 662 401 692 q 297 584 326 632 q 247 478 267 536 q 215 364 226 421 q 204 263 204 307 q 243 124 204 174 q 357 74 282 74 q 479 106 431 74 q 557 174 528 138 q 567 160 564 169 q 571 139 571 150 q 545 73 571 108 q 467 12 519 38 q 331 -14 414 -14 m 219 -333 q 168 -329 197 -333 q 115 -318 139 -325 l 131 -247 q 180 -256 154 -253 q 224 -258 206 -258 q 297 -238 267 -258 q 326 -174 326 -218 q 302 -119 326 -140 q 238 -96 278 -99 l 290 13 l 356 13 l 329 -47 q 410 -86 379 -54 q 440 -162 440 -118 q 410 -260 440 -222 q 331 -315 381 -297 q 219 -333 281 -333 z "},"":{"ha":685,"x_min":60,"x_max":658,"o":"m 331 -14 q 195 18 257 -14 q 97 113 133 50 q 60 274 60 176 q 77 402 60 335 q 128 533 94 469 q 211 647 161 596 q 327 728 261 699 q 474 758 393 758 q 610 716 561 758 q 658 599 658 674 q 606 463 658 526 q 463 360 554 399 q 256 321 372 321 l 207 321 q 205 291 206 306 q 204 263 204 276 q 243 124 204 174 q 357 74 282 74 q 476 106 424 74 q 557 174 528 138 q 571 139 571 164 q 545 73 571 108 q 467 12 519 38 q 331 -14 414 -14 m 233 385 q 378 412 315 385 q 478 487 442 439 q 515 599 515 535 q 494 669 515 646 q 435 692 474 692 q 361 665 396 692 q 299 592 326 638 q 251 493 271 547 q 219 385 231 439 l 233 385 m 489 842 q 442 889 467 863 q 393 943 417 915 q 348 999 369 971 q 310 1050 326 1026 l 314 1064 l 453 1064 q 480 999 464 1036 q 513 926 496 963 q 546 860 531 889 l 542 842 l 489 842 z "},"":{"ha":685,"x_min":60,"x_max":714,"o":"m 331 -14 q 195 18 257 -14 q 97 113 133 50 q 60 274 60 176 q 77 402 60 335 q 128 533 94 469 q 211 647 161 596 q 327 728 261 699 q 474 758 393 758 q 610 716 561 758 q 658 599 658 674 q 606 463 658 526 q 463 360 554 399 q 256 321 372 321 l 207 321 q 205 291 206 306 q 204 263 204 276 q 243 124 204 174 q 357 74 282 74 q 476 106 424 74 q 557 174 528 138 q 571 139 571 164 q 545 73 571 108 q 467 12 519 38 q 331 -14 414 -14 m 233 385 q 378 412 315 385 q 478 487 442 439 q 515 599 515 535 q 494 669 515 646 q 435 692 474 692 q 361 665 396 692 q 299 592 326 638 q 251 493 271 547 q 219 385 231 439 l 233 385 m 413 842 l 417 860 q 468 922 442 888 q 519 994 494 957 q 565 1064 544 1031 l 714 1064 l 710 1050 q 665 1001 693 1029 q 603 944 638 974 q 535 888 569 914 q 468 842 500 861 l 413 842 z "},"":{"ha":685,"x_min":60,"x_max":672,"o":"m 331 -14 q 195 18 257 -14 q 97 113 133 50 q 60 274 60 176 q 77 402 60 335 q 128 533 94 469 q 211 647 161 596 q 327 728 261 699 q 474 758 393 758 q 610 716 561 758 q 658 599 658 674 q 606 463 658 526 q 463 360 554 399 q 256 321 372 321 l 207 321 q 205 291 206 306 q 204 263 204 276 q 243 124 204 174 q 357 74 282 74 q 476 106 424 74 q 557 174 528 138 q 571 139 571 164 q 545 73 571 108 q 467 12 519 38 q 331 -14 414 -14 m 233 385 q 378 412 315 385 q 478 487 442 439 q 515 599 515 535 q 494 669 515 646 q 435 692 474 692 q 361 665 396 692 q 299 592 326 638 q 251 493 271 547 q 219 385 231 439 l 233 385 m 263 860 q 324 922 290 886 q 392 996 358 958 q 446 1064 425 1033 l 578 1064 q 602 996 586 1033 q 638 922 618 958 q 672 860 657 886 l 668 842 l 619 842 q 574 878 597 857 q 532 922 551 899 q 496 967 513 944 q 441 922 471 944 q 380 878 411 899 q 318 842 349 857 l 258 842 l 263 860 z "},"":{"ha":685,"x_min":60,"x_max":683,"o":"m 331 -14 q 195 18 257 -14 q 97 113 133 50 q 60 274 60 176 q 77 402 60 335 q 128 533 94 469 q 211 647 161 596 q 327 728 261 699 q 474 758 393 758 q 610 716 561 758 q 658 599 658 674 q 606 463 658 526 q 463 360 554 399 q 256 321 372 321 l 207 321 q 205 291 206 306 q 204 263 204 276 q 243 124 204 174 q 357 74 282 74 q 476 106 424 74 q 557 174 528 138 q 571 139 571 164 q 545 73 571 108 q 467 12 519 38 q 331 -14 414 -14 m 233 385 q 378 412 315 385 q 478 487 442 439 q 515 599 515 535 q 494 669 515 646 q 435 692 474 692 q 361 665 396 692 q 299 592 326 638 q 251 493 271 547 q 219 385 231 439 l 233 385 m 608 878 q 558 895 578 878 q 539 947 539 913 q 559 1011 539 988 q 614 1035 579 1035 q 664 1018 644 1035 q 683 965 683 1001 q 660 897 683 917 q 608 878 636 878 m 344 878 q 294 895 314 878 q 275 947 275 913 q 295 1011 275 988 q 350 1035 315 1035 q 400 1018 381 1035 q 419 965 419 1001 q 396 897 419 917 q 344 878 372 878 z "},"":{"ha":422,"x_min":86,"x_max":403,"o":"m 215 -14 q 130 25 160 -14 q 100 118 100 64 q 106 188 100 147 q 118 269 111 228 q 131 336 125 310 l 185 592 q 186 653 194 633 q 156 680 178 674 q 104 686 135 686 l 86 686 l 99 744 l 347 744 l 253 299 q 244 254 250 283 q 235 194 239 225 q 232 144 232 164 q 244 92 232 110 q 278 74 256 74 q 326 84 301 74 q 378 110 351 94 l 403 69 q 320 15 372 43 q 215 -14 268 -14 m 308 842 q 261 889 286 863 q 213 943 236 915 q 167 999 189 971 q 129 1050 146 1026 l 133 1064 l 272 1064 q 299 999 283 1036 q 333 926 315 963 q 365 860 350 889 l 361 842 l 308 842 z "},"":{"ha":422,"x_min":86,"x_max":522,"o":"m 215 -14 q 130 25 160 -14 q 100 118 100 64 q 106 188 100 147 q 118 269 111 228 q 131 336 125 310 l 185 592 q 186 653 194 633 q 156 680 178 674 q 104 686 135 686 l 86 686 l 99 744 l 347 744 l 253 299 q 244 254 250 283 q 235 194 239 225 q 232 144 232 164 q 244 92 232 110 q 278 74 256 74 q 326 84 301 74 q 378 110 351 94 l 403 69 q 320 15 372 43 q 215 -14 268 -14 m 221 842 l 225 860 q 276 922 250 888 q 328 994 303 957 q 374 1064 353 1031 l 522 1064 l 518 1050 q 474 1001 501 1029 q 412 944 446 974 q 343 888 378 914 q 276 842 308 861 l 221 842 z "},"":{"ha":422,"x_min":49,"x_max":463,"o":"m 215 -14 q 130 25 160 -14 q 100 118 100 64 q 106 188 100 147 q 118 269 111 228 q 131 336 125 310 l 185 592 q 186 653 194 633 q 156 680 178 674 q 104 686 135 686 l 86 686 l 99 744 l 347 744 l 253 299 q 244 254 250 283 q 235 194 239 225 q 232 144 232 164 q 244 92 232 110 q 278 74 256 74 q 326 84 301 74 q 378 110 351 94 l 403 69 q 320 15 372 43 q 215 -14 268 -14 m 53 860 q 115 922 81 886 q 182 996 149 958 q 236 1064 215 1033 l 368 1064 q 392 996 376 1033 q 428 922 408 958 q 463 860 447 886 l 458 842 l 410 842 q 365 878 388 857 q 322 922 342 899 q 286 967 303 944 q 231 922 261 944 q 170 878 201 899 q 108 842 139 857 l 49 842 l 53 860 z "},"":{"ha":422,"x_min":71,"x_max":479,"o":"m 215 -14 q 130 25 160 -14 q 100 118 100 64 q 106 188 100 147 q 118 269 111 228 q 131 336 125 310 l 185 592 q 186 653 194 633 q 156 680 178 674 q 104 686 135 686 l 86 686 l 99 744 l 347 744 l 253 299 q 244 254 250 283 q 235 194 239 225 q 232 144 232 164 q 244 92 232 110 q 278 74 256 74 q 326 84 301 74 q 378 110 351 94 l 403 69 q 320 15 372 43 q 215 -14 268 -14 m 404 878 q 354 895 374 878 q 335 947 335 913 q 355 1011 335 988 q 410 1035 375 1035 q 460 1018 440 1035 q 479 965 479 1001 q 456 897 479 917 q 404 878 432 878 m 140 878 q 90 895 110 878 q 71 947 71 913 q 91 1011 71 988 q 146 1035 111 1035 q 196 1018 176 1035 q 215 965 215 1001 q 192 897 215 917 q 140 878 168 878 z "},"":{"ha":797,"x_min":60,"x_max":738,"o":"m 325 -14 q 187 17 247 -12 q 93 106 126 47 q 60 250 60 164 q 76 369 60 307 q 123 492 92 432 q 202 599 154 551 q 315 676 250 647 q 461 704 379 704 q 535 694 503 704 q 590 667 568 685 q 551 780 576 729 q 488 870 525 831 q 402 939 450 910 q 293 988 354 968 l 317 1057 q 489 984 413 1032 q 620 866 565 936 q 704 705 675 796 q 733 503 733 614 q 710 307 733 400 q 636 142 686 214 q 509 28 586 69 q 325 -14 432 -14 m 340 54 q 435 81 394 54 q 506 151 476 107 q 553 247 535 194 q 581 352 572 299 q 589 450 589 406 q 553 588 589 544 q 454 632 518 632 q 359 605 400 632 q 288 533 318 578 q 240 435 258 489 q 213 328 222 382 q 204 228 204 274 q 221 130 204 168 q 268 74 238 92 q 340 54 299 56 m 294 763 l 311 840 l 738 1058 l 719 979 l 294 763 z "},"":{"ha":832,"x_min":61,"x_max":808,"o":"m 639 -14 q 545 26 578 -14 q 513 125 513 65 q 519 203 513 158 q 539 313 525 249 l 563 421 q 574 469 567 440 q 586 531 581 499 q 592 586 592 563 q 580 641 592 614 q 528 668 568 668 q 442 636 485 668 q 362 554 399 604 q 299 451 325 504 q 265 356 274 397 l 190 0 l 61 0 l 178 558 q 184 597 182 578 q 186 621 186 615 q 158 674 186 663 q 89 686 129 686 l 78 686 l 90 744 l 347 744 l 310 569 l 324 569 q 440 709 381 661 q 576 757 499 757 q 664 735 632 757 q 710 679 696 714 q 725 603 725 644 q 716 527 725 568 q 700 450 707 486 l 664 286 q 651 210 656 247 q 646 140 646 172 q 659 91 646 108 q 694 74 672 74 q 738 82 717 74 q 783 106 760 90 l 808 65 q 734 12 775 38 q 639 -14 693 -14 m 592 842 q 526 855 554 842 q 476 885 499 868 q 434 916 454 903 q 392 929 414 929 q 335 906 350 929 q 308 856 319 883 l 246 856 q 282 935 258 899 q 342 996 306 972 q 428 1019 378 1019 q 492 1006 465 1019 q 542 976 519 993 q 584 945 564 958 q 626 932 604 932 q 683 955 667 932 q 710 1006 700 978 l 772 1006 q 738 926 761 964 q 678 865 714 889 q 592 842 642 842 z "},"":{"ha":797,"x_min":60,"x_max":738,"o":"m 326 -14 q 134 58 208 -14 q 60 274 60 129 q 76 402 60 335 q 124 533 92 469 q 206 647 157 596 q 322 728 256 699 q 474 758 389 758 q 607 729 547 758 q 702 637 667 700 q 738 471 738 574 q 722 345 738 411 q 675 215 707 279 q 594 100 643 151 q 479 17 546 49 q 326 -14 413 -14 m 342 57 q 438 86 396 57 q 508 163 479 115 q 556 269 538 211 q 584 385 575 326 q 593 494 593 444 q 557 643 593 599 q 457 688 521 688 q 361 658 403 688 q 290 581 319 629 q 241 475 260 533 q 213 358 222 417 q 204 249 204 299 q 222 137 204 179 q 269 76 239 94 q 342 57 300 57 m 497 842 q 450 889 475 863 q 401 943 425 915 q 356 999 378 971 q 318 1050 335 1026 l 322 1064 l 461 1064 q 488 999 472 1036 q 522 926 504 963 q 554 860 539 889 l 550 842 l 497 842 z "},"":{"ha":797,"x_min":60,"x_max":738,"o":"m 326 -14 q 134 58 208 -14 q 60 274 60 129 q 76 402 60 335 q 124 533 92 469 q 206 647 157 596 q 322 728 256 699 q 474 758 389 758 q 607 729 547 758 q 702 637 667 700 q 738 471 738 574 q 722 345 738 411 q 675 215 707 279 q 594 100 643 151 q 479 17 546 49 q 326 -14 413 -14 m 342 57 q 438 86 396 57 q 508 163 479 115 q 556 269 538 211 q 584 385 575 326 q 593 494 593 444 q 557 643 593 599 q 457 688 521 688 q 361 658 403 688 q 290 581 319 629 q 241 475 260 533 q 213 358 222 417 q 204 249 204 299 q 222 137 204 179 q 269 76 239 94 q 342 57 300 57 m 422 842 l 426 860 q 478 922 451 888 q 529 994 504 957 q 575 1064 554 1031 l 724 1064 l 719 1050 q 675 1001 703 1029 q 613 944 647 974 q 544 888 579 914 q 478 842 510 861 l 422 842 z "},"":{"ha":797,"x_min":60,"x_max":738,"o":"m 326 -14 q 134 58 208 -14 q 60 274 60 129 q 76 402 60 335 q 124 533 92 469 q 206 647 157 596 q 322 728 256 699 q 474 758 389 758 q 607 729 547 758 q 702 637 667 700 q 738 471 738 574 q 722 345 738 411 q 675 215 707 279 q 594 100 643 151 q 479 17 546 49 q 326 -14 413 -14 m 342 57 q 438 86 396 57 q 508 163 479 115 q 556 269 538 211 q 584 385 575 326 q 593 494 593 444 q 557 643 593 599 q 457 688 521 688 q 361 658 403 688 q 290 581 319 629 q 241 475 260 533 q 213 358 222 417 q 204 249 204 299 q 222 137 204 179 q 269 76 239 94 q 342 57 300 57 m 271 860 q 333 922 299 886 q 400 996 367 958 q 454 1064 433 1033 l 586 1064 q 610 996 594 1033 q 646 922 626 958 q 681 860 665 886 l 676 842 l 628 842 q 583 878 606 857 q 540 922 560 899 q 504 967 521 944 q 449 922 479 944 q 388 878 419 899 q 326 842 357 857 l 267 842 l 271 860 z "},"":{"ha":797,"x_min":60,"x_max":764,"o":"m 326 -14 q 134 58 208 -14 q 60 274 60 129 q 76 402 60 335 q 124 533 92 469 q 206 647 157 596 q 322 728 256 699 q 474 758 389 758 q 607 729 547 758 q 702 637 667 700 q 738 471 738 574 q 722 345 738 411 q 675 215 707 279 q 594 100 643 151 q 479 17 546 49 q 326 -14 413 -14 m 342 57 q 438 86 396 57 q 508 163 479 115 q 556 269 538 211 q 584 385 575 326 q 593 494 593 444 q 557 643 593 599 q 457 688 521 688 q 361 658 403 688 q 290 581 319 629 q 241 475 260 533 q 213 358 222 417 q 204 249 204 299 q 222 137 204 179 q 269 76 239 94 q 342 57 300 57 m 583 842 q 518 855 546 842 q 468 885 490 868 q 426 916 446 903 q 383 929 406 929 q 326 906 342 929 q 300 856 311 883 l 238 856 q 274 935 250 899 q 333 996 297 972 q 419 1019 369 1019 q 484 1006 457 1019 q 533 976 511 993 q 576 945 556 958 q 618 932 596 932 q 675 955 658 932 q 701 1006 692 978 l 764 1006 q 729 926 753 964 q 669 865 706 889 q 583 842 633 842 z "},"":{"ha":797,"x_min":60,"x_max":738,"o":"m 326 -14 q 134 58 208 -14 q 60 274 60 129 q 76 402 60 335 q 124 533 92 469 q 206 647 157 596 q 322 728 256 699 q 474 758 389 758 q 607 729 547 758 q 702 637 667 700 q 738 471 738 574 q 722 345 738 411 q 675 215 707 279 q 594 100 643 151 q 479 17 546 49 q 326 -14 413 -14 m 342 57 q 438 86 396 57 q 508 163 479 115 q 556 269 538 211 q 584 385 575 326 q 593 494 593 444 q 557 643 593 599 q 457 688 521 688 q 361 658 403 688 q 290 581 319 629 q 241 475 260 533 q 213 358 222 417 q 204 249 204 299 q 222 137 204 179 q 269 76 239 94 q 342 57 300 57 m 615 878 q 565 895 585 878 q 546 947 546 913 q 566 1011 546 988 q 621 1035 586 1035 q 671 1018 651 1035 q 690 965 690 1001 q 667 897 690 917 q 615 878 643 878 m 351 878 q 301 895 321 878 q 282 947 282 913 q 302 1011 282 988 q 357 1035 322 1035 q 407 1018 388 1035 q 426 965 426 1001 q 403 897 426 917 q 351 878 379 878 z "},"":{"ha":776,"x_min":90,"x_max":686,"o":"m 90 456 l 90 538 l 686 538 l 686 456 l 90 456 m 389 157 q 338 174 358 157 q 318 233 318 190 q 338 294 318 278 q 389 310 358 310 q 439 294 418 310 q 460 233 460 278 q 439 174 460 190 q 389 157 418 157 m 389 683 q 338 700 358 683 q 318 760 318 717 q 338 820 318 804 q 389 836 358 836 q 439 820 418 836 q 460 760 460 804 q 439 700 460 717 q 389 683 418 683 z "},"":{"ha":797,"x_min":7,"x_max":797,"o":"m 7 -69 l 717 814 l 797 814 l 89 -69 l 7 -69 m 326 -14 q 134 58 208 -14 q 60 274 60 129 q 76 402 60 335 q 124 533 92 469 q 206 647 157 596 q 322 728 256 699 q 474 758 389 758 q 607 729 547 758 q 702 637 667 700 q 738 471 738 574 q 722 345 738 411 q 675 215 707 279 q 594 100 643 151 q 479 17 546 49 q 326 -14 413 -14 m 342 57 q 438 86 396 57 q 508 163 479 115 q 556 269 538 211 q 584 385 575 326 q 593 494 593 444 q 557 643 593 599 q 457 688 521 688 q 361 658 403 688 q 290 581 319 629 q 241 475 260 533 q 213 358 222 417 q 204 249 204 299 q 222 137 204 179 q 269 76 239 94 q 342 57 300 57 z "},"":{"ha":832,"x_min":79,"x_max":810,"o":"m 633 -14 q 571 4 597 -14 q 531 52 544 22 q 517 118 517 82 q 519 156 517 133 q 524 200 521 178 l 513 200 q 436 90 474 138 q 353 15 399 42 q 244 -12 307 -12 q 158 9 190 -12 q 110 66 125 31 q 96 142 96 101 q 104 218 96 176 q 121 294 113 260 l 175 538 q 183 586 179 557 q 188 621 188 615 q 159 674 188 663 q 90 686 131 686 l 79 686 l 92 744 l 350 744 l 258 329 q 240 242 250 292 q 231 161 231 192 q 244 101 231 126 q 299 76 258 76 q 376 105 336 76 q 454 181 417 133 q 519 285 492 228 q 560 399 547 342 l 632 744 l 767 744 l 671 299 q 663 254 668 283 q 653 194 657 225 q 650 144 650 164 q 662 92 650 110 q 696 74 674 74 q 739 81 719 74 q 785 104 758 89 l 810 64 q 733 12 779 38 q 633 -14 686 -14 m 481 842 q 433 889 458 863 q 385 943 408 915 q 340 999 361 971 q 301 1050 318 1026 l 306 1064 l 444 1064 q 472 999 456 1036 q 505 926 488 963 q 538 860 522 889 l 533 842 l 481 842 z "},"":{"ha":832,"x_min":79,"x_max":810,"o":"m 633 -14 q 571 4 597 -14 q 531 52 544 22 q 517 118 517 82 q 519 156 517 133 q 524 200 521 178 l 513 200 q 436 90 474 138 q 353 15 399 42 q 244 -12 307 -12 q 158 9 190 -12 q 110 66 125 31 q 96 142 96 101 q 104 218 96 176 q 121 294 113 260 l 175 538 q 183 586 179 557 q 188 621 188 615 q 159 674 188 663 q 90 686 131 686 l 79 686 l 92 744 l 350 744 l 258 329 q 240 242 250 292 q 231 161 231 192 q 244 101 231 126 q 299 76 258 76 q 376 105 336 76 q 454 181 417 133 q 519 285 492 228 q 560 399 547 342 l 632 744 l 767 744 l 671 299 q 663 254 668 283 q 653 194 657 225 q 650 144 650 164 q 662 92 650 110 q 696 74 674 74 q 739 81 719 74 q 785 104 758 89 l 810 64 q 733 12 779 38 q 633 -14 686 -14 m 435 842 l 439 860 q 490 922 464 888 q 542 994 517 957 q 588 1064 567 1031 l 736 1064 l 732 1050 q 688 1001 715 1029 q 626 944 660 974 q 557 888 592 914 q 490 842 522 861 l 435 842 z "},"":{"ha":832,"x_min":79,"x_max":810,"o":"m 633 -14 q 571 4 597 -14 q 531 52 544 22 q 517 118 517 82 q 519 156 517 133 q 524 200 521 178 l 513 200 q 436 90 474 138 q 353 15 399 42 q 244 -12 307 -12 q 158 9 190 -12 q 110 66 125 31 q 96 142 96 101 q 104 218 96 176 q 121 294 113 260 l 175 538 q 183 586 179 557 q 188 621 188 615 q 159 674 188 663 q 90 686 131 686 l 79 686 l 92 744 l 350 744 l 258 329 q 240 242 250 292 q 231 161 231 192 q 244 101 231 126 q 299 76 258 76 q 376 105 336 76 q 454 181 417 133 q 519 285 492 228 q 560 399 547 342 l 632 744 l 767 744 l 671 299 q 663 254 668 283 q 653 194 657 225 q 650 144 650 164 q 662 92 650 110 q 696 74 674 74 q 739 81 719 74 q 785 104 758 89 l 810 64 q 733 12 779 38 q 633 -14 686 -14 m 294 860 q 356 922 322 886 q 424 996 390 958 q 478 1064 457 1033 l 610 1064 q 634 996 618 1033 q 669 922 650 958 q 704 860 689 886 l 700 842 l 651 842 q 606 878 629 857 q 564 922 583 899 q 528 967 544 944 q 473 922 503 944 q 412 878 443 899 q 350 842 381 857 l 290 842 l 294 860 z "},"":{"ha":832,"x_min":79,"x_max":810,"o":"m 633 -14 q 571 4 597 -14 q 531 52 544 22 q 517 118 517 82 q 519 156 517 133 q 524 200 521 178 l 513 200 q 436 90 474 138 q 353 15 399 42 q 244 -12 307 -12 q 158 9 190 -12 q 110 66 125 31 q 96 142 96 101 q 104 218 96 176 q 121 294 113 260 l 175 538 q 183 586 179 557 q 188 621 188 615 q 159 674 188 663 q 90 686 131 686 l 79 686 l 92 744 l 350 744 l 258 329 q 240 242 250 292 q 231 161 231 192 q 244 101 231 126 q 299 76 258 76 q 376 105 336 76 q 454 181 417 133 q 519 285 492 228 q 560 399 547 342 l 632 744 l 767 744 l 671 299 q 663 254 668 283 q 653 194 657 225 q 650 144 650 164 q 662 92 650 110 q 696 74 674 74 q 739 81 719 74 q 785 104 758 89 l 810 64 q 733 12 779 38 q 633 -14 686 -14 m 651 878 q 601 895 621 878 q 582 947 582 913 q 602 1011 582 988 q 657 1035 622 1035 q 707 1018 688 1035 q 726 965 726 1001 q 703 897 726 917 q 651 878 679 878 m 388 878 q 338 895 357 878 q 318 947 318 913 q 338 1011 318 988 q 393 1035 358 1035 q 443 1018 424 1035 q 463 965 463 1001 q 439 897 463 917 q 388 878 415 878 z "},"":{"ha":733,"x_min":-225,"x_max":690,"o":"m -94 -333 q -164 -326 -129 -333 q -225 -308 -199 -319 l -204 -239 q -163 -249 -187 -244 q -96 -254 -139 -254 q 30 -230 -28 -254 q 136 -167 88 -206 q 224 -85 185 -129 q 294 -1 264 -42 l 111 613 q 91 656 103 640 q 61 679 79 672 q 15 686 43 686 l 1 686 l 13 744 l 215 744 l 324 369 q 347 283 335 333 q 370 188 360 233 q 382 118 381 142 l 386 118 q 481 281 439 199 q 549 440 524 363 q 574 579 574 517 q 567 616 574 599 q 547 644 561 633 q 506 654 532 654 q 534 731 506 704 q 596 757 563 757 q 665 728 640 757 q 690 640 690 699 q 660 481 690 568 q 576 294 631 394 q 446 79 521 193 q 320 -104 378 -26 q 204 -233 263 -182 q 74 -308 146 -283 q -94 -333 3 -333 m 358 842 l 363 860 q 414 922 388 888 q 465 994 440 957 q 511 1064 490 1031 l 660 1064 l 656 1050 q 611 1001 639 1029 q 549 944 583 974 q 481 888 515 914 q 414 842 446 861 l 358 842 z "},"":{"ha":781,"x_min":-33,"x_max":721,"o":"m 219 858 q 229 906 226 886 q 232 932 232 926 q 203 985 232 974 q 135 997 175 997 l 124 997 l 136 1056 l 392 1056 l 321 722 q 311 682 317 704 q 299 636 306 660 q 288 592 293 613 q 278 558 282 571 l 286 558 q 350 658 314 613 q 433 731 386 704 q 542 758 481 758 q 674 694 626 758 q 721 507 721 629 q 704 377 721 447 q 655 238 688 307 q 572 111 622 168 q 456 20 522 54 q 306 -14 389 -14 q 229 -4 265 -14 q 167 19 193 6 q 163 -14 165 7 q 158 -49 161 -35 l 140 -133 q 132 -176 136 -151 q 128 -215 128 -200 q 151 -262 128 -249 q 225 -275 174 -275 l 243 -275 l 231 -333 l -33 -333 l 219 858 m 301 49 q 398 79 354 49 q 476 161 442 110 q 533 273 510 213 q 567 395 556 333 q 579 508 579 457 q 571 586 579 549 q 543 647 563 624 q 489 671 524 671 q 425 651 457 671 q 365 597 393 631 q 313 523 336 564 q 272 440 289 482 q 247 363 256 399 l 190 99 q 233 66 203 83 q 301 49 263 49 z "},"":{"ha":733,"x_min":-225,"x_max":690,"o":"m -94 -333 q -164 -326 -129 -333 q -225 -308 -199 -319 l -204 -239 q -163 -249 -187 -244 q -96 -254 -139 -254 q 30 -230 -28 -254 q 136 -167 88 -206 q 224 -85 185 -129 q 294 -1 264 -42 l 111 613 q 91 656 103 640 q 61 679 79 672 q 15 686 43 686 l 1 686 l 13 744 l 215 744 l 324 369 q 347 283 335 333 q 370 188 360 233 q 382 118 381 142 l 386 118 q 481 281 439 199 q 549 440 524 363 q 574 579 574 517 q 567 616 574 599 q 547 644 561 633 q 506 654 532 654 q 534 731 506 704 q 596 757 563 757 q 665 728 640 757 q 690 640 690 699 q 660 481 690 568 q 576 294 631 394 q 446 79 521 193 q 320 -104 378 -26 q 204 -233 263 -182 q 74 -308 146 -283 q -94 -333 3 -333 m 543 878 q 493 895 513 878 q 474 947 474 913 q 494 1011 474 988 q 549 1035 514 1035 q 599 1018 579 1035 q 618 965 618 1001 q 594 897 618 917 q 543 878 571 878 m 279 878 q 229 895 249 878 q 210 947 210 913 q 230 1011 210 988 q 285 1035 250 1035 q 335 1018 315 1035 q 354 965 354 1001 q 331 897 354 917 q 279 878 307 878 z "},"":{"ha":979,"x_min":-78,"x_max":913,"o":"m -78 0 l -67 58 l -40 58 q 6 67 -12 58 q 44 99 25 75 q 89 167 63 122 l 572 992 l 681 992 l 813 132 q 826 87 817 103 q 851 65 835 71 q 894 58 868 58 l 913 58 l 901 0 l 524 0 l 535 58 l 567 58 q 639 77 611 58 q 667 129 667 96 q 666 153 667 140 q 664 176 665 167 l 597 644 q 583 760 589 706 q 575 864 576 814 q 545 799 561 831 q 510 734 529 768 q 467 657 492 700 l 193 186 q 173 142 179 161 q 167 108 167 124 q 186 70 167 82 q 244 58 206 58 l 276 58 l 265 0 l -78 0 m 247 332 l 247 401 l 700 401 l 700 332 l 247 332 m 432 1071 l 450 1153 l 853 1153 l 835 1071 l 432 1071 z "},"":{"ha":804,"x_min":60,"x_max":797,"o":"m 239 -14 q 138 19 178 -14 q 78 110 97 53 q 60 240 60 168 q 77 377 60 306 q 129 516 94 449 q 214 638 164 583 q 329 726 264 693 q 474 758 394 758 q 537 752 507 758 q 592 735 567 746 q 636 708 618 724 l 697 743 l 742 743 l 647 299 q 639 254 644 283 q 630 194 633 225 q 626 144 626 164 q 638 92 626 110 q 672 74 650 74 q 721 84 696 74 q 772 110 746 94 l 797 69 q 744 32 778 51 q 674 -1 711 13 q 601 -14 636 -14 q 522 17 551 -14 q 493 101 493 47 q 497 152 493 129 q 507 210 500 175 l 499 210 q 427 89 467 139 q 341 13 388 39 q 239 -14 294 -14 m 289 74 q 363 101 325 74 q 435 176 401 129 q 496 282 469 224 q 535 400 522 340 l 586 646 q 542 683 571 671 q 481 696 513 696 q 381 665 425 696 q 303 582 336 633 q 247 469 269 531 q 213 347 224 408 q 201 235 201 285 q 226 111 201 149 q 289 74 251 74 m 292 842 l 310 924 l 713 924 l 694 842 l 292 842 z "},"":{"ha":979,"x_min":-78,"x_max":913,"o":"m -78 0 l -67 58 l -40 58 q 6 67 -12 58 q 44 99 25 75 q 89 167 63 122 l 572 992 l 681 992 l 813 132 q 826 87 817 103 q 851 65 835 71 q 894 58 868 58 l 913 58 l 901 0 l 524 0 l 535 58 l 567 58 q 639 77 611 58 q 667 129 667 96 q 666 153 667 140 q 664 176 665 167 l 597 644 q 583 760 589 706 q 575 864 576 814 q 545 799 561 831 q 510 734 529 768 q 467 657 492 700 l 193 186 q 173 142 179 161 q 167 108 167 124 q 186 70 167 82 q 244 58 206 58 l 276 58 l 265 0 l -78 0 m 247 332 l 247 401 l 700 401 l 700 332 l 247 332 m 635 1071 q 542 1093 579 1071 q 484 1158 504 1115 q 460 1261 464 1200 l 524 1261 q 561 1190 529 1214 q 644 1167 593 1167 q 734 1189 696 1167 q 794 1261 772 1211 l 858 1261 q 816 1166 846 1210 q 741 1097 786 1122 q 635 1071 696 1071 z "},"":{"ha":804,"x_min":60,"x_max":797,"o":"m 239 -14 q 138 19 178 -14 q 78 110 97 53 q 60 240 60 168 q 77 377 60 306 q 129 516 94 449 q 214 638 164 583 q 329 726 264 693 q 474 758 394 758 q 537 752 507 758 q 592 735 567 746 q 636 708 618 724 l 697 743 l 742 743 l 647 299 q 639 254 644 283 q 630 194 633 225 q 626 144 626 164 q 638 92 626 110 q 672 74 650 74 q 721 84 696 74 q 772 110 746 94 l 797 69 q 744 32 778 51 q 674 -1 711 13 q 601 -14 636 -14 q 522 17 551 -14 q 493 101 493 47 q 497 152 493 129 q 507 210 500 175 l 499 210 q 427 89 467 139 q 341 13 388 39 q 239 -14 294 -14 m 289 74 q 363 101 325 74 q 435 176 401 129 q 496 282 469 224 q 535 400 522 340 l 586 646 q 542 683 571 671 q 481 696 513 696 q 381 665 425 696 q 303 582 336 633 q 247 469 269 531 q 213 347 224 408 q 201 235 201 285 q 226 111 201 149 q 289 74 251 74 m 483 842 q 390 864 428 842 q 333 928 353 886 q 308 1032 313 971 l 372 1032 q 410 961 378 985 q 493 938 442 938 q 583 960 544 938 q 643 1032 621 982 l 707 1032 q 665 937 694 981 q 590 867 635 893 q 483 842 544 842 z "},"":{"ha":979,"x_min":-78,"x_max":913,"o":"m -78 0 l -67 58 l -40 58 q 6 67 -12 58 q 44 99 25 75 q 89 167 63 122 l 572 992 l 681 992 l 813 132 q 826 87 817 103 q 851 65 835 71 q 894 58 868 58 l 913 58 l 901 0 l 524 0 l 535 58 l 567 58 q 639 77 611 58 q 667 129 667 96 q 666 153 667 140 q 664 176 665 167 l 597 644 q 583 760 589 706 q 575 864 576 814 q 545 799 561 831 q 510 734 529 768 q 467 657 492 700 l 193 186 q 173 142 179 161 q 167 108 167 124 q 186 70 167 82 q 244 58 206 58 l 276 58 l 265 0 l -78 0 m 247 332 l 247 401 l 700 401 l 700 332 l 247 332 m 728 -333 q 608 -297 651 -333 q 565 -192 565 -260 q 592 -103 565 -142 q 665 -40 618 -65 q 772 0 711 -14 l 851 0 q 781 -32 819 -10 q 714 -89 742 -54 q 686 -172 686 -124 q 708 -227 686 -207 q 765 -247 731 -247 q 807 -244 785 -247 q 856 -236 829 -242 l 839 -311 q 787 -327 815 -321 q 728 -333 758 -333 z "},"":{"ha":804,"x_min":60,"x_max":797,"o":"m 239 -14 q 138 19 178 -14 q 78 110 97 53 q 60 240 60 168 q 77 377 60 306 q 129 516 94 449 q 214 638 164 583 q 329 726 264 693 q 474 758 394 758 q 537 752 507 758 q 592 735 567 746 q 636 708 618 724 l 697 743 l 742 743 l 647 299 q 639 254 644 283 q 630 194 633 225 q 626 144 626 164 q 638 92 626 110 q 672 74 650 74 q 721 84 696 74 q 772 110 746 94 l 797 69 q 744 32 778 51 q 674 -1 711 13 q 601 -14 636 -14 q 522 17 551 -14 q 493 101 493 47 q 497 152 493 129 q 507 210 500 175 l 499 210 q 427 89 467 139 q 341 13 388 39 q 239 -14 294 -14 m 289 74 q 363 101 325 74 q 435 176 401 129 q 496 282 469 224 q 535 400 522 340 l 586 646 q 542 683 571 671 q 481 696 513 696 q 381 665 425 696 q 303 582 336 633 q 247 469 269 531 q 213 347 224 408 q 201 235 201 285 q 226 111 201 149 q 289 74 251 74 m 542 -333 q 422 -297 465 -333 q 379 -192 379 -260 q 406 -103 379 -142 q 478 -40 432 -65 q 586 0 525 -14 l 665 0 q 594 -32 633 -10 q 528 -89 556 -54 q 500 -172 500 -124 q 522 -227 500 -207 q 579 -247 544 -247 q 621 -244 599 -247 q 669 -236 643 -242 l 653 -311 q 601 -327 629 -321 q 542 -333 572 -333 z "},"":{"ha":871,"x_min":72,"x_max":908,"o":"m 456 -14 q 249 30 335 -14 q 118 157 164 74 q 72 358 72 240 q 113 598 72 482 q 228 806 153 714 q 410 951 304 897 q 644 1006 515 1006 q 835 963 768 1006 q 901 851 901 921 q 864 772 901 801 q 765 743 826 743 q 760 805 765 772 q 741 867 756 838 q 699 914 726 896 q 626 932 672 932 q 487 895 550 932 q 374 797 424 858 q 292 657 325 735 q 241 497 258 579 q 224 336 224 414 q 251 196 224 254 q 334 107 279 138 q 471 76 389 76 q 631 116 569 76 q 728 203 693 156 q 741 185 736 197 q 746 157 746 172 q 716 81 746 121 q 622 13 686 40 q 456 -14 558 -14 m 607 1071 l 611 1089 q 663 1151 636 1117 q 714 1223 689 1186 q 760 1293 739 1260 l 908 1293 l 904 1279 q 860 1231 888 1258 q 798 1173 832 1203 q 729 1117 764 1143 q 663 1071 694 1090 l 607 1071 z "},"":{"ha":676,"x_min":60,"x_max":729,"o":"m 331 -14 q 195 18 257 -14 q 97 113 133 50 q 60 274 60 176 q 77 402 60 335 q 128 533 94 469 q 211 647 161 596 q 327 728 261 699 q 474 758 393 758 q 588 739 543 758 q 655 690 633 719 q 676 625 676 660 q 662 576 676 599 q 620 541 647 554 q 553 528 593 528 q 527 643 553 594 q 446 692 501 692 q 364 662 401 692 q 297 584 326 632 q 247 478 267 536 q 215 364 226 421 q 204 263 204 307 q 243 124 204 174 q 357 74 282 74 q 479 106 431 74 q 557 174 528 138 q 567 160 564 169 q 571 139 571 150 q 545 73 571 108 q 467 12 519 38 q 331 -14 414 -14 m 428 842 l 432 860 q 483 922 457 888 q 535 994 510 957 q 581 1064 560 1031 l 729 1064 l 725 1050 q 681 1001 708 1029 q 619 944 653 974 q 550 888 585 914 q 483 842 515 861 l 428 842 z "},"":{"ha":871,"x_min":72,"x_max":901,"o":"m 456 -14 q 249 30 335 -14 q 118 157 164 74 q 72 358 72 240 q 113 598 72 482 q 228 806 153 714 q 410 951 304 897 q 644 1006 515 1006 q 835 963 768 1006 q 901 851 901 921 q 864 772 901 801 q 765 743 826 743 q 760 805 765 772 q 741 867 756 838 q 699 914 726 896 q 626 932 672 932 q 487 895 550 932 q 374 797 424 858 q 292 657 325 735 q 241 497 258 579 q 224 336 224 414 q 251 196 224 254 q 334 107 279 138 q 471 76 389 76 q 631 116 569 76 q 728 203 693 156 q 741 185 736 197 q 746 157 746 172 q 716 81 746 121 q 622 13 686 40 q 456 -14 558 -14 m 454 1089 q 516 1151 482 1115 q 583 1225 550 1188 q 638 1293 617 1263 l 769 1293 q 794 1225 778 1263 q 829 1151 810 1188 q 864 1089 849 1115 l 860 1071 l 811 1071 q 766 1107 789 1086 q 724 1151 743 1128 q 688 1196 704 1174 q 633 1151 663 1174 q 572 1107 603 1128 q 510 1071 540 1086 l 450 1071 l 454 1089 z "},"":{"ha":676,"x_min":60,"x_max":703,"o":"m 331 -14 q 195 18 257 -14 q 97 113 133 50 q 60 274 60 176 q 77 402 60 335 q 128 533 94 469 q 211 647 161 596 q 327 728 261 699 q 474 758 393 758 q 588 739 543 758 q 655 690 633 719 q 676 625 676 660 q 662 576 676 599 q 620 541 647 554 q 553 528 593 528 q 527 643 553 594 q 446 692 501 692 q 364 662 401 692 q 297 584 326 632 q 247 478 267 536 q 215 364 226 421 q 204 263 204 307 q 243 124 204 174 q 357 74 282 74 q 479 106 431 74 q 557 174 528 138 q 567 160 564 169 q 571 139 571 150 q 545 73 571 108 q 467 12 519 38 q 331 -14 414 -14 m 293 860 q 355 922 321 886 q 422 996 389 958 q 476 1064 456 1033 l 608 1064 q 633 996 617 1033 q 668 922 649 958 q 703 860 688 886 l 699 842 l 650 842 q 605 878 628 857 q 563 922 582 899 q 526 967 543 944 q 472 922 501 944 q 410 878 442 899 q 349 842 379 857 l 289 842 l 293 860 z "},"":{"ha":871,"x_min":72,"x_max":901,"o":"m 456 -14 q 249 30 335 -14 q 118 157 164 74 q 72 358 72 240 q 113 598 72 482 q 228 806 153 714 q 410 951 304 897 q 644 1006 515 1006 q 835 963 768 1006 q 901 851 901 921 q 864 772 901 801 q 765 743 826 743 q 760 805 765 772 q 741 867 756 838 q 699 914 726 896 q 626 932 672 932 q 487 895 550 932 q 374 797 424 858 q 292 657 325 735 q 241 497 258 579 q 224 336 224 414 q 251 196 224 254 q 334 107 279 138 q 471 76 389 76 q 631 116 569 76 q 728 203 693 156 q 741 185 736 197 q 746 157 746 172 q 716 81 746 121 q 622 13 686 40 q 456 -14 558 -14 m 699 1113 q 642 1131 664 1113 q 621 1189 621 1150 q 631 1240 621 1218 q 660 1274 642 1261 q 704 1286 679 1286 q 760 1267 738 1286 q 782 1210 782 1249 q 769 1152 782 1174 q 738 1122 757 1131 q 699 1113 719 1113 z "},"":{"ha":676,"x_min":60,"x_max":676,"o":"m 331 -14 q 195 18 257 -14 q 97 113 133 50 q 60 274 60 176 q 77 402 60 335 q 128 533 94 469 q 211 647 161 596 q 327 728 261 699 q 474 758 393 758 q 588 739 543 758 q 655 690 633 719 q 676 625 676 660 q 662 576 676 599 q 620 541 647 554 q 553 528 593 528 q 527 643 553 594 q 446 692 501 692 q 364 662 401 692 q 297 584 326 632 q 247 478 267 536 q 215 364 226 421 q 204 263 204 307 q 243 124 204 174 q 357 74 282 74 q 479 106 431 74 q 557 174 528 138 q 567 160 564 169 q 571 139 571 150 q 545 73 571 108 q 467 12 519 38 q 331 -14 414 -14 m 517 883 q 460 902 482 883 q 439 960 439 921 q 449 1010 439 989 q 478 1044 460 1032 q 522 1057 497 1057 q 578 1038 556 1057 q 600 981 600 1019 q 588 923 600 944 q 556 892 575 901 q 517 883 538 883 z "},"":{"ha":871,"x_min":72,"x_max":1001,"o":"m 456 -14 q 249 30 335 -14 q 118 157 164 74 q 72 358 72 240 q 113 598 72 482 q 228 806 153 714 q 410 951 304 897 q 644 1006 515 1006 q 835 963 768 1006 q 901 851 901 921 q 864 772 901 801 q 765 743 826 743 q 760 805 765 772 q 741 867 756 838 q 699 914 726 896 q 626 932 672 932 q 487 895 550 932 q 374 797 424 858 q 292 657 325 735 q 241 497 258 579 q 224 336 224 414 q 251 196 224 254 q 334 107 279 138 q 471 76 389 76 q 631 116 569 76 q 728 203 693 156 q 741 185 736 197 q 746 157 746 172 q 716 81 746 121 q 622 13 686 40 q 456 -14 558 -14 m 682 1071 q 656 1142 672 1104 q 622 1214 639 1179 q 588 1275 604 1249 l 592 1293 l 642 1293 q 683 1256 663 1276 q 724 1212 704 1235 q 760 1167 743 1189 q 817 1212 786 1189 q 881 1256 847 1235 q 943 1293 914 1278 l 1001 1293 l 997 1275 q 938 1214 971 1249 q 872 1142 904 1179 q 814 1071 840 1106 l 682 1071 z "},"":{"ha":676,"x_min":60,"x_max":817,"o":"m 331 -14 q 195 18 257 -14 q 97 113 133 50 q 60 274 60 176 q 77 402 60 335 q 128 533 94 469 q 211 647 161 596 q 327 728 261 699 q 474 758 393 758 q 588 739 543 758 q 655 690 633 719 q 676 625 676 660 q 662 576 676 599 q 620 541 647 554 q 553 528 593 528 q 527 643 553 594 q 446 692 501 692 q 364 662 401 692 q 297 584 326 632 q 247 478 267 536 q 215 364 226 421 q 204 263 204 307 q 243 124 204 174 q 357 74 282 74 q 479 106 431 74 q 557 174 528 138 q 567 160 564 169 q 571 139 571 150 q 545 73 571 108 q 467 12 519 38 q 331 -14 414 -14 m 497 842 q 471 913 488 875 q 437 985 454 950 q 403 1046 419 1019 l 407 1064 l 457 1064 q 499 1026 478 1047 q 539 983 519 1006 q 575 938 558 960 q 632 983 601 960 q 696 1027 663 1006 q 758 1064 729 1049 l 817 1064 l 813 1046 q 753 985 786 1019 q 688 913 719 950 q 629 842 656 876 l 497 842 z "},"":{"ha":1007,"x_min":-29,"x_max":964,"o":"m -29 0 l -18 58 l 0 58 q 59 65 32 58 q 107 94 86 72 q 136 158 128 115 l 281 839 q 285 859 283 849 q 286 878 286 869 q 255 924 286 915 q 186 933 224 933 l 168 933 l 181 992 l 569 992 q 860 895 757 992 q 964 614 964 799 q 928 379 964 490 q 821 183 892 268 q 647 49 750 97 q 408 0 543 0 l -29 0 m 378 71 q 561 112 481 71 q 698 227 642 153 q 783 404 754 301 q 813 629 813 507 q 741 852 813 782 q 549 922 669 922 l 439 922 l 257 71 l 378 71 m 597 1071 q 571 1142 588 1104 q 537 1214 554 1179 q 503 1275 519 1249 l 507 1293 l 557 1293 q 599 1256 578 1276 q 639 1212 619 1235 q 675 1167 658 1189 q 732 1212 701 1189 q 796 1256 763 1235 q 858 1293 829 1278 l 917 1293 l 913 1275 q 853 1214 886 1249 q 788 1142 819 1179 q 729 1071 756 1106 l 597 1071 z "},"":{"ha":804,"x_min":60,"x_max":1029,"o":"m 826 851 q 855 917 840 882 q 883 987 869 951 q 908 1056 897 1022 l 1029 1056 l 1026 1042 q 981 975 1008 1013 q 925 900 954 938 q 871 833 896 863 l 824 833 l 826 851 m 239 -14 q 138 19 178 -14 q 78 110 97 53 q 60 240 60 168 q 77 377 60 306 q 129 516 94 449 q 214 638 164 583 q 329 726 264 693 q 474 758 394 758 q 549 749 514 758 q 611 724 585 739 q 618 766 614 742 q 625 803 622 790 l 639 869 q 646 906 643 889 q 649 932 649 924 q 620 985 649 974 q 551 997 592 997 l 540 997 l 553 1056 l 808 1056 l 647 299 q 639 254 644 283 q 630 194 633 225 q 626 144 626 164 q 638 92 626 110 q 672 74 650 74 q 721 84 696 74 q 772 110 746 94 l 797 69 q 744 32 778 51 q 674 -1 711 13 q 601 -14 636 -14 q 522 17 551 -14 q 493 101 493 47 q 497 147 493 119 q 507 210 500 175 l 499 210 q 386 44 451 103 q 239 -14 321 -14 m 289 74 q 363 101 325 74 q 435 176 401 129 q 496 282 469 224 q 535 400 522 340 l 586 646 q 542 683 571 671 q 481 696 513 696 q 381 665 425 696 q 303 582 336 633 q 247 469 269 531 q 213 347 224 408 q 201 235 201 285 q 226 111 201 149 q 289 74 251 74 z "},"":{"ha":1007,"x_min":-29,"x_max":964,"o":"m 71 485 l 86 553 l 594 553 l 579 485 l 71 485 m -29 0 l -18 58 l 0 58 q 59 65 32 58 q 107 94 86 72 q 136 158 128 115 l 281 839 q 285 859 283 849 q 286 878 286 869 q 255 924 286 915 q 186 933 224 933 l 168 933 l 181 992 l 569 992 q 860 895 757 992 q 964 614 964 799 q 928 379 964 490 q 821 183 892 268 q 647 49 750 97 q 408 0 543 0 l -29 0 m 378 71 q 561 112 481 71 q 698 227 642 153 q 783 404 754 301 q 813 629 813 507 q 741 852 813 782 q 549 922 669 922 l 439 922 l 257 71 l 378 71 z "},"":{"ha":803,"x_min":58,"x_max":897,"o":"m 238 -14 q 136 19 176 -14 q 77 110 96 53 q 58 240 58 168 q 76 369 58 301 q 127 500 93 436 q 211 616 161 564 q 326 699 261 668 q 469 731 390 731 q 545 721 510 731 q 607 696 581 711 q 616 753 610 715 q 628 824 622 790 l 390 824 l 403 889 l 640 889 l 644 903 q 644 957 651 936 q 615 988 638 978 q 550 997 592 997 l 539 997 l 551 1056 l 807 1056 l 771 889 l 897 889 l 885 824 l 757 824 l 646 299 q 638 254 643 283 q 628 194 632 225 q 625 144 625 164 q 637 92 625 110 q 671 74 649 74 q 719 84 694 74 q 771 110 744 94 l 796 69 q 743 32 776 51 q 672 -1 710 13 q 600 -14 635 -14 q 521 17 550 -14 q 492 101 492 47 q 495 147 492 119 q 506 210 499 175 l 497 210 q 385 44 450 103 q 238 -14 319 -14 m 288 74 q 361 101 324 74 q 433 176 399 129 q 493 282 467 224 q 533 400 519 340 l 582 618 q 538 656 567 643 q 476 668 508 668 q 377 638 421 668 q 300 560 333 608 q 244 455 267 513 q 211 340 222 397 q 200 235 200 282 q 225 111 200 149 q 288 74 250 74 z "},"":{"ha":865,"x_min":-29,"x_max":881,"o":"m -29 0 l -18 58 l 0 58 q 58 65 31 58 q 106 90 85 71 q 135 151 126 110 l 279 833 q 283 851 282 843 q 283 867 283 860 q 255 922 283 911 q 186 933 226 933 l 168 933 l 181 992 l 881 992 l 836 749 l 764 749 q 767 774 765 756 q 769 809 768 792 q 771 829 771 826 q 749 895 771 868 q 672 922 726 922 l 439 922 l 360 553 l 694 553 l 681 485 l 346 485 l 257 69 l 525 69 q 600 85 569 69 q 651 127 631 101 q 682 183 671 153 l 704 243 l 776 243 l 715 0 l -29 0 m 365 1071 l 383 1153 l 786 1153 l 768 1071 l 365 1071 z "},"":{"ha":685,"x_min":60,"x_max":700,"o":"m 331 -14 q 195 18 257 -14 q 97 113 133 50 q 60 274 60 176 q 77 402 60 335 q 128 533 94 469 q 211 647 161 596 q 327 728 261 699 q 474 758 393 758 q 610 716 561 758 q 658 599 658 674 q 606 463 658 526 q 463 360 554 399 q 256 321 372 321 l 207 321 q 205 291 206 306 q 204 263 204 276 q 243 124 204 174 q 357 74 282 74 q 476 106 424 74 q 557 174 528 138 q 571 139 571 164 q 545 73 571 108 q 467 12 519 38 q 331 -14 414 -14 m 233 385 q 378 412 315 385 q 478 487 442 439 q 515 599 515 535 q 494 669 515 646 q 435 692 474 692 q 361 665 396 692 q 299 592 326 638 q 251 493 271 547 q 219 385 231 439 l 233 385 m 279 842 l 297 924 l 700 924 l 682 842 l 279 842 z "},"":{"ha":865,"x_min":-29,"x_max":881,"o":"m -29 0 l -18 58 l 0 58 q 58 65 31 58 q 106 90 85 71 q 135 151 126 110 l 279 833 q 283 851 282 843 q 283 867 283 860 q 255 922 283 911 q 186 933 226 933 l 168 933 l 181 992 l 881 992 l 836 749 l 764 749 q 767 774 765 756 q 769 809 768 792 q 771 829 771 826 q 749 895 771 868 q 672 922 726 922 l 439 922 l 360 553 l 694 553 l 681 485 l 346 485 l 257 69 l 525 69 q 600 85 569 69 q 651 127 631 101 q 682 183 671 153 l 704 243 l 776 243 l 715 0 l -29 0 m 558 1071 q 465 1093 503 1071 q 408 1158 428 1115 q 383 1261 388 1200 l 447 1261 q 485 1190 453 1214 q 568 1167 517 1167 q 658 1189 619 1167 q 718 1261 696 1211 l 782 1261 q 740 1166 769 1210 q 665 1097 710 1122 q 558 1071 619 1071 z "},"":{"ha":685,"x_min":60,"x_max":693,"o":"m 331 -14 q 195 18 257 -14 q 97 113 133 50 q 60 274 60 176 q 77 402 60 335 q 128 533 94 469 q 211 647 161 596 q 327 728 261 699 q 474 758 393 758 q 610 716 561 758 q 658 599 658 674 q 606 463 658 526 q 463 360 554 399 q 256 321 372 321 l 207 321 q 205 291 206 306 q 204 263 204 276 q 243 124 204 174 q 357 74 282 74 q 476 106 424 74 q 557 174 528 138 q 571 139 571 164 q 545 73 571 108 q 467 12 519 38 q 331 -14 414 -14 m 233 385 q 378 412 315 385 q 478 487 442 439 q 515 599 515 535 q 494 669 515 646 q 435 692 474 692 q 361 665 396 692 q 299 592 326 638 q 251 493 271 547 q 219 385 231 439 l 233 385 m 469 842 q 376 864 414 842 q 319 928 339 886 q 294 1032 299 971 l 358 1032 q 396 961 364 985 q 479 938 428 938 q 569 960 531 938 q 629 1032 607 982 l 693 1032 q 651 937 681 981 q 576 867 621 893 q 469 842 531 842 z "},"":{"ha":865,"x_min":-29,"x_max":881,"o":"m -29 0 l -18 58 l 0 58 q 58 65 31 58 q 106 90 85 71 q 135 151 126 110 l 279 833 q 283 851 282 843 q 283 867 283 860 q 255 922 283 911 q 186 933 226 933 l 168 933 l 181 992 l 881 992 l 836 749 l 764 749 q 767 774 765 756 q 769 809 768 792 q 771 829 771 826 q 749 895 771 868 q 672 922 726 922 l 439 922 l 360 553 l 694 553 l 681 485 l 346 485 l 257 69 l 525 69 q 600 85 569 69 q 651 127 631 101 q 682 183 671 153 l 704 243 l 776 243 l 715 0 l -29 0 m 571 1093 q 515 1112 536 1093 q 493 1169 493 1131 q 503 1220 493 1199 q 533 1254 514 1242 q 576 1267 551 1267 q 632 1248 610 1267 q 654 1190 654 1229 q 642 1133 654 1154 q 610 1102 629 1111 q 571 1093 592 1093 z "},"":{"ha":685,"x_min":60,"x_max":658,"o":"m 331 -14 q 195 18 257 -14 q 97 113 133 50 q 60 274 60 176 q 77 402 60 335 q 128 533 94 469 q 211 647 161 596 q 327 728 261 699 q 474 758 393 758 q 610 716 561 758 q 658 599 658 674 q 606 463 658 526 q 463 360 554 399 q 256 321 372 321 l 207 321 q 205 291 206 306 q 204 263 204 276 q 243 124 204 174 q 357 74 282 74 q 476 106 424 74 q 557 174 528 138 q 571 139 571 164 q 545 73 571 108 q 467 12 519 38 q 331 -14 414 -14 m 233 385 q 378 412 315 385 q 478 487 442 439 q 515 599 515 535 q 494 669 515 646 q 435 692 474 692 q 361 665 396 692 q 299 592 326 638 q 251 493 271 547 q 219 385 231 439 l 233 385 m 490 883 q 434 902 456 883 q 413 960 413 921 q 423 1010 413 989 q 452 1044 433 1032 q 496 1057 471 1057 q 551 1038 529 1057 q 574 981 574 1019 q 561 923 574 944 q 530 892 549 901 q 490 883 511 883 z "},"":{"ha":865,"x_min":-29,"x_max":881,"o":"m -29 0 l -18 58 l 0 58 q 58 65 31 58 q 106 90 85 71 q 135 151 126 110 l 279 833 q 283 851 282 843 q 283 867 283 860 q 255 922 283 911 q 186 933 226 933 l 168 933 l 181 992 l 881 992 l 836 749 l 764 749 q 767 774 765 756 q 769 809 768 792 q 771 829 771 826 q 749 895 771 868 q 672 922 726 922 l 439 922 l 360 553 l 694 553 l 681 485 l 346 485 l 257 69 l 525 69 q 600 85 569 69 q 651 127 631 101 q 682 183 671 153 l 704 243 l 776 243 l 715 0 l -29 0 m 522 -333 q 403 -297 446 -333 q 360 -192 360 -260 q 386 -103 360 -142 q 459 -40 413 -65 q 567 0 506 -14 l 646 0 q 575 -32 614 -10 q 508 -89 536 -54 q 481 -172 481 -124 q 503 -227 481 -207 q 560 -247 525 -247 q 601 -244 579 -247 q 650 -236 624 -242 l 633 -311 q 581 -327 610 -321 q 522 -333 553 -333 z "},"":{"ha":685,"x_min":60,"x_max":658,"o":"m 331 -14 q 195 18 257 -14 q 97 113 133 50 q 60 274 60 176 q 77 402 60 335 q 128 533 94 469 q 211 647 161 596 q 327 728 261 699 q 474 758 393 758 q 610 716 561 758 q 658 599 658 674 q 606 463 658 526 q 463 360 554 399 q 256 321 372 321 l 207 321 q 205 291 206 306 q 204 263 204 276 q 243 124 204 174 q 357 74 282 74 q 476 106 424 74 q 557 174 528 138 q 571 139 571 164 q 545 73 571 108 q 467 12 519 38 q 331 -14 414 -14 m 233 385 q 378 412 315 385 q 478 487 442 439 q 515 599 515 535 q 494 669 515 646 q 435 692 474 692 q 361 665 396 692 q 299 592 326 638 q 251 493 271 547 q 219 385 231 439 l 233 385 m 358 -312 q 239 -276 282 -312 q 196 -171 196 -239 q 222 -83 196 -121 q 295 -19 249 -44 q 403 21 342 7 l 482 21 q 411 -11 450 11 q 344 -68 372 -33 q 317 -151 317 -103 q 339 -206 317 -186 q 396 -226 361 -226 q 438 -224 415 -226 q 486 -215 460 -221 l 469 -290 q 417 -306 446 -300 q 358 -312 389 -312 z "},"":{"ha":865,"x_min":-29,"x_max":889,"o":"m -29 0 l -18 58 l 0 58 q 58 65 31 58 q 106 90 85 71 q 135 151 126 110 l 279 833 q 283 851 282 843 q 283 867 283 860 q 255 922 283 911 q 186 933 226 933 l 168 933 l 181 992 l 881 992 l 836 749 l 764 749 q 767 774 765 756 q 769 809 768 792 q 771 829 771 826 q 749 895 771 868 q 672 922 726 922 l 439 922 l 360 553 l 694 553 l 681 485 l 346 485 l 257 69 l 525 69 q 600 85 569 69 q 651 127 631 101 q 682 183 671 153 l 704 243 l 776 243 l 715 0 l -29 0 m 569 1071 q 543 1142 560 1104 q 509 1214 526 1179 q 475 1275 492 1249 l 479 1293 l 529 1293 q 571 1256 550 1276 q 611 1212 592 1235 q 647 1167 631 1189 q 704 1212 674 1189 q 768 1256 735 1235 q 831 1293 801 1278 l 889 1293 l 885 1275 q 825 1214 858 1249 q 760 1142 792 1179 q 701 1071 728 1106 l 569 1071 z "},"":{"ha":685,"x_min":60,"x_max":822,"o":"m 331 -14 q 195 18 257 -14 q 97 113 133 50 q 60 274 60 176 q 77 402 60 335 q 128 533 94 469 q 211 647 161 596 q 327 728 261 699 q 474 758 393 758 q 610 716 561 758 q 658 599 658 674 q 606 463 658 526 q 463 360 554 399 q 256 321 372 321 l 207 321 q 205 291 206 306 q 204 263 204 276 q 243 124 204 174 q 357 74 282 74 q 476 106 424 74 q 557 174 528 138 q 571 139 571 164 q 545 73 571 108 q 467 12 519 38 q 331 -14 414 -14 m 233 385 q 378 412 315 385 q 478 487 442 439 q 515 599 515 535 q 494 669 515 646 q 435 692 474 692 q 361 665 396 692 q 299 592 326 638 q 251 493 271 547 q 219 385 231 439 l 233 385 m 503 842 q 476 913 493 875 q 442 985 460 950 q 408 1046 425 1019 l 413 1064 l 463 1064 q 504 1026 483 1047 q 544 983 525 1006 q 581 938 564 960 q 638 983 607 960 q 701 1027 668 1006 q 764 1064 735 1049 l 822 1064 l 818 1046 q 758 985 792 1019 q 693 913 725 950 q 635 842 661 876 l 503 842 z "},"":{"ha":992,"x_min":72,"x_max":969,"o":"m 467 -14 q 172 86 271 -14 q 72 358 72 186 q 115 610 72 493 q 238 817 158 728 q 426 956 317 906 q 669 1006 536 1006 q 833 985 768 1006 q 931 931 899 965 q 963 856 963 897 q 942 795 963 819 q 889 758 922 771 q 815 746 856 746 q 774 880 815 828 q 640 932 732 932 q 476 883 551 932 q 343 751 400 835 q 255 561 286 668 q 224 336 224 454 q 251 196 224 257 q 337 100 278 135 q 492 65 396 65 q 575 71 532 65 q 649 85 618 76 l 694 306 q 699 326 697 314 q 700 344 700 339 q 670 390 700 381 q 600 400 640 400 l 588 400 l 600 458 l 969 458 l 957 400 l 951 400 q 903 393 926 400 q 861 365 879 386 q 833 300 843 344 l 781 50 q 631 2 704 18 q 467 -14 557 -14 m 454 1089 q 516 1151 482 1115 q 583 1225 550 1188 q 638 1293 617 1263 l 769 1293 q 794 1225 778 1263 q 829 1151 810 1188 q 864 1089 849 1115 l 860 1071 l 811 1071 q 766 1107 789 1086 q 724 1151 743 1128 q 688 1196 704 1174 q 633 1151 663 1174 q 572 1107 603 1128 q 510 1071 540 1086 l 450 1071 l 454 1089 z "},"":{"ha":772,"x_min":-49,"x_max":831,"o":"m 254 -333 q 85 -312 153 -333 q -15 -251 18 -292 q -49 -153 -49 -211 q -16 -54 -49 -94 q 69 11 17 -14 q 178 47 121 36 q 131 85 151 60 q 111 143 111 110 q 140 217 111 188 q 243 285 169 247 q 172 347 197 306 q 146 449 146 389 q 165 551 146 497 q 224 653 185 606 q 325 729 264 700 q 468 758 386 758 q 547 748 510 758 q 611 714 583 738 q 676 783 639 754 q 761 813 714 813 q 813 794 796 813 q 831 749 831 776 q 823 709 831 729 q 798 676 815 689 q 749 663 781 663 q 739 698 749 683 q 710 713 729 713 q 674 702 690 713 q 642 681 657 692 q 665 633 657 660 q 672 574 672 606 q 653 473 672 526 q 596 372 635 419 q 497 293 557 324 q 354 263 436 263 q 340 263 347 263 q 324 263 332 263 q 310 265 317 264 q 245 231 279 251 q 211 178 211 210 q 231 147 211 156 q 282 136 251 139 l 415 122 q 574 68 518 113 q 631 -60 631 24 q 607 -173 631 -122 q 536 -259 583 -224 q 419 -314 489 -294 q 254 -333 349 -333 m 260 -265 q 406 -242 351 -265 q 485 -181 461 -219 q 510 -99 510 -143 q 479 -28 510 -54 q 381 4 449 -1 l 246 17 q 157 -8 199 11 q 90 -60 115 -26 q 64 -144 64 -94 q 82 -207 64 -179 q 143 -250 100 -235 q 260 -265 186 -265 m 369 329 q 450 355 417 329 q 505 420 483 381 q 536 503 526 460 q 546 581 546 546 q 520 667 546 640 q 450 694 494 694 q 369 669 403 694 q 315 603 336 643 q 283 521 293 564 q 274 443 274 478 q 300 356 274 383 q 369 329 326 329 m 261 860 q 323 922 289 886 q 390 996 357 958 q 444 1064 424 1033 l 576 1064 q 601 996 585 1033 q 636 922 617 958 q 671 860 656 886 l 667 842 l 618 842 q 573 878 596 857 q 531 922 550 899 q 494 967 511 944 q 440 922 469 944 q 378 878 410 899 q 317 842 347 857 l 257 842 l 261 860 z "},"":{"ha":992,"x_min":72,"x_max":969,"o":"m 467 -14 q 172 86 271 -14 q 72 358 72 186 q 115 610 72 493 q 238 817 158 728 q 426 956 317 906 q 669 1006 536 1006 q 833 985 768 1006 q 931 931 899 965 q 963 856 963 897 q 942 795 963 819 q 889 758 922 771 q 815 746 856 746 q 774 880 815 828 q 640 932 732 932 q 476 883 551 932 q 343 751 400 835 q 255 561 286 668 q 224 336 224 454 q 251 196 224 257 q 337 100 278 135 q 492 65 396 65 q 575 71 532 65 q 649 85 618 76 l 694 306 q 699 326 697 314 q 700 344 700 339 q 670 390 700 381 q 600 400 640 400 l 588 400 l 600 458 l 969 458 l 957 400 l 951 400 q 903 393 926 400 q 861 365 879 386 q 833 300 843 344 l 781 50 q 631 2 704 18 q 467 -14 557 -14 m 651 1071 q 558 1093 596 1071 q 501 1158 521 1115 q 476 1261 481 1200 l 540 1261 q 578 1190 546 1214 q 661 1167 610 1167 q 751 1189 713 1167 q 811 1261 789 1211 l 875 1261 q 833 1166 863 1210 q 758 1097 803 1122 q 651 1071 713 1071 z "},"":{"ha":772,"x_min":-49,"x_max":831,"o":"m 254 -333 q 85 -312 153 -333 q -15 -251 18 -292 q -49 -153 -49 -211 q -16 -54 -49 -94 q 69 11 17 -14 q 178 47 121 36 q 131 85 151 60 q 111 143 111 110 q 140 217 111 188 q 243 285 169 247 q 172 347 197 306 q 146 449 146 389 q 165 551 146 497 q 224 653 185 606 q 325 729 264 700 q 468 758 386 758 q 547 748 510 758 q 611 714 583 738 q 676 783 639 754 q 761 813 714 813 q 813 794 796 813 q 831 749 831 776 q 823 709 831 729 q 798 676 815 689 q 749 663 781 663 q 739 698 749 683 q 710 713 729 713 q 674 702 690 713 q 642 681 657 692 q 665 633 657 660 q 672 574 672 606 q 653 473 672 526 q 596 372 635 419 q 497 293 557 324 q 354 263 436 263 q 340 263 347 263 q 324 263 332 263 q 310 265 317 264 q 245 231 279 251 q 211 178 211 210 q 231 147 211 156 q 282 136 251 139 l 415 122 q 574 68 518 113 q 631 -60 631 24 q 607 -173 631 -122 q 536 -259 583 -224 q 419 -314 489 -294 q 254 -333 349 -333 m 260 -265 q 406 -242 351 -265 q 485 -181 461 -219 q 510 -99 510 -143 q 479 -28 510 -54 q 381 4 449 -1 l 246 17 q 157 -8 199 11 q 90 -60 115 -26 q 64 -144 64 -94 q 82 -207 64 -179 q 143 -250 100 -235 q 260 -265 186 -265 m 369 329 q 450 355 417 329 q 505 420 483 381 q 536 503 526 460 q 546 581 546 546 q 520 667 546 640 q 450 694 494 694 q 369 669 403 694 q 315 603 336 643 q 283 521 293 564 q 274 443 274 478 q 300 356 274 383 q 369 329 326 329 m 481 842 q 388 864 425 842 q 330 928 350 886 q 306 1032 310 971 l 369 1032 q 407 961 375 985 q 490 938 439 938 q 580 960 542 938 q 640 1032 618 982 l 704 1032 q 662 937 692 981 q 587 867 632 893 q 481 842 542 842 z "},"":{"ha":992,"x_min":72,"x_max":969,"o":"m 467 -14 q 172 86 271 -14 q 72 358 72 186 q 115 610 72 493 q 238 817 158 728 q 426 956 317 906 q 669 1006 536 1006 q 833 985 768 1006 q 931 931 899 965 q 963 856 963 897 q 942 795 963 819 q 889 758 922 771 q 815 746 856 746 q 774 880 815 828 q 640 932 732 932 q 476 883 551 932 q 343 751 400 835 q 255 561 286 668 q 224 336 224 454 q 251 196 224 257 q 337 100 278 135 q 492 65 396 65 q 575 71 532 65 q 649 85 618 76 l 694 306 q 699 326 697 314 q 700 344 700 339 q 670 390 700 381 q 600 400 640 400 l 588 400 l 600 458 l 969 458 l 957 400 l 951 400 q 903 393 926 400 q 861 365 879 386 q 833 300 843 344 l 781 50 q 631 2 704 18 q 467 -14 557 -14 m 696 1113 q 640 1131 661 1113 q 618 1189 618 1150 q 628 1240 618 1218 q 658 1274 639 1261 q 701 1286 676 1286 q 757 1267 735 1286 q 779 1210 779 1249 q 767 1152 779 1174 q 735 1122 754 1131 q 696 1113 717 1113 z "},"":{"ha":772,"x_min":-49,"x_max":831,"o":"m 254 -333 q 85 -312 153 -333 q -15 -251 18 -292 q -49 -153 -49 -211 q -16 -54 -49 -94 q 69 11 17 -14 q 178 47 121 36 q 131 85 151 60 q 111 143 111 110 q 140 217 111 188 q 243 285 169 247 q 172 347 197 306 q 146 449 146 389 q 165 551 146 497 q 224 653 185 606 q 325 729 264 700 q 468 758 386 758 q 547 748 510 758 q 611 714 583 738 q 676 783 639 754 q 761 813 714 813 q 813 794 796 813 q 831 749 831 776 q 823 709 831 729 q 798 676 815 689 q 749 663 781 663 q 739 698 749 683 q 710 713 729 713 q 674 702 690 713 q 642 681 657 692 q 665 633 657 660 q 672 574 672 606 q 653 473 672 526 q 596 372 635 419 q 497 293 557 324 q 354 263 436 263 q 340 263 347 263 q 324 263 332 263 q 310 265 317 264 q 245 231 279 251 q 211 178 211 210 q 231 147 211 156 q 282 136 251 139 l 415 122 q 574 68 518 113 q 631 -60 631 24 q 607 -173 631 -122 q 536 -259 583 -224 q 419 -314 489 -294 q 254 -333 349 -333 m 260 -265 q 406 -242 351 -265 q 485 -181 461 -219 q 510 -99 510 -143 q 479 -28 510 -54 q 381 4 449 -1 l 246 17 q 157 -8 199 11 q 90 -60 115 -26 q 64 -144 64 -94 q 82 -207 64 -179 q 143 -250 100 -235 q 260 -265 186 -265 m 369 329 q 450 355 417 329 q 505 420 483 381 q 536 503 526 460 q 546 581 546 546 q 520 667 546 640 q 450 694 494 694 q 369 669 403 694 q 315 603 336 643 q 283 521 293 564 q 274 443 274 478 q 300 356 274 383 q 369 329 326 329 m 507 883 q 451 902 472 883 q 429 960 429 921 q 440 1010 429 989 q 469 1044 450 1032 q 513 1057 488 1057 q 568 1038 546 1057 q 590 981 590 1019 q 578 923 590 944 q 547 892 565 901 q 507 883 528 883 z "},"":{"ha":992,"x_min":72,"x_max":969,"o":"m 467 -14 q 172 86 271 -14 q 72 358 72 186 q 115 610 72 493 q 238 817 158 728 q 426 956 317 906 q 669 1006 536 1006 q 833 985 768 1006 q 931 931 899 965 q 963 856 963 897 q 942 795 963 819 q 889 758 922 771 q 815 746 856 746 q 774 880 815 828 q 640 932 732 932 q 476 883 551 932 q 343 751 400 835 q 255 561 286 668 q 224 336 224 454 q 251 196 224 257 q 337 100 278 135 q 492 65 396 65 q 575 71 532 65 q 649 85 618 76 l 694 306 q 699 326 697 314 q 700 344 700 339 q 670 390 700 381 q 600 400 640 400 l 588 400 l 600 458 l 969 458 l 957 400 l 951 400 q 903 393 926 400 q 861 365 879 386 q 833 300 843 344 l 781 50 q 631 2 704 18 q 467 -14 557 -14 m 275 -289 q 317 -189 296 -243 q 357 -85 339 -135 l 478 -85 l 475 -99 q 442 -147 461 -121 q 402 -202 424 -174 q 360 -258 381 -231 q 319 -307 339 -285 l 272 -307 l 275 -289 z "},"":{"ha":772,"x_min":-49,"x_max":831,"o":"m 426 856 q 472 922 444 885 q 528 997 499 960 q 582 1064 557 1035 l 629 1064 l 626 1046 q 584 946 606 1000 q 544 842 563 892 l 424 842 l 426 856 m 254 -333 q 85 -312 153 -333 q -15 -251 18 -292 q -49 -153 -49 -211 q -16 -54 -49 -94 q 69 11 17 -14 q 178 47 121 36 q 131 85 151 60 q 111 143 111 110 q 140 217 111 188 q 243 285 169 247 q 172 347 197 306 q 146 449 146 389 q 165 551 146 497 q 224 653 185 606 q 325 729 264 700 q 468 758 386 758 q 547 748 510 758 q 611 714 583 738 q 676 783 639 754 q 761 813 714 813 q 813 794 796 813 q 831 749 831 776 q 823 709 831 729 q 798 676 815 689 q 749 663 781 663 q 739 698 749 683 q 710 713 729 713 q 674 702 690 713 q 642 681 657 692 q 665 633 657 660 q 672 574 672 606 q 653 473 672 526 q 596 372 635 419 q 497 293 557 324 q 354 263 436 263 q 340 263 347 263 q 324 263 332 263 q 310 265 317 264 q 245 231 279 251 q 211 178 211 210 q 231 147 211 156 q 282 136 251 139 l 415 122 q 574 68 518 113 q 631 -60 631 24 q 607 -173 631 -122 q 536 -259 583 -224 q 419 -314 489 -294 q 254 -333 349 -333 m 260 -265 q 406 -242 351 -265 q 485 -181 461 -219 q 510 -99 510 -143 q 479 -28 510 -54 q 381 4 449 -1 l 246 17 q 157 -8 199 11 q 90 -60 115 -26 q 64 -144 64 -94 q 82 -207 64 -179 q 143 -250 100 -235 q 260 -265 186 -265 m 369 329 q 450 355 417 329 q 505 420 483 381 q 536 503 526 460 q 546 581 546 546 q 520 667 546 640 q 450 694 494 694 q 369 669 403 694 q 315 603 336 643 q 283 521 293 564 q 274 443 274 478 q 300 356 274 383 q 369 329 326 329 z "},"":{"ha":1101,"x_min":-29,"x_max":1176,"o":"m -29 0 l -18 58 l 0 58 q 59 65 32 58 q 107 94 86 72 q 136 158 128 115 l 281 839 q 285 860 283 847 q 286 878 286 872 q 274 913 286 901 q 238 929 261 925 q 186 933 215 933 l 168 933 l 181 992 l 585 992 l 572 933 l 554 933 q 496 926 524 933 q 449 899 468 919 q 419 833 429 878 l 360 553 l 811 553 l 872 839 q 876 860 875 847 q 878 878 878 872 q 850 924 878 914 q 778 933 822 933 l 760 933 l 772 992 l 1176 992 l 1164 933 l 1146 933 q 1088 926 1115 933 q 1040 899 1060 919 q 1011 833 1021 878 l 867 153 q 863 133 865 144 q 861 114 861 121 q 874 78 861 90 q 910 63 888 67 q 961 58 932 58 l 979 58 l 967 0 l 563 0 l 574 58 l 592 58 q 651 65 624 58 q 699 94 678 72 q 728 158 719 115 l 796 483 l 344 483 l 275 153 q 272 133 274 144 q 269 114 269 121 q 298 69 269 79 q 369 58 326 58 l 388 58 l 375 0 l -29 0 m 501 1089 q 563 1151 529 1115 q 631 1225 597 1188 q 685 1293 664 1263 l 817 1293 q 841 1225 825 1263 q 876 1151 857 1188 q 911 1089 896 1115 l 907 1071 l 858 1071 q 813 1107 836 1086 q 771 1151 790 1128 q 735 1196 751 1174 q 680 1151 710 1174 q 619 1107 650 1128 q 557 1071 588 1086 l 497 1071 l 501 1089 z "},"":{"ha":832,"x_min":61,"x_max":808,"o":"m 639 -14 q 545 26 578 -14 q 513 125 513 65 q 519 203 513 158 q 539 313 525 249 l 563 421 q 574 469 567 440 q 586 531 581 499 q 592 586 592 563 q 580 641 592 614 q 528 668 568 668 q 442 636 485 668 q 362 554 399 604 q 299 451 325 504 q 265 356 274 397 l 190 0 l 61 0 l 242 858 q 251 906 249 886 q 254 932 254 926 q 241 974 254 960 q 206 992 228 988 q 157 997 183 997 l 146 997 l 158 1056 l 414 1056 l 360 800 q 328 661 344 726 q 304 569 311 596 l 319 569 q 438 709 376 661 q 576 757 499 757 q 664 735 632 757 q 710 679 696 714 q 725 603 725 644 q 716 527 725 568 q 700 450 707 486 l 664 286 q 651 210 656 247 q 646 140 646 172 q 659 91 646 108 q 694 74 672 74 q 738 82 717 74 q 783 106 760 90 l 808 65 q 734 12 775 38 q 639 -14 693 -14 m 349 1126 q 410 1189 376 1153 q 478 1263 444 1225 q 532 1331 511 1300 l 664 1331 q 688 1263 672 1300 q 724 1189 704 1225 q 758 1126 743 1153 l 754 1108 l 706 1108 q 660 1144 683 1124 q 618 1188 638 1165 q 582 1233 599 1211 q 527 1188 557 1211 q 466 1144 497 1165 q 404 1108 435 1124 l 344 1108 l 349 1126 z "},"":{"ha":1101,"x_min":-29,"x_max":1176,"o":"m 118 693 l 131 761 l 1126 761 l 1114 693 l 118 693 m -29 0 l -18 58 l 0 58 q 59 65 32 58 q 107 94 86 72 q 136 158 128 115 l 281 839 q 285 860 283 847 q 286 878 286 872 q 274 913 286 901 q 238 929 261 925 q 186 933 215 933 l 168 933 l 181 992 l 585 992 l 572 933 l 554 933 q 496 926 524 933 q 449 899 468 919 q 419 833 429 878 l 360 553 l 811 553 l 872 839 q 876 860 875 847 q 878 878 878 872 q 850 924 878 914 q 778 933 822 933 l 760 933 l 772 992 l 1176 992 l 1164 933 l 1146 933 q 1088 926 1115 933 q 1040 899 1060 919 q 1011 833 1021 878 l 867 153 q 863 133 865 144 q 861 114 861 121 q 874 78 861 90 q 910 63 888 67 q 961 58 932 58 l 979 58 l 967 0 l 563 0 l 574 58 l 592 58 q 651 65 624 58 q 699 94 678 72 q 728 158 719 115 l 796 483 l 344 483 l 275 153 q 272 133 274 144 q 269 114 269 121 q 298 69 269 79 q 369 58 326 58 l 388 58 l 375 0 l -29 0 z "},"":{"ha":832,"x_min":61,"x_max":808,"o":"m 639 -14 q 545 26 578 -14 q 513 125 513 65 q 519 203 513 158 q 539 313 525 249 l 557 393 q 568 442 561 413 q 581 503 575 471 q 586 558 586 535 q 574 613 586 586 q 522 640 563 640 q 436 608 479 640 q 356 526 393 576 q 294 423 319 476 q 260 328 268 369 l 190 0 l 61 0 l 233 824 l 108 824 l 121 889 l 247 889 q 252 916 250 904 q 254 932 254 928 q 241 974 254 960 q 206 992 228 988 q 157 997 183 997 l 146 997 l 158 1056 l 414 1056 l 378 889 l 615 889 l 603 824 l 364 824 l 360 800 q 338 698 350 751 q 315 602 325 644 q 299 542 304 560 l 314 542 q 432 681 371 633 q 571 729 493 729 q 658 708 626 729 q 705 651 690 686 q 719 575 719 617 q 710 499 719 540 q 694 422 701 458 l 664 286 q 651 210 656 247 q 646 140 646 172 q 659 91 646 108 q 694 74 672 74 q 738 82 717 74 q 783 106 760 90 l 808 65 q 734 12 775 38 q 639 -14 693 -14 z "},"":{"ha":510,"x_min":-29,"x_max":676,"o":"m -29 0 l -18 58 l 0 58 q 59 65 32 58 q 107 94 86 72 q 136 158 128 115 l 281 839 q 285 860 283 847 q 286 878 286 872 q 258 924 286 914 q 186 933 231 933 l 168 933 l 181 992 l 585 992 l 572 933 l 554 933 q 496 926 524 933 q 449 899 468 919 q 419 833 429 878 l 275 153 q 272 133 274 144 q 269 114 269 121 q 298 69 269 79 q 369 58 326 58 l 388 58 l 375 0 l -29 0 m 496 1071 q 431 1084 458 1071 q 381 1115 403 1097 q 338 1145 358 1132 q 296 1158 318 1158 q 239 1135 254 1158 q 213 1085 224 1113 l 150 1085 q 186 1165 163 1128 q 246 1225 210 1201 q 332 1249 282 1249 q 397 1235 369 1249 q 446 1205 424 1222 q 488 1174 468 1188 q 531 1161 508 1161 q 588 1184 571 1161 q 614 1235 604 1207 l 676 1235 q 642 1156 665 1193 q 582 1094 618 1118 q 496 1071 546 1071 z "},"":{"ha":422,"x_min":22,"x_max":549,"o":"m 215 -14 q 130 25 160 -14 q 100 118 100 64 q 106 188 100 147 q 118 269 111 228 q 131 336 125 310 l 185 592 q 186 653 194 633 q 156 680 178 674 q 104 686 135 686 l 86 686 l 99 744 l 347 744 l 253 299 q 244 254 250 283 q 235 194 239 225 q 232 144 232 164 q 244 92 232 110 q 278 74 256 74 q 326 84 301 74 q 378 110 351 94 l 403 69 q 320 15 372 43 q 215 -14 268 -14 m 368 842 q 303 855 331 842 q 253 885 275 868 q 210 916 231 903 q 168 929 190 929 q 111 906 126 929 q 85 856 96 883 l 22 856 q 58 935 35 899 q 118 996 82 972 q 204 1019 154 1019 q 269 1006 242 1019 q 318 976 296 993 q 360 945 340 958 q 403 932 381 932 q 460 955 443 932 q 486 1006 476 978 l 549 1006 q 514 926 538 964 q 454 865 490 889 q 368 842 418 842 z "},"":{"ha":510,"x_min":-29,"x_max":614,"o":"m -29 0 l -18 58 l 0 58 q 59 65 32 58 q 107 94 86 72 q 136 158 128 115 l 281 839 q 285 860 283 847 q 286 878 286 872 q 258 924 286 914 q 186 933 231 933 l 168 933 l 181 992 l 585 992 l 572 933 l 554 933 q 496 926 524 933 q 449 899 468 919 q 419 833 429 878 l 275 153 q 272 133 274 144 q 269 114 269 121 q 298 69 269 79 q 369 58 326 58 l 388 58 l 375 0 l -29 0 m 193 1071 l 211 1153 l 614 1153 l 596 1071 l 193 1071 z "},"":{"ha":422,"x_min":76,"x_max":497,"o":"m 215 -14 q 130 25 160 -14 q 100 118 100 64 q 106 188 100 147 q 118 269 111 228 q 131 336 125 310 l 185 592 q 186 653 194 633 q 156 680 178 674 q 104 686 135 686 l 86 686 l 99 744 l 347 744 l 253 299 q 244 254 250 283 q 235 194 239 225 q 232 144 232 164 q 244 92 232 110 q 278 74 256 74 q 326 84 301 74 q 378 110 351 94 l 403 69 q 320 15 372 43 q 215 -14 268 -14 m 76 842 l 94 924 l 497 924 l 479 842 l 76 842 z "},"":{"ha":510,"x_min":-29,"x_max":615,"o":"m -29 0 l -18 58 l 0 58 q 59 65 32 58 q 107 94 86 72 q 136 158 128 115 l 281 839 q 285 860 283 847 q 286 878 286 872 q 258 924 286 914 q 186 933 231 933 l 168 933 l 181 992 l 585 992 l 572 933 l 554 933 q 496 926 524 933 q 449 899 468 919 q 419 833 429 878 l 275 153 q 272 133 274 144 q 269 114 269 121 q 298 69 269 79 q 369 58 326 58 l 388 58 l 375 0 l -29 0 m 392 1071 q 299 1093 336 1071 q 241 1158 261 1115 q 217 1261 221 1200 l 281 1261 q 318 1190 286 1214 q 401 1167 350 1167 q 491 1189 453 1167 q 551 1261 529 1211 l 615 1261 q 573 1166 603 1210 q 498 1097 543 1122 q 392 1071 453 1071 z "},"":{"ha":422,"x_min":86,"x_max":497,"o":"m 215 -14 q 130 25 160 -14 q 100 118 100 64 q 106 188 100 147 q 118 269 111 228 q 131 336 125 310 l 185 592 q 186 653 194 633 q 156 680 178 674 q 104 686 135 686 l 86 686 l 99 744 l 347 744 l 253 299 q 244 254 250 283 q 235 194 239 225 q 232 144 232 164 q 244 92 232 110 q 278 74 256 74 q 326 84 301 74 q 378 110 351 94 l 403 69 q 320 15 372 43 q 215 -14 268 -14 m 274 842 q 181 864 218 842 q 123 928 143 886 q 99 1032 103 971 l 163 1032 q 200 961 168 985 q 283 938 232 938 q 373 960 335 938 q 433 1032 411 982 l 497 1032 q 455 937 485 981 q 380 867 425 893 q 274 842 335 842 z "},"":{"ha":510,"x_min":-29,"x_max":585,"o":"m -29 0 l -18 58 l 0 58 q 59 65 32 58 q 107 94 86 72 q 136 158 128 115 l 281 839 q 285 860 283 847 q 286 878 286 872 q 258 924 286 914 q 186 933 231 933 l 168 933 l 181 992 l 585 992 l 572 933 l 554 933 q 496 926 524 933 q 449 899 468 919 q 419 833 429 878 l 275 153 q 272 133 274 144 q 269 114 269 121 q 298 69 269 79 q 369 58 326 58 l 388 58 l 375 0 l -29 0 m 194 -333 q 75 -297 118 -333 q 32 -192 32 -260 q 58 -103 32 -142 q 131 -40 85 -65 q 239 0 178 -14 l 318 0 q 247 -32 286 -10 q 181 -89 208 -54 q 153 -172 153 -124 q 175 -227 153 -207 q 232 -247 197 -247 q 274 -244 251 -247 q 322 -236 296 -242 l 306 -311 q 253 -327 282 -321 q 194 -333 225 -333 z "},"":{"ha":422,"x_min":0,"x_max":403,"o":"m 215 -14 q 130 25 160 -14 q 100 118 100 64 q 106 188 100 147 q 118 269 111 228 q 131 336 125 310 l 185 592 q 188 612 188 603 q 189 628 189 621 q 166 676 189 665 q 104 686 143 686 l 86 686 l 99 744 l 347 744 l 253 299 q 244 254 250 283 q 235 194 239 225 q 232 144 232 164 q 244 92 232 110 q 278 74 256 74 q 326 84 301 74 q 378 110 351 94 l 403 69 q 320 15 372 43 q 215 -14 268 -14 m 311 883 q 255 902 276 883 q 233 960 233 921 q 244 1010 233 989 q 273 1044 254 1032 q 317 1057 292 1057 q 372 1038 350 1057 q 394 981 394 1019 q 382 923 394 944 q 351 892 369 901 q 311 883 332 883 m 163 -333 q 43 -297 86 -333 q 0 -192 0 -260 q 26 -103 0 -142 q 99 -40 53 -65 q 207 0 146 -14 l 286 0 q 215 -32 254 -10 q 149 -89 176 -54 q 121 -172 121 -124 q 143 -227 121 -207 q 200 -247 165 -247 q 242 -244 219 -247 q 290 -236 264 -242 l 274 -311 q 222 -327 250 -321 q 163 -333 193 -333 z "},"":{"ha":510,"x_min":-29,"x_max":585,"o":"m -29 0 l -18 58 l 0 58 q 59 65 32 58 q 107 94 86 72 q 136 158 128 115 l 281 839 q 285 860 283 847 q 286 878 286 872 q 258 924 286 914 q 186 933 231 933 l 168 933 l 181 992 l 585 992 l 572 933 l 554 933 q 496 926 524 933 q 449 899 468 919 q 419 833 429 878 l 275 153 q 272 133 274 144 q 269 114 269 121 q 298 69 269 79 q 369 58 326 58 l 388 58 l 375 0 l -29 0 m 419 1113 q 363 1131 385 1113 q 342 1189 342 1150 q 352 1240 342 1218 q 381 1274 363 1261 q 425 1286 400 1286 q 481 1267 458 1286 q 503 1210 503 1249 q 490 1152 503 1174 q 459 1122 478 1131 q 419 1113 440 1113 z "},"":{"ha":1006,"x_min":-29,"x_max":1088,"o":"m -29 0 l -18 58 l 0 58 q 59 65 32 58 q 107 94 86 72 q 136 158 128 115 l 281 839 q 285 860 283 847 q 286 878 286 872 q 258 924 286 914 q 186 933 231 933 l 168 933 l 181 992 l 585 992 l 572 933 l 554 933 q 496 926 524 933 q 449 899 468 919 q 419 833 429 878 l 275 153 q 272 133 274 144 q 269 114 269 121 q 298 69 269 79 q 369 58 326 58 l 388 58 l 375 0 l -29 0 m 408 -333 q 345 -329 371 -333 q 294 -318 319 -325 l 314 -256 q 358 -265 332 -261 q 404 -268 383 -268 q 490 -245 453 -268 q 554 -167 526 -222 q 603 -12 582 -111 l 783 839 q 788 860 786 847 q 789 878 789 872 q 761 924 789 914 q 689 933 733 933 l 671 933 l 683 992 l 1088 992 l 1075 933 l 1057 933 q 999 926 1026 933 q 951 899 971 919 q 922 833 932 878 l 742 -11 q 676 -192 718 -121 q 569 -299 635 -264 q 408 -333 503 -333 z "},"":{"ha":826,"x_min":86,"x_max":818,"o":"m 215 -14 q 130 25 160 -14 q 100 118 100 64 q 106 188 100 147 q 118 269 111 228 q 131 336 125 310 l 185 592 q 188 612 188 603 q 189 628 189 621 q 166 676 189 665 q 104 686 143 686 l 86 686 l 99 744 l 347 744 l 253 299 q 244 254 250 283 q 235 194 239 225 q 232 144 232 164 q 244 92 232 110 q 278 74 256 74 q 326 84 301 74 q 378 110 351 94 l 403 69 q 320 15 372 43 q 215 -14 268 -14 m 311 883 q 255 902 276 883 q 233 960 233 921 q 244 1010 233 989 q 273 1044 254 1032 q 317 1057 292 1057 q 372 1038 350 1057 q 394 981 394 1019 q 382 923 394 944 q 351 892 369 901 q 311 883 332 883 m 308 -333 q 265 -330 288 -333 q 228 -322 242 -326 l 240 -258 q 270 -265 251 -261 q 304 -268 289 -268 q 382 -242 350 -268 q 438 -160 414 -217 q 481 -11 461 -103 l 608 592 q 612 612 611 603 q 613 628 613 621 q 590 676 613 665 q 528 686 567 686 l 510 686 l 522 744 l 771 744 l 611 -11 q 563 -166 592 -104 q 496 -265 533 -228 q 412 -317 458 -301 q 308 -333 365 -333 m 735 883 q 678 902 700 883 q 657 960 657 921 q 667 1010 657 989 q 697 1044 678 1032 q 740 1057 715 1057 q 796 1038 774 1057 q 818 981 818 1019 q 792 905 818 926 q 735 883 765 883 z "},"":{"ha":496,"x_min":-215,"x_max":594,"o":"m -101 -333 q -165 -329 -139 -333 q -215 -318 -190 -325 l -196 -256 q -152 -265 -178 -261 q -106 -268 -126 -268 q -20 -245 -57 -268 q 44 -167 17 -222 q 93 -12 72 -111 l 274 839 q 278 860 276 847 q 279 878 279 872 q 251 924 279 914 q 179 933 224 933 l 161 933 l 174 992 l 578 992 l 565 933 l 547 933 q 489 926 517 933 q 442 899 461 919 q 413 833 422 878 l 232 -11 q 167 -192 208 -121 q 59 -299 125 -264 q -101 -333 -7 -333 m 185 1089 q 247 1151 213 1115 q 314 1225 281 1188 q 368 1293 347 1263 l 500 1293 q 524 1225 508 1263 q 560 1151 540 1188 q 594 1089 579 1115 l 590 1071 l 542 1071 q 497 1107 519 1086 q 454 1151 474 1128 q 418 1196 435 1174 q 363 1151 393 1174 q 302 1107 333 1128 q 240 1071 271 1086 l 181 1071 l 185 1089 z "},"":{"ha":404,"x_min":-194,"x_max":460,"o":"m -114 -333 q -158 -330 -135 -333 q -194 -322 -181 -326 l -182 -258 q -152 -265 -171 -261 q -118 -268 -133 -268 q -40 -242 -72 -268 q 15 -160 -8 -217 q 58 -11 39 -103 l 186 592 q 190 612 189 603 q 190 628 190 621 q 167 676 190 665 q 106 686 144 686 l 88 686 l 100 744 l 349 744 l 189 -11 q 140 -166 169 -104 q 74 -265 111 -228 q -10 -317 36 -301 q -114 -333 -57 -333 m 50 860 q 112 922 78 886 q 179 996 146 958 q 233 1064 213 1033 l 365 1064 q 390 996 374 1033 q 425 922 406 958 q 460 860 444 886 l 456 842 l 407 842 q 362 878 385 857 q 319 922 339 899 q 283 967 300 944 q 228 922 258 944 q 167 878 199 899 q 106 842 136 857 l 46 842 l 50 860 z "},"":{"ha":972,"x_min":-29,"x_max":1054,"o":"m -29 0 l -18 58 l 0 58 q 59 65 32 58 q 106 94 86 72 q 136 158 126 115 l 281 839 q 285 860 283 847 q 286 878 286 872 q 258 924 286 914 q 186 933 231 933 l 168 933 l 181 992 l 585 992 l 572 933 l 554 933 q 496 926 524 933 q 449 899 468 919 q 419 833 429 878 l 335 450 l 693 779 q 753 837 731 814 q 787 876 776 860 q 797 904 797 892 q 784 928 797 922 q 736 935 771 935 l 747 992 l 1054 992 l 1043 935 q 995 926 1019 935 q 945 899 971 917 q 891 858 919 882 q 829 804 863 835 l 529 532 l 553 633 l 744 169 q 778 108 760 132 q 822 71 797 83 q 876 58 846 58 l 881 58 l 868 0 l 849 0 q 744 7 786 0 q 676 28 703 14 q 631 68 649 43 q 599 129 613 93 l 440 531 l 515 508 l 321 372 l 275 153 q 272 133 274 144 q 269 114 269 121 q 298 69 269 79 q 369 58 326 58 l 388 58 l 375 0 l -29 0 m 265 -289 q 308 -189 286 -243 q 347 -85 329 -135 l 468 -85 l 465 -99 q 433 -147 451 -121 q 392 -202 414 -174 q 350 -258 371 -231 q 310 -307 329 -285 l 263 -307 l 265 -289 z "},"":{"ha":790,"x_min":61,"x_max":832,"o":"m 715 -10 q 592 4 640 -8 q 515 47 544 17 q 464 133 486 78 l 350 414 l 426 389 l 247 275 l 190 0 l 61 0 l 242 858 q 251 906 249 886 q 254 932 254 926 q 226 985 254 974 q 157 997 197 997 l 146 997 l 158 1056 l 414 1056 l 360 800 q 338 701 351 763 q 309 571 325 640 q 278 440 293 501 q 251 343 263 379 l 472 535 q 532 590 510 568 q 564 629 554 613 q 574 658 574 646 q 568 676 574 671 q 549 684 563 682 q 513 686 536 686 l 525 744 l 832 744 l 819 686 q 753 671 788 686 q 680 627 718 656 q 596 557 642 599 l 424 397 l 443 497 l 596 165 q 630 106 611 132 q 675 64 649 79 q 738 49 701 49 l 725 -10 l 715 -10 m 175 -289 q 217 -189 196 -243 q 257 -85 239 -135 l 378 -85 l 375 -99 q 342 -147 361 -121 q 302 -202 324 -174 q 260 -258 281 -231 q 219 -307 239 -285 l 172 -307 l 175 -289 z "},"":{"ha":790,"x_min":61,"x_max":831,"o":"m 714 -10 q 592 4 639 -8 q 515 48 544 17 q 464 133 486 79 l 350 414 l 426 389 l 247 275 l 190 0 l 61 0 l 176 547 q 186 595 183 575 q 189 621 189 615 q 160 674 189 663 q 92 686 132 686 l 81 686 l 93 744 l 349 744 l 311 572 q 297 510 303 538 q 284 458 290 483 q 270 406 278 433 q 251 343 263 379 l 471 533 q 551 614 528 582 q 574 664 574 646 q 567 677 574 672 q 548 684 561 682 q 511 686 535 686 l 524 744 l 831 744 l 818 686 q 751 671 786 686 q 678 626 717 656 q 594 556 640 597 l 424 397 l 443 497 l 596 165 q 630 106 611 132 q 675 64 649 79 q 738 49 701 49 l 725 -10 l 714 -10 z "},"":{"ha":865,"x_min":-28,"x_max":788,"o":"m -28 0 l -15 58 l 3 58 q 60 65 33 58 q 107 94 88 72 q 136 158 126 115 l 281 839 q 285 860 283 847 q 286 878 286 872 q 258 924 286 914 q 186 933 231 933 l 168 933 l 181 992 l 585 992 l 572 933 l 554 933 q 497 927 524 933 q 450 901 469 921 q 421 839 431 881 l 257 69 l 531 69 q 603 88 574 69 q 651 136 632 107 q 679 194 669 165 l 715 299 l 788 299 l 715 0 l -28 0 m 392 1071 l 396 1089 q 447 1151 421 1117 q 499 1223 474 1186 q 544 1293 524 1260 l 693 1293 l 689 1279 q 644 1231 672 1258 q 583 1173 617 1203 q 514 1117 549 1143 q 447 1071 479 1090 l 392 1071 z "},"":{"ha":422,"x_min":101,"x_max":619,"o":"m 217 -14 q 131 25 161 -14 q 101 118 101 64 q 107 188 101 147 q 119 269 113 228 q 132 336 126 310 l 246 869 q 252 908 250 889 q 254 932 254 926 q 226 985 254 974 q 157 997 197 997 l 140 997 l 153 1056 l 415 1056 l 254 299 q 246 254 251 283 q 236 194 240 225 q 232 144 232 164 q 244 92 232 110 q 278 74 256 74 q 326 84 301 74 q 378 110 351 94 l 403 69 q 321 15 372 43 q 217 -14 269 -14 m 318 1110 l 322 1128 q 374 1190 347 1156 q 425 1262 400 1225 q 471 1332 450 1299 l 619 1332 l 615 1318 q 571 1269 599 1297 q 509 1212 543 1242 q 440 1156 475 1182 q 374 1110 406 1129 l 318 1110 z "},"":{"ha":865,"x_min":-28,"x_max":788,"o":"m -28 0 l -15 58 l 3 58 q 60 65 33 58 q 107 94 88 72 q 136 158 126 115 l 281 839 q 285 860 283 847 q 286 878 286 872 q 258 924 286 914 q 186 933 231 933 l 168 933 l 181 992 l 585 992 l 572 933 l 554 933 q 497 927 524 933 q 450 901 469 921 q 421 839 431 881 l 257 69 l 531 69 q 603 88 574 69 q 651 136 632 107 q 679 194 669 165 l 715 299 l 788 299 l 715 0 l -28 0 m 213 -289 q 255 -189 233 -243 q 294 -85 276 -135 l 415 -85 l 413 -99 q 380 -147 399 -121 q 340 -202 361 -174 q 297 -258 318 -231 q 257 -307 276 -285 l 210 -307 l 213 -289 z "},"":{"ha":422,"x_min":-12,"x_max":415,"o":"m 217 -14 q 131 25 161 -14 q 101 118 101 64 q 107 188 101 147 q 119 269 113 228 q 132 336 126 310 l 246 869 q 252 908 250 889 q 254 932 254 926 q 226 985 254 974 q 157 997 197 997 l 140 997 l 153 1056 l 415 1056 l 254 299 q 246 254 251 283 q 236 194 240 225 q 232 144 232 164 q 244 92 232 110 q 278 74 256 74 q 326 84 301 74 q 378 110 351 94 l 403 69 q 321 15 372 43 q 217 -14 269 -14 m -10 -289 q 33 -189 11 -243 q 72 -85 54 -135 l 193 -85 l 190 -99 q 158 -147 176 -121 q 117 -202 139 -174 q 75 -258 96 -231 q 35 -307 54 -285 l -12 -307 l -10 -289 z "},"":{"ha":865,"x_min":-28,"x_max":825,"o":"m 622 788 q 651 853 636 818 q 679 923 665 888 q 704 992 693 958 l 825 992 l 822 978 q 777 911 804 949 q 721 836 750 874 q 667 769 692 799 l 619 769 l 622 788 m -28 0 l -15 58 l 3 58 q 60 65 33 58 q 107 94 88 72 q 136 158 126 115 l 281 839 q 285 860 283 847 q 286 878 286 872 q 258 924 286 914 q 186 933 231 933 l 168 933 l 181 992 l 585 992 l 572 933 l 554 933 q 497 927 524 933 q 450 901 469 921 q 421 839 431 881 l 257 69 l 531 69 q 603 88 574 69 q 651 136 632 107 q 679 194 669 165 l 715 299 l 788 299 l 715 0 l -28 0 z "},"":{"ha":422,"x_min":101,"x_max":651,"o":"m 449 851 q 477 917 463 882 q 506 987 492 951 q 531 1056 519 1022 l 651 1056 l 649 1042 q 603 975 631 1013 q 547 900 576 938 q 493 833 518 863 l 446 833 l 449 851 m 217 -14 q 131 25 161 -14 q 101 118 101 64 q 107 188 101 147 q 119 269 113 228 q 132 336 126 310 l 246 869 q 252 908 250 889 q 254 932 254 926 q 226 985 254 974 q 157 997 197 997 l 140 997 l 153 1056 l 415 1056 l 254 299 q 246 254 251 283 q 236 194 240 225 q 232 144 232 164 q 244 92 232 110 q 278 74 256 74 q 326 84 301 74 q 378 110 351 94 l 403 69 q 321 15 372 43 q 217 -14 269 -14 z "},"":{"ha":865,"x_min":-28,"x_max":788,"o":"m -28 0 l -15 58 l 3 58 q 60 65 33 58 q 107 94 88 72 q 136 158 126 115 l 281 839 q 285 860 283 847 q 286 878 286 872 q 258 924 286 914 q 186 933 231 933 l 168 933 l 181 992 l 585 992 l 572 933 l 554 933 q 497 927 524 933 q 450 901 469 921 q 421 839 431 881 l 257 69 l 531 69 q 603 88 574 69 q 651 136 632 107 q 679 194 669 165 l 715 299 l 788 299 l 715 0 l -28 0 m 697 446 q 641 465 663 446 q 619 522 619 483 q 630 573 619 551 q 659 607 640 594 q 703 619 678 619 q 758 601 736 619 q 781 543 781 582 q 768 485 781 507 q 737 455 756 464 q 697 446 718 446 z "},"":{"ha":547,"x_min":101,"x_max":581,"o":"m 217 -14 q 131 25 161 -14 q 101 118 101 64 q 107 188 101 147 q 119 269 113 228 q 132 336 126 310 l 246 869 q 252 908 250 889 q 254 932 254 926 q 226 985 254 974 q 157 997 197 997 l 140 997 l 153 1056 l 415 1056 l 254 299 q 246 254 251 283 q 236 194 240 225 q 232 144 232 164 q 244 92 232 110 q 278 74 256 74 q 326 84 301 74 q 378 110 351 94 l 403 69 q 321 15 372 43 q 217 -14 269 -14 m 497 400 q 441 419 463 400 q 419 476 419 438 q 430 527 419 506 q 459 561 440 549 q 503 574 478 574 q 558 555 536 574 q 581 497 581 536 q 568 440 581 461 q 537 409 556 418 q 497 400 518 400 z "},"":{"ha":865,"x_min":-28,"x_max":788,"o":"m 36 318 l 53 396 l 203 472 l 360 553 l 601 679 l 585 599 l 343 474 l 186 394 l 36 318 m -28 0 l -15 58 l 3 58 q 60 65 33 58 q 107 94 88 72 q 136 158 126 115 l 281 839 q 285 860 283 847 q 286 878 286 872 q 258 924 286 914 q 186 933 231 933 l 168 933 l 181 992 l 585 992 l 572 933 l 554 933 q 497 927 524 933 q 450 901 469 921 q 421 839 431 881 l 257 69 l 531 69 q 603 88 574 69 q 651 136 632 107 q 679 194 669 165 l 715 299 l 788 299 l 715 0 l -28 0 z "},"":{"ha":450,"x_min":11,"x_max":453,"o":"m 11 318 l 28 396 l 158 464 l 304 538 l 453 614 l 436 533 l 288 458 l 142 383 l 11 318 m 217 -14 q 131 25 161 -14 q 101 118 101 64 q 107 188 101 147 q 119 269 113 228 q 132 336 126 310 l 246 869 q 252 908 250 889 q 254 932 254 926 q 226 985 254 974 q 157 997 197 997 l 140 997 l 153 1056 l 415 1056 l 254 299 q 246 254 251 283 q 236 194 240 225 q 232 144 232 164 q 244 92 232 110 q 278 74 256 74 q 326 84 301 74 q 378 110 351 94 l 403 69 q 321 15 372 43 q 217 -14 269 -14 z "},"":{"ha":1060,"x_min":-28,"x_max":1149,"o":"m -28 0 l -15 58 l 3 58 q 60 65 33 58 q 107 94 88 72 q 136 158 126 115 l 281 839 q 285 860 283 847 q 286 878 286 872 q 258 924 286 914 q 186 933 231 933 l 168 933 l 181 992 l 433 992 l 769 225 l 900 839 q 904 860 903 847 q 906 878 906 872 q 878 924 906 914 q 806 933 850 933 l 788 933 l 800 992 l 1149 992 l 1136 933 l 1118 933 q 1060 926 1088 933 q 1013 899 1033 919 q 983 833 993 878 l 807 0 l 717 0 l 360 814 l 219 153 q 216 133 218 144 q 214 114 214 121 q 242 69 214 79 q 314 58 271 58 l 332 58 l 319 0 l -28 0 m 599 1071 l 603 1089 q 654 1151 628 1117 q 706 1223 681 1186 q 751 1293 731 1260 l 900 1293 l 896 1279 q 851 1231 879 1258 q 790 1173 824 1203 q 721 1117 756 1143 q 654 1071 686 1090 l 599 1071 z "},"":{"ha":832,"x_min":61,"x_max":808,"o":"m 639 -14 q 545 26 578 -14 q 513 125 513 65 q 519 203 513 158 q 539 313 525 249 l 563 421 q 574 469 567 440 q 586 531 581 499 q 592 586 592 563 q 580 641 592 614 q 528 668 568 668 q 442 636 485 668 q 362 554 399 604 q 299 451 325 504 q 265 356 274 397 l 190 0 l 61 0 l 178 558 q 184 597 182 578 q 186 621 186 615 q 158 674 186 663 q 89 686 129 686 l 78 686 l 90 744 l 347 744 l 310 569 l 324 569 q 440 709 381 661 q 576 757 499 757 q 664 735 632 757 q 710 679 696 714 q 725 603 725 644 q 716 527 725 568 q 700 450 707 486 l 664 286 q 651 210 656 247 q 646 140 646 172 q 659 91 646 108 q 694 74 672 74 q 738 82 717 74 q 783 106 760 90 l 808 65 q 734 12 775 38 q 639 -14 693 -14 m 461 842 l 465 860 q 517 922 490 888 q 568 994 543 957 q 614 1064 593 1031 l 763 1064 l 758 1050 q 714 1001 742 1029 q 652 944 686 974 q 583 888 618 914 q 517 842 549 861 l 461 842 z "},"":{"ha":1060,"x_min":-28,"x_max":1149,"o":"m -28 0 l -15 58 l 3 58 q 60 65 33 58 q 107 94 88 72 q 136 158 126 115 l 281 839 q 285 860 283 847 q 286 878 286 872 q 258 924 286 914 q 186 933 231 933 l 168 933 l 181 992 l 433 992 l 769 225 l 900 839 q 904 860 903 847 q 906 878 906 872 q 878 924 906 914 q 806 933 850 933 l 788 933 l 800 992 l 1149 992 l 1136 933 l 1118 933 q 1060 926 1088 933 q 1013 899 1033 919 q 983 833 993 878 l 807 0 l 717 0 l 360 814 l 219 153 q 216 133 218 144 q 214 114 214 121 q 242 69 214 79 q 314 58 271 58 l 332 58 l 319 0 l -28 0 m 310 -289 q 352 -189 331 -243 q 392 -85 374 -135 l 513 -85 l 510 -99 q 477 -147 496 -121 q 437 -202 458 -174 q 394 -258 415 -231 q 354 -307 374 -285 l 307 -307 l 310 -289 z "},"":{"ha":832,"x_min":61,"x_max":808,"o":"m 639 -14 q 545 26 578 -14 q 513 125 513 65 q 519 203 513 158 q 539 313 525 249 l 563 421 q 574 469 567 440 q 586 531 581 499 q 592 586 592 563 q 580 641 592 614 q 528 668 568 668 q 442 636 485 668 q 362 554 399 604 q 299 451 325 504 q 265 356 274 397 l 190 0 l 61 0 l 178 558 q 184 597 182 578 q 186 621 186 615 q 158 674 186 663 q 89 686 129 686 l 78 686 l 90 744 l 347 744 l 310 569 l 324 569 q 440 709 381 661 q 576 757 499 757 q 664 735 632 757 q 710 679 696 714 q 725 603 725 644 q 716 527 725 568 q 700 450 707 486 l 664 286 q 651 210 656 247 q 646 140 646 172 q 659 91 646 108 q 694 74 672 74 q 738 82 717 74 q 783 106 760 90 l 808 65 q 734 12 775 38 q 639 -14 693 -14 m 196 -289 q 238 -189 217 -243 q 278 -85 260 -135 l 399 -85 l 396 -99 q 363 -147 382 -121 q 323 -202 344 -174 q 281 -258 301 -231 q 240 -307 260 -285 l 193 -307 l 196 -289 z "},"":{"ha":1060,"x_min":-28,"x_max":1149,"o":"m -28 0 l -15 58 l 3 58 q 60 65 33 58 q 107 94 88 72 q 136 158 126 115 l 281 839 q 285 860 283 847 q 286 878 286 872 q 258 924 286 914 q 186 933 231 933 l 168 933 l 181 992 l 433 992 l 769 225 l 900 839 q 904 860 903 847 q 906 878 906 872 q 878 924 906 914 q 806 933 850 933 l 788 933 l 800 992 l 1149 992 l 1136 933 l 1118 933 q 1060 926 1088 933 q 1013 899 1033 919 q 983 833 993 878 l 807 0 l 717 0 l 360 814 l 219 153 q 216 133 218 144 q 214 114 214 121 q 242 69 214 79 q 314 58 271 58 l 332 58 l 319 0 l -28 0 m 668 1071 q 642 1142 658 1104 q 608 1214 625 1179 q 574 1275 590 1249 l 578 1293 l 628 1293 q 669 1256 649 1276 q 710 1212 690 1235 q 746 1167 729 1189 q 803 1212 772 1189 q 867 1256 833 1235 q 929 1293 900 1278 l 988 1293 l 983 1275 q 924 1214 957 1249 q 858 1142 890 1179 q 800 1071 826 1106 l 668 1071 z "},"":{"ha":832,"x_min":61,"x_max":825,"o":"m 639 -14 q 545 26 578 -14 q 513 125 513 65 q 519 203 513 158 q 539 313 525 249 l 563 421 q 574 469 567 440 q 586 531 581 499 q 592 586 592 563 q 580 641 592 614 q 528 668 568 668 q 442 636 485 668 q 362 554 399 604 q 299 451 325 504 q 265 356 274 397 l 190 0 l 61 0 l 178 558 q 184 597 182 578 q 186 621 186 615 q 158 674 186 663 q 89 686 129 686 l 78 686 l 90 744 l 347 744 l 310 569 l 324 569 q 440 709 381 661 q 576 757 499 757 q 664 735 632 757 q 710 679 696 714 q 725 603 725 644 q 716 527 725 568 q 700 450 707 486 l 664 286 q 651 210 656 247 q 646 140 646 172 q 659 91 646 108 q 694 74 672 74 q 738 82 717 74 q 783 106 760 90 l 808 65 q 734 12 775 38 q 639 -14 693 -14 m 506 842 q 479 913 496 875 q 445 985 463 950 q 411 1046 428 1019 l 415 1064 l 465 1064 q 507 1026 486 1047 q 547 983 528 1006 q 583 938 567 960 q 640 983 610 960 q 704 1027 671 1006 q 767 1064 738 1049 l 825 1064 l 821 1046 q 761 985 794 1019 q 696 913 728 950 q 638 842 664 876 l 506 842 z "},"":{"ha":1071,"x_min":54,"x_max":1047,"o":"m 878 -14 q 784 26 817 -14 q 751 125 751 65 q 758 203 751 158 q 778 313 764 249 l 801 421 q 813 469 806 440 q 825 531 819 499 q 831 586 831 563 q 819 641 831 614 q 767 668 807 668 q 681 636 724 668 q 601 554 638 604 q 538 451 564 504 q 504 356 513 397 l 429 0 l 300 0 l 417 558 q 423 597 421 578 q 425 621 425 615 q 397 674 425 663 q 328 686 368 686 l 317 686 l 329 744 l 586 744 l 549 569 l 563 569 q 678 709 619 661 q 815 757 738 757 q 903 735 871 757 q 949 679 935 714 q 964 603 964 644 q 955 527 964 568 q 939 450 946 486 l 903 286 q 890 210 894 247 q 885 140 885 172 q 898 91 885 108 q 933 74 911 74 q 977 82 956 74 q 1022 106 999 90 l 1047 65 q 973 12 1014 38 q 878 -14 932 -14 m 60 669 q 165 715 129 685 q 201 786 201 744 q 188 817 201 806 q 156 839 174 828 q 125 866 139 850 q 111 910 111 882 q 137 971 111 950 q 197 992 163 992 q 274 962 242 992 q 306 878 306 932 q 244 710 306 783 q 54 611 183 638 l 60 669 z "},"":{"ha":1060,"x_min":-28,"x_max":1149,"o":"m 490 -333 q 439 -329 465 -333 q 392 -318 413 -325 l 408 -256 q 446 -265 426 -261 q 485 -268 465 -268 q 576 -244 529 -268 q 661 -162 622 -219 q 721 -8 700 -106 l 360 814 l 219 153 q 216 133 218 144 q 214 114 214 121 q 242 69 214 79 q 314 58 271 58 l 332 58 l 319 0 l -28 0 l -15 58 l 3 58 q 60 65 33 58 q 108 94 88 72 q 136 158 128 115 l 278 828 q 283 858 281 843 q 286 878 286 872 q 258 924 286 914 q 186 933 231 933 l 168 933 l 181 992 l 433 992 l 769 222 l 897 824 q 903 855 900 838 q 906 878 906 872 q 878 924 906 914 q 806 933 850 933 l 788 933 l 800 992 l 1149 992 l 1136 933 l 1118 933 q 1060 926 1088 933 q 1013 899 1032 919 q 983 833 993 878 l 804 -11 q 757 -162 786 -100 q 689 -261 728 -224 q 601 -316 650 -299 q 490 -333 551 -333 z "},"":{"ha":781,"x_min":61,"x_max":725,"o":"m 299 -333 q 255 -330 278 -333 q 218 -322 232 -326 l 231 -258 q 260 -265 242 -261 q 294 -268 279 -268 q 372 -242 340 -268 q 428 -160 404 -217 q 471 -11 451 -103 l 563 417 q 575 476 568 444 q 587 538 582 508 q 592 586 592 568 q 580 641 592 614 q 528 668 568 668 q 442 636 485 668 q 362 554 399 604 q 299 451 325 504 q 265 356 274 397 l 190 0 l 61 0 l 178 558 q 184 597 182 578 q 186 621 186 615 q 158 674 186 663 q 89 686 129 686 l 78 686 l 90 744 l 347 744 l 310 569 l 324 569 q 440 709 381 661 q 576 757 499 757 q 664 735 632 757 q 710 679 696 714 q 725 603 725 644 q 721 553 725 581 q 711 497 717 525 q 700 446 706 469 l 601 -11 q 553 -166 582 -104 q 486 -265 524 -228 q 402 -317 449 -301 q 299 -333 356 -333 z "},"":{"ha":1031,"x_min":72,"x_max":988,"o":"m 436 -15 q 251 28 333 -15 q 120 158 168 72 q 72 369 72 244 q 94 538 72 450 q 162 708 117 625 q 274 859 207 792 q 429 967 340 926 q 628 1007 518 1007 q 806 967 724 1007 q 938 842 888 926 q 988 625 988 758 q 966 461 988 549 q 901 290 944 374 q 791 136 857 206 q 636 26 725 67 q 436 -15 547 -15 m 444 61 q 588 101 525 61 q 698 208 651 142 q 775 353 744 274 q 820 514 806 433 q 835 663 835 594 q 806 816 835 757 q 729 903 778 875 q 617 932 681 932 q 472 892 536 932 q 362 785 408 851 q 285 640 315 719 q 239 479 254 560 q 224 331 224 399 q 253 176 224 236 q 333 89 282 117 q 444 61 383 61 m 444 1071 l 463 1153 l 865 1153 l 847 1071 l 444 1071 z "},"":{"ha":797,"x_min":60,"x_max":738,"o":"m 326 -14 q 134 58 208 -14 q 60 274 60 129 q 76 402 60 335 q 124 533 92 469 q 206 647 157 596 q 322 728 256 699 q 474 758 389 758 q 607 729 547 758 q 702 637 667 700 q 738 471 738 574 q 722 345 738 411 q 675 215 707 279 q 594 100 643 151 q 479 17 546 49 q 326 -14 413 -14 m 342 57 q 438 86 396 57 q 508 163 479 115 q 556 269 538 211 q 584 385 575 326 q 593 494 593 444 q 557 643 593 599 q 457 688 521 688 q 361 658 403 688 q 290 581 319 629 q 241 475 260 533 q 213 358 222 417 q 204 249 204 299 q 222 137 204 179 q 269 76 239 94 q 342 57 300 57 m 290 842 l 308 924 l 711 924 l 693 842 l 290 842 z "},"":{"ha":1031,"x_min":72,"x_max":988,"o":"m 436 -15 q 251 28 333 -15 q 120 158 168 72 q 72 369 72 244 q 94 538 72 450 q 162 708 117 625 q 274 859 207 792 q 429 967 340 926 q 628 1007 518 1007 q 806 967 724 1007 q 938 842 888 926 q 988 625 988 758 q 966 461 988 549 q 901 290 944 374 q 791 136 857 206 q 636 26 725 67 q 436 -15 547 -15 m 444 61 q 588 101 525 61 q 698 208 651 142 q 775 353 744 274 q 820 514 806 433 q 835 663 835 594 q 806 816 835 757 q 729 903 778 875 q 617 932 681 932 q 472 892 536 932 q 362 785 408 851 q 285 640 315 719 q 239 479 254 560 q 224 331 224 399 q 253 176 224 236 q 333 89 282 117 q 444 61 383 61 m 656 1071 q 563 1093 600 1071 q 505 1158 525 1115 q 481 1261 485 1200 l 544 1261 q 582 1190 550 1214 q 665 1167 614 1167 q 755 1189 717 1167 q 815 1261 793 1211 l 879 1261 q 837 1166 867 1210 q 762 1097 807 1122 q 656 1071 717 1071 z "},"":{"ha":797,"x_min":60,"x_max":738,"o":"m 326 -14 q 134 58 208 -14 q 60 274 60 129 q 76 402 60 335 q 124 533 92 469 q 206 647 157 596 q 322 728 256 699 q 474 758 389 758 q 607 729 547 758 q 702 637 667 700 q 738 471 738 574 q 722 345 738 411 q 675 215 707 279 q 594 100 643 151 q 479 17 546 49 q 326 -14 413 -14 m 342 57 q 438 86 396 57 q 508 163 479 115 q 556 269 538 211 q 584 385 575 326 q 593 494 593 444 q 557 643 593 599 q 457 688 521 688 q 361 658 403 688 q 290 581 319 629 q 241 475 260 533 q 213 358 222 417 q 204 249 204 299 q 222 137 204 179 q 269 76 239 94 q 342 57 300 57 m 493 842 q 400 864 438 842 q 342 928 363 886 q 318 1032 322 971 l 382 1032 q 419 961 388 985 q 503 938 451 938 q 592 960 554 938 q 653 1032 631 982 l 717 1032 q 674 937 704 981 q 599 867 644 893 q 493 842 554 842 z "},"":{"ha":1031,"x_min":72,"x_max":1032,"o":"m 436 -15 q 251 28 333 -15 q 120 158 168 72 q 72 369 72 244 q 94 538 72 450 q 162 708 117 625 q 274 859 207 792 q 429 967 340 926 q 628 1007 518 1007 q 806 967 724 1007 q 938 842 888 926 q 988 625 988 758 q 966 461 988 549 q 901 290 944 374 q 791 136 857 206 q 636 26 725 67 q 436 -15 547 -15 m 444 61 q 588 101 525 61 q 698 208 651 142 q 775 353 744 274 q 820 514 806 433 q 835 663 835 594 q 806 816 835 757 q 729 903 778 875 q 617 932 681 932 q 472 892 536 932 q 362 785 408 851 q 285 640 315 719 q 239 479 254 560 q 224 331 224 399 q 253 176 224 236 q 333 89 282 117 q 444 61 383 61 m 735 1089 q 787 1153 761 1119 q 838 1224 813 1188 q 883 1293 863 1260 l 1032 1293 l 1028 1279 q 985 1233 1014 1261 q 923 1175 957 1206 q 854 1117 889 1144 q 792 1071 819 1090 l 731 1071 l 735 1089 m 485 1089 q 538 1154 511 1119 q 589 1225 564 1189 q 633 1293 614 1261 l 782 1293 l 778 1279 q 735 1233 764 1261 q 673 1175 707 1206 q 604 1117 639 1144 q 542 1071 569 1090 l 481 1071 l 485 1089 z "},"":{"ha":797,"x_min":60,"x_max":840,"o":"m 326 -14 q 134 58 208 -14 q 60 274 60 129 q 76 402 60 335 q 124 533 92 469 q 206 647 157 596 q 322 728 256 699 q 474 758 389 758 q 607 729 547 758 q 702 637 667 700 q 738 471 738 574 q 722 345 738 411 q 675 215 707 279 q 594 100 643 151 q 479 17 546 49 q 326 -14 413 -14 m 342 57 q 438 86 396 57 q 508 163 479 115 q 556 269 538 211 q 584 385 575 326 q 593 494 593 444 q 557 643 593 599 q 457 688 521 688 q 361 658 403 688 q 290 581 319 629 q 241 475 260 533 q 213 358 222 417 q 204 249 204 299 q 222 137 204 179 q 269 76 239 94 q 342 57 300 57 m 543 860 q 595 924 569 890 q 646 994 621 958 q 692 1064 671 1031 l 840 1064 l 836 1050 q 794 1004 822 1032 q 731 946 765 976 q 663 888 697 915 q 600 842 628 861 l 539 842 l 543 860 m 293 860 q 346 925 319 890 q 397 996 372 960 q 442 1064 422 1032 l 590 1064 l 586 1050 q 544 1004 572 1032 q 481 946 515 976 q 413 888 447 915 q 350 842 378 861 l 289 842 l 293 860 z "},"":{"ha":1336,"x_min":72,"x_max":1351,"o":"m 436 -15 q 251 28 333 -15 q 120 158 168 72 q 72 369 72 244 q 94 538 72 450 q 162 708 117 625 q 274 859 207 792 q 429 967 340 926 q 628 1007 518 1007 q 678 1005 653 1007 q 728 999 703 1003 q 775 992 753 996 l 1351 992 l 1307 749 l 1235 749 q 1238 774 1236 756 q 1240 809 1239 792 q 1242 829 1242 826 q 1219 895 1242 868 q 1143 922 1197 922 l 910 922 l 831 553 l 1165 553 l 1151 485 l 817 485 l 728 69 l 996 69 q 1071 85 1040 69 q 1122 127 1101 101 q 1153 183 1142 153 l 1175 243 l 1247 243 l 1186 0 l 589 0 q 542 -8 569 -4 q 486 -13 514 -11 q 436 -15 458 -15 m 444 61 q 528 68 488 61 q 592 85 568 75 l 765 904 q 701 922 743 913 q 617 932 658 932 q 472 892 536 932 q 362 785 408 851 q 285 640 315 719 q 239 479 254 560 q 224 331 224 399 q 253 176 224 236 q 333 89 282 117 q 444 61 383 61 z "},"":{"ha":1199,"x_min":60,"x_max":1172,"o":"m 326 -14 q 134 60 208 -14 q 60 274 60 133 q 76 401 60 335 q 124 531 92 468 q 206 646 157 594 q 322 728 256 697 q 474 758 389 758 q 612 726 550 758 q 707 626 674 694 q 784 695 742 665 q 878 742 826 725 q 988 758 929 758 q 1124 716 1075 758 q 1172 599 1172 674 q 1120 463 1172 526 q 977 359 1068 399 q 769 319 886 319 q 743 320 758 319 q 721 321 728 321 q 718 291 719 306 q 717 263 717 276 q 756 124 717 174 q 871 74 796 74 q 990 106 938 74 q 1071 174 1042 138 q 1081 160 1078 169 q 1085 139 1085 150 q 1060 73 1085 108 q 981 12 1035 38 q 844 -14 928 -14 q 708 17 769 -14 q 611 113 647 49 q 535 47 578 76 q 441 2 493 18 q 326 -14 389 -14 m 342 54 q 438 83 396 54 q 508 160 479 113 q 556 267 538 208 q 584 384 575 325 q 593 492 593 443 q 557 638 593 592 q 457 685 521 685 q 361 656 403 685 q 290 578 319 626 q 241 471 260 529 q 213 353 222 413 q 204 246 204 294 q 222 137 204 179 q 269 74 239 94 q 342 54 300 54 m 747 385 q 892 412 829 385 q 992 487 956 439 q 1029 599 1029 535 q 1008 669 1029 646 q 949 692 988 692 q 875 665 910 692 q 813 592 840 638 q 765 493 785 547 q 733 385 744 439 l 747 385 z "},"":{"ha":922,"x_min":-28,"x_max":863,"o":"m -28 0 l -15 58 l 3 58 q 60 65 33 58 q 106 90 86 71 q 135 151 126 110 l 281 839 q 285 860 283 847 q 286 878 286 872 q 258 924 286 914 q 186 933 231 933 l 168 933 l 181 992 l 544 992 q 784 933 706 992 q 863 756 863 875 q 840 634 863 685 q 778 549 817 583 q 695 495 740 515 q 606 465 650 475 l 706 168 q 749 85 725 113 q 819 58 772 58 l 831 58 l 819 0 l 801 0 q 674 14 722 0 q 600 63 626 28 q 554 163 574 99 l 474 438 l 336 438 l 275 153 q 272 133 274 144 q 269 114 269 121 q 298 69 269 79 q 369 58 326 58 l 415 58 l 403 0 l -28 0 m 457 503 q 589 528 531 503 q 681 606 647 553 q 715 747 715 660 q 671 885 715 846 q 533 925 626 925 l 439 925 l 350 503 l 457 503 m 514 1071 l 518 1089 q 569 1151 543 1117 q 621 1223 596 1186 q 667 1293 646 1260 l 815 1293 l 811 1279 q 767 1231 794 1258 q 705 1173 739 1203 q 636 1117 671 1143 q 569 1071 601 1090 l 514 1071 z "},"":{"ha":650,"x_min":61,"x_max":657,"o":"m 178 558 q 184 597 182 578 q 186 621 186 615 q 151 674 186 663 q 75 686 115 686 l 64 686 l 76 744 l 322 744 l 293 544 l 307 544 q 364 650 333 601 q 438 728 394 699 q 543 758 481 758 q 629 731 601 758 q 657 663 657 704 q 630 585 657 614 q 542 557 603 557 q 531 637 542 607 q 486 667 519 667 q 413 629 450 667 q 344 530 376 592 q 285 395 311 468 q 243 253 258 322 l 190 0 l 61 0 l 178 558 m 342 842 l 346 860 q 397 922 371 888 q 449 994 424 957 q 494 1064 474 1031 l 643 1064 l 639 1050 q 594 1001 622 1029 q 533 944 567 974 q 464 888 499 914 q 397 842 429 861 l 342 842 z "},"":{"ha":922,"x_min":-28,"x_max":863,"o":"m -28 0 l -15 58 l 3 58 q 60 65 33 58 q 106 90 86 71 q 135 151 126 110 l 281 839 q 285 860 283 847 q 286 878 286 872 q 258 924 286 914 q 186 933 231 933 l 168 933 l 181 992 l 544 992 q 784 933 706 992 q 863 756 863 875 q 840 634 863 685 q 778 549 817 583 q 695 495 740 515 q 606 465 650 475 l 706 168 q 749 85 725 113 q 819 58 772 58 l 831 58 l 819 0 l 801 0 q 674 14 722 0 q 600 63 626 28 q 554 163 574 99 l 474 438 l 336 438 l 275 153 q 272 133 274 144 q 269 114 269 121 q 298 69 269 79 q 369 58 326 58 l 415 58 l 403 0 l -28 0 m 457 503 q 589 528 531 503 q 681 606 647 553 q 715 747 715 660 q 671 885 715 846 q 533 925 626 925 l 439 925 l 350 503 l 457 503 m 268 -289 q 310 -189 289 -243 q 350 -85 332 -135 l 471 -85 l 468 -99 q 435 -147 454 -121 q 395 -202 417 -174 q 353 -258 374 -231 q 313 -307 332 -285 l 265 -307 l 268 -289 z "},"":{"ha":650,"x_min":-37,"x_max":657,"o":"m 178 558 q 184 597 182 578 q 186 621 186 615 q 151 674 186 663 q 75 686 115 686 l 64 686 l 76 744 l 322 744 l 293 544 l 307 544 q 364 650 333 601 q 438 728 394 699 q 543 758 481 758 q 629 731 601 758 q 657 663 657 704 q 630 585 657 614 q 542 557 603 557 q 531 637 542 607 q 486 667 519 667 q 413 629 450 667 q 344 530 376 592 q 285 395 311 468 q 243 253 258 322 l 190 0 l 61 0 l 178 558 m -35 -289 q 8 -189 -14 -243 q 47 -85 29 -135 l 168 -85 l 165 -99 q 133 -147 151 -121 q 92 -202 114 -174 q 50 -258 71 -231 q 10 -307 29 -285 l -37 -307 l -35 -289 z "},"":{"ha":922,"x_min":-28,"x_max":896,"o":"m -28 0 l -15 58 l 3 58 q 60 65 33 58 q 106 90 86 71 q 135 151 126 110 l 281 839 q 285 860 283 847 q 286 878 286 872 q 258 924 286 914 q 186 933 231 933 l 168 933 l 181 992 l 544 992 q 784 933 706 992 q 863 756 863 875 q 840 634 863 685 q 778 549 817 583 q 695 495 740 515 q 606 465 650 475 l 706 168 q 749 85 725 113 q 819 58 772 58 l 831 58 l 819 0 l 801 0 q 674 14 722 0 q 600 63 626 28 q 554 163 574 99 l 474 438 l 336 438 l 275 153 q 272 133 274 144 q 269 114 269 121 q 298 69 269 79 q 369 58 326 58 l 415 58 l 403 0 l -28 0 m 457 503 q 589 528 531 503 q 681 606 647 553 q 715 747 715 660 q 671 885 715 846 q 533 925 626 925 l 439 925 l 350 503 l 457 503 m 576 1071 q 550 1142 567 1104 q 516 1214 533 1179 q 482 1275 499 1249 l 486 1293 l 536 1293 q 578 1256 557 1276 q 618 1212 599 1235 q 654 1167 638 1189 q 711 1212 681 1189 q 775 1256 742 1235 q 838 1293 808 1278 l 896 1293 l 892 1275 q 832 1214 865 1249 q 767 1142 799 1179 q 708 1071 735 1106 l 576 1071 z "},"":{"ha":650,"x_min":61,"x_max":736,"o":"m 178 558 q 184 597 182 578 q 186 621 186 615 q 151 674 186 663 q 75 686 115 686 l 64 686 l 76 744 l 322 744 l 293 544 l 307 544 q 364 650 333 601 q 438 728 394 699 q 543 758 481 758 q 629 731 601 758 q 657 663 657 704 q 630 585 657 614 q 542 557 603 557 q 531 637 542 607 q 486 667 519 667 q 413 629 450 667 q 344 530 376 592 q 285 395 311 468 q 243 253 258 322 l 190 0 l 61 0 l 178 558 m 417 842 q 390 913 407 875 q 356 985 374 950 q 322 1046 339 1019 l 326 1064 l 376 1064 q 418 1026 397 1047 q 458 983 439 1006 q 494 938 478 960 q 551 983 521 960 q 615 1027 582 1006 q 678 1064 649 1049 l 736 1064 l 732 1046 q 672 985 706 1019 q 607 913 639 950 q 549 842 575 876 l 417 842 z "},"":{"ha":756,"x_min":10,"x_max":779,"o":"m 318 -14 q 148 13 217 -14 q 44 86 79 40 q 10 185 10 132 q 43 264 10 238 q 117 290 76 290 q 140 173 117 226 q 209 87 163 119 q 328 54 256 54 q 483 103 426 54 q 539 233 539 151 q 526 308 539 275 q 476 376 514 342 q 364 451 439 410 q 222 567 276 501 q 167 738 167 632 q 207 877 167 817 q 323 972 247 938 q 504 1006 399 1006 q 644 987 585 1006 q 735 934 703 968 q 768 856 768 900 q 739 786 768 813 q 646 760 710 760 q 633 839 646 799 q 588 908 621 879 q 493 936 556 936 q 401 917 444 936 q 331 860 358 899 q 304 761 304 821 q 323 675 304 710 q 381 611 342 640 q 476 549 419 582 q 592 467 546 508 q 660 380 638 426 q 682 278 682 333 q 638 119 682 185 q 513 20 594 54 q 318 -14 432 -14 m 478 1071 l 482 1089 q 533 1151 507 1117 q 585 1223 560 1186 q 631 1293 610 1260 l 779 1293 l 775 1279 q 731 1231 758 1258 q 669 1173 703 1203 q 600 1117 635 1143 q 533 1071 565 1090 l 478 1071 z "}}}
